<svg width="50" height="50" viewBox="0 0 50 50" fill="none" xmlns="http://www.w3.org/2000/svg">
<path d="M25.5195 4.16797C20.9627 4.17314 16.594 5.98562 13.3718 9.20778C10.1497 12.4299 8.3372 16.7986 8.33203 21.3555C8.33203 36.0625 23.957 47.1699 24.623 47.6348C24.8858 47.8188 25.1988 47.9175 25.5195 47.9175C25.8403 47.9175 26.1533 47.8188 26.416 47.6348C27.082 47.1699 42.707 36.0625 42.707 21.3555C42.7019 16.7986 40.8894 12.4299 37.6672 9.20778C34.4451 5.98562 30.0764 4.17314 25.5195 4.16797ZM25.5195 15.1055C26.7557 15.1055 27.964 15.472 28.9918 16.1588C30.0197 16.8455 30.8207 17.8217 31.2938 18.9637C31.7668 20.1057 31.8906 21.3624 31.6494 22.5748C31.4083 23.7872 30.813 24.9008 29.9389 25.7749C29.0649 26.649 27.9512 27.2442 26.7388 27.4854C25.5265 27.7265 24.2698 27.6028 23.1278 27.1297C21.9857 26.6567 21.0096 25.8556 20.3228 24.8278C19.6361 23.8 19.2695 22.5916 19.2695 21.3555C19.2695 19.6979 19.928 18.1082 21.1001 16.9361C22.2722 15.7639 23.8619 15.1055 25.5195 15.1055Z" fill="#FCEE0A"/>
</svg>
