<svg width="1522" height="192" viewBox="0 0 1522 192" fill="none" xmlns="http://www.w3.org/2000/svg">
<path d="M615.468 1L1 191" stroke="#00F0FF" stroke-width="2" stroke-miterlimit="10"/>
<path d="M629.617 1L73.7656 191" stroke="#00F0FF" stroke-width="2" stroke-miterlimit="10"/>
<path d="M642.756 1L145.521 191" stroke="#00F0FF" stroke-width="2" stroke-miterlimit="10"/>
<path d="M656.904 1L218.287 191" stroke="#00F0FF" stroke-width="2" stroke-miterlimit="10"/>
<path d="M670.043 1L290.043 191" stroke="#00F0FF" stroke-width="2" stroke-miterlimit="10"/>
<path d="M684.192 1L362.809 191" stroke="#00F0FF" stroke-width="2" stroke-miterlimit="10"/>
<path d="M698.34 1L435.574 191" stroke="#00F0FF" stroke-width="2" stroke-miterlimit="10"/>
<path d="M712.49 1L507.33 191" stroke="#00F0FF" stroke-width="2" stroke-miterlimit="10"/>
<path d="M726.638 1L580.096 191" stroke="#00F0FF" stroke-width="2" stroke-miterlimit="10"/>
<path d="M740.787 1L652.861 191" stroke="#00F0FF" stroke-width="2" stroke-miterlimit="10"/>
<path d="M782.224 1L870.149 191" stroke="#00F0FF" stroke-width="2" stroke-miterlimit="10"/>
<path d="M809.511 1L1014.67 191" stroke="#00F0FF" stroke-width="2" stroke-miterlimit="10"/>
<path d="M837.809 1L1159.19 191" stroke="#00F0FF" stroke-width="2" stroke-miterlimit="10"/>
<path d="M823.659 1L1086.43 191" stroke="#00F0FF" stroke-width="2" stroke-miterlimit="10"/>
<path d="M795.361 1L941.904 191" stroke="#00F0FF" stroke-width="2" stroke-miterlimit="10"/>
<path d="M768.074 1L797.383 191" stroke="#00F0FF" stroke-width="2" stroke-miterlimit="10"/>
<path d="M753.926 1L724.617 191" stroke="#00F0FF" stroke-width="2" stroke-miterlimit="10"/>
<path d="M850.947 1L1230.95 191" stroke="#00F0FF" stroke-width="2" stroke-miterlimit="10"/>
<path d="M865.096 1L1303.71 191" stroke="#00F0FF" stroke-width="2" stroke-miterlimit="10"/>
<path d="M879.245 1L1376.48 191" stroke="#00F0FF" stroke-width="2" stroke-miterlimit="10"/>
<path d="M893.394 1L1449.24 191" stroke="#00F0FF" stroke-width="2" stroke-miterlimit="10"/>
<path d="M906.532 1L1521 191" stroke="#00F0FF" stroke-width="2" stroke-miterlimit="10"/>
<path d="M907.542 1H615.468" stroke="#00F0FF" stroke-width="2" stroke-miterlimit="10"/>
<path d="M915.628 4H607.383" stroke="#00F0FF" stroke-width="2" stroke-miterlimit="10"/>
<path d="M923.713 6H597.276" stroke="#00F0FF" stroke-width="2" stroke-miterlimit="10"/>
<path d="M933.819 10H587.17" stroke="#00F0FF" stroke-width="2" stroke-miterlimit="10"/>
<path d="M946.957 13H576.053" stroke="#00F0FF" stroke-width="2" stroke-miterlimit="10"/>
<path d="M960.096 17H562.915" stroke="#00F0FF" stroke-width="2" stroke-miterlimit="10"/>
<path d="M975.256 22H546.745" stroke="#00F0FF" stroke-width="2" stroke-miterlimit="10"/>
<path d="M992.436 28H528.553" stroke="#00F0FF" stroke-width="2" stroke-miterlimit="10"/>
<path d="M1014.67 34H507.33" stroke="#00F0FF" stroke-width="2" stroke-miterlimit="10"/>
<path d="M1039.94 42H482.063" stroke="#00F0FF" stroke-width="2" stroke-miterlimit="10"/>
<path d="M1072.28 52H450.734" stroke="#00F0FF" stroke-width="2" stroke-miterlimit="10"/>
<path d="M1111.69 64H411.319" stroke="#00F0FF" stroke-width="2" stroke-miterlimit="10"/>
<path d="M1162.22 80H359.776" stroke="#00F0FF" stroke-width="2" stroke-miterlimit="10"/>
<path d="M1229.94 101H291.053" stroke="#00F0FF" stroke-width="2" stroke-miterlimit="10"/>
<path d="M1327.97 131H195.043" stroke="#00F0FF" stroke-width="2" stroke-miterlimit="10"/>
<path d="M1521 191H1" stroke="#00F0FF" stroke-width="2" stroke-miterlimit="10"/>
<g opacity="0.3">
<path d="M615.468 1L1 191" stroke="#00F0FF" stroke-width="2" stroke-miterlimit="10"/>
<path d="M629.617 1L73.7656 191" stroke="#00F0FF" stroke-width="2" stroke-miterlimit="10"/>
<path d="M642.756 1L145.521 191" stroke="#00F0FF" stroke-width="2" stroke-miterlimit="10"/>
<path d="M656.904 1L218.287 191" stroke="#00F0FF" stroke-width="2" stroke-miterlimit="10"/>
<path d="M670.043 1L290.043 191" stroke="#00F0FF" stroke-width="2" stroke-miterlimit="10"/>
<path d="M684.192 1L362.809 191" stroke="#00F0FF" stroke-width="2" stroke-miterlimit="10"/>
<path d="M698.34 1L435.574 191" stroke="#00F0FF" stroke-width="2" stroke-miterlimit="10"/>
<path d="M712.49 1L507.33 191" stroke="#00F0FF" stroke-width="2" stroke-miterlimit="10"/>
<path d="M726.638 1L580.096 191" stroke="#00F0FF" stroke-width="2" stroke-miterlimit="10"/>
<path d="M740.787 1L652.861 191" stroke="#00F0FF" stroke-width="2" stroke-miterlimit="10"/>
<path d="M782.224 1L870.149 191" stroke="#00F0FF" stroke-width="2" stroke-miterlimit="10"/>
<path d="M809.511 1L1014.67 191" stroke="#00F0FF" stroke-width="2" stroke-miterlimit="10"/>
<path d="M837.809 1L1159.19 191" stroke="#00F0FF" stroke-width="2" stroke-miterlimit="10"/>
<path d="M823.659 1L1086.43 191" stroke="#00F0FF" stroke-width="2" stroke-miterlimit="10"/>
<path d="M795.361 1L941.904 191" stroke="#00F0FF" stroke-width="2" stroke-miterlimit="10"/>
<path d="M768.074 1L797.383 191" stroke="#00F0FF" stroke-width="2" stroke-miterlimit="10"/>
<path d="M753.926 1L724.617 191" stroke="#00F0FF" stroke-width="2" stroke-miterlimit="10"/>
<path d="M850.947 1L1230.95 191" stroke="#00F0FF" stroke-width="2" stroke-miterlimit="10"/>
<path d="M865.096 1L1303.71 191" stroke="#00F0FF" stroke-width="2" stroke-miterlimit="10"/>
<path d="M879.245 1L1376.48 191" stroke="#00F0FF" stroke-width="2" stroke-miterlimit="10"/>
<path d="M893.394 1L1449.24 191" stroke="#00F0FF" stroke-width="2" stroke-miterlimit="10"/>
<path d="M906.532 1L1521 191" stroke="#00F0FF" stroke-width="2" stroke-miterlimit="10"/>
<path d="M907.542 1H615.468" stroke="#00F0FF" stroke-width="2" stroke-miterlimit="10"/>
<path d="M915.628 4H607.383" stroke="#00F0FF" stroke-width="2" stroke-miterlimit="10"/>
<path d="M923.713 6H597.276" stroke="#00F0FF" stroke-width="2" stroke-miterlimit="10"/>
<path d="M933.819 10H587.17" stroke="#00F0FF" stroke-width="2" stroke-miterlimit="10"/>
<path d="M946.957 13H576.053" stroke="#00F0FF" stroke-width="2" stroke-miterlimit="10"/>
<path d="M960.096 17H562.915" stroke="#00F0FF" stroke-width="2" stroke-miterlimit="10"/>
<path d="M975.256 22H546.745" stroke="#00F0FF" stroke-width="2" stroke-miterlimit="10"/>
<path d="M992.436 28H528.553" stroke="#00F0FF" stroke-width="2" stroke-miterlimit="10"/>
<path d="M1014.67 34H507.33" stroke="#00F0FF" stroke-width="2" stroke-miterlimit="10"/>
<path d="M1039.94 42H482.063" stroke="#00F0FF" stroke-width="2" stroke-miterlimit="10"/>
<path d="M1072.28 52H450.734" stroke="#00F0FF" stroke-width="2" stroke-miterlimit="10"/>
<path d="M1111.69 64H411.319" stroke="#00F0FF" stroke-width="2" stroke-miterlimit="10"/>
<path d="M1162.22 80H359.776" stroke="#00F0FF" stroke-width="2" stroke-miterlimit="10"/>
<path d="M1229.94 101H291.053" stroke="#00F0FF" stroke-width="2" stroke-miterlimit="10"/>
<path d="M1327.97 131H195.043" stroke="#00F0FF" stroke-width="2" stroke-miterlimit="10"/>
<path d="M1521 191H1" stroke="#00F0FF" stroke-width="2" stroke-miterlimit="10"/>
</g>
<path d="M615.468 1L1 191" stroke="#00F0FF" stroke-width="0.75" stroke-miterlimit="10"/>
<path d="M629.617 1L73.7656 191" stroke="#00F0FF" stroke-width="0.75" stroke-miterlimit="10"/>
<path d="M642.756 1L145.521 191" stroke="#00F0FF" stroke-width="0.75" stroke-miterlimit="10"/>
<path d="M656.904 1L218.287 191" stroke="#00F0FF" stroke-width="0.75" stroke-miterlimit="10"/>
<path d="M670.043 1L290.043 191" stroke="#00F0FF" stroke-width="0.75" stroke-miterlimit="10"/>
<path d="M684.192 1L362.809 191" stroke="#00F0FF" stroke-width="0.75" stroke-miterlimit="10"/>
<path d="M698.34 1L435.574 191" stroke="#00F0FF" stroke-width="0.75" stroke-miterlimit="10"/>
<path d="M712.49 1L507.33 191" stroke="#00F0FF" stroke-width="0.75" stroke-miterlimit="10"/>
<path d="M726.638 1L580.096 191" stroke="#00F0FF" stroke-width="0.75" stroke-miterlimit="10"/>
<path d="M740.787 1L652.861 191" stroke="#00F0FF" stroke-width="0.75" stroke-miterlimit="10"/>
<path d="M782.224 1L870.149 191" stroke="#00F0FF" stroke-width="0.75" stroke-miterlimit="10"/>
<path d="M809.511 1L1014.67 191" stroke="#00F0FF" stroke-width="0.75" stroke-miterlimit="10"/>
<path d="M837.809 1L1159.19 191" stroke="#00F0FF" stroke-width="0.75" stroke-miterlimit="10"/>
<path d="M823.659 1L1086.43 191" stroke="#00F0FF" stroke-width="0.75" stroke-miterlimit="10"/>
<path d="M795.361 1L941.904 191" stroke="#00F0FF" stroke-width="0.75" stroke-miterlimit="10"/>
<path d="M768.074 1L797.383 191" stroke="#00F0FF" stroke-width="0.75" stroke-miterlimit="10"/>
<path d="M753.926 1L724.617 191" stroke="#00F0FF" stroke-width="0.75" stroke-miterlimit="10"/>
<path d="M850.947 1L1230.95 191" stroke="#00F0FF" stroke-width="0.75" stroke-miterlimit="10"/>
<path d="M865.096 1L1303.71 191" stroke="#00F0FF" stroke-width="0.75" stroke-miterlimit="10"/>
<path d="M879.245 1L1376.48 191" stroke="#00F0FF" stroke-width="0.75" stroke-miterlimit="10"/>
<path d="M893.394 1L1449.24 191" stroke="#00F0FF" stroke-width="0.75" stroke-miterlimit="10"/>
<path d="M906.532 1L1521 191" stroke="#00F0FF" stroke-width="0.75" stroke-miterlimit="10"/>
<path d="M907.542 1H615.468" stroke="#00F0FF" stroke-width="0.75" stroke-miterlimit="10"/>
<path d="M915.628 4H607.383" stroke="#00F0FF" stroke-width="0.75" stroke-miterlimit="10"/>
<path d="M923.713 6H597.276" stroke="#00F0FF" stroke-width="0.75" stroke-miterlimit="10"/>
<path d="M933.819 10H587.17" stroke="#00F0FF" stroke-width="0.75" stroke-miterlimit="10"/>
<path d="M946.957 13H576.053" stroke="#00F0FF" stroke-width="0.75" stroke-miterlimit="10"/>
<path d="M960.096 17H562.915" stroke="#00F0FF" stroke-width="0.75" stroke-miterlimit="10"/>
<path d="M975.256 22H546.745" stroke="#00F0FF" stroke-width="0.75" stroke-miterlimit="10"/>
<path d="M992.436 28H528.553" stroke="#00F0FF" stroke-width="0.75" stroke-miterlimit="10"/>
<path d="M1014.67 34H507.33" stroke="#00F0FF" stroke-width="0.75" stroke-miterlimit="10"/>
<path d="M1039.94 42H482.063" stroke="#00F0FF" stroke-width="0.75" stroke-miterlimit="10"/>
<path d="M1072.28 52H450.734" stroke="#00F0FF" stroke-width="0.75" stroke-miterlimit="10"/>
<path d="M1111.69 64H411.319" stroke="#00F0FF" stroke-width="0.75" stroke-miterlimit="10"/>
<path d="M1162.22 80H359.776" stroke="#00F0FF" stroke-width="0.75" stroke-miterlimit="10"/>
<path d="M1229.94 101H291.053" stroke="#00F0FF" stroke-width="0.75" stroke-miterlimit="10"/>
<path d="M1327.97 131H195.043" stroke="#00F0FF" stroke-width="0.75" stroke-miterlimit="10"/>
<path d="M1521 191H1" stroke="#00F0FF" stroke-width="0.75" stroke-miterlimit="10"/>
</svg>
