<svg width="209" height="62" viewBox="0 0 209 62" fill="none" xmlns="http://www.w3.org/2000/svg">
<path d="M191.511 2H2V60H207V21.4605L191.511 2Z" stroke="#00F0FF" stroke-width="3"/>
<path d="M53.992 40H50.632V22H62.056V40H58.696V24.64H53.992V40ZM68.0639 31.072V35.584C68.0639 36.336 68.0959 36.824 68.1599 37.048C68.3359 37.656 68.8559 37.96 69.7199 37.96C70.3919 37.96 70.8319 37.776 71.0399 37.408C71.1999 37.12 71.2799 36.512 71.2799 35.584V31.072C71.2799 30 71.1599 29.304 70.9199 28.984C70.6799 28.664 70.2799 28.504 69.7199 28.504C68.9839 28.504 68.5039 28.768 68.2799 29.296C68.1359 29.632 68.0639 30.224 68.0639 31.072ZM69.7199 40.36C67.7679 40.36 66.4639 39.84 65.8079 38.8C65.2319 37.888 64.9439 36.192 64.9439 33.712C64.9439 31.808 65.0079 30.464 65.1359 29.68C65.3279 28.464 65.7439 27.584 66.3839 27.04C67.1039 26.416 68.2159 26.104 69.7199 26.104C71.1919 26.104 72.2799 26.416 72.9839 27.04C73.6079 27.584 74.0159 28.464 74.2079 29.68C74.3359 30.48 74.3999 31.824 74.3999 33.712C74.3999 36.224 74.1279 37.92 73.5839 38.8C72.9439 39.84 71.6559 40.36 69.7199 40.36ZM77.386 26.464H85.786V37.6H86.626V42.592H83.746V40H78.562V42.592H75.682V37.6H75.922C76.562 37.536 76.978 37.16 77.17 36.472C77.314 35.96 77.386 35.008 77.386 33.616V26.464ZM82.666 28.864H80.266V33.856C80.266 34.752 80.226 35.488 80.146 36.064C80.066 36.64 79.866 37.152 79.546 37.6H82.666V28.864ZM91.762 31.504V35.56C91.762 37.16 92.266 37.96 93.274 37.96C93.722 37.96 94.058 37.744 94.282 37.312C94.522 36.88 94.642 36.32 94.642 35.632V31.12C94.642 30.192 94.594 29.592 94.498 29.32C94.306 28.776 93.882 28.504 93.226 28.504C92.586 28.504 92.162 28.864 91.954 29.584C91.826 30.016 91.762 30.656 91.762 31.504ZM91.762 26.464V27.88C92.066 27.256 92.434 26.808 92.866 26.536C93.314 26.248 93.866 26.104 94.522 26.104C95.594 26.104 96.386 26.44 96.898 27.112C97.474 27.88 97.762 29.16 97.762 30.952V35.848C97.762 37.144 97.554 38.168 97.138 38.92C96.61 39.88 95.738 40.36 94.522 40.36C93.882 40.36 93.338 40.232 92.89 39.976C92.442 39.72 92.034 39.264 91.666 38.608L91.618 44.536H88.642V26.464H91.762ZM103.642 31.072V35.584C103.642 36.336 103.674 36.824 103.738 37.048C103.914 37.656 104.434 37.96 105.298 37.96C105.97 37.96 106.41 37.776 106.618 37.408C106.778 37.12 106.858 36.512 106.858 35.584V31.072C106.858 30 106.738 29.304 106.498 28.984C106.258 28.664 105.858 28.504 105.298 28.504C104.562 28.504 104.082 28.768 103.858 29.296C103.714 29.632 103.642 30.224 103.642 31.072ZM105.298 40.36C103.346 40.36 102.042 39.84 101.386 38.8C100.81 37.888 100.522 36.192 100.522 33.712C100.522 31.808 100.586 30.464 100.714 29.68C100.906 28.464 101.322 27.584 101.962 27.04C102.682 26.416 103.794 26.104 105.298 26.104C106.77 26.104 107.858 26.416 108.562 27.04C109.186 27.584 109.594 28.464 109.786 29.68C109.914 30.48 109.978 31.824 109.978 33.712C109.978 36.224 109.706 37.92 109.162 38.8C108.522 39.84 107.234 40.36 105.298 40.36ZM115.642 31.072V35.584C115.642 36.336 115.674 36.824 115.738 37.048C115.914 37.656 116.434 37.96 117.298 37.96C117.97 37.96 118.41 37.776 118.618 37.408C118.778 37.12 118.858 36.512 118.858 35.584V31.072C118.858 30 118.738 29.304 118.498 28.984C118.258 28.664 117.858 28.504 117.298 28.504C116.562 28.504 116.082 28.768 115.858 29.296C115.714 29.632 115.642 30.224 115.642 31.072ZM112.522 29.008C112.522 27.12 112.818 25.624 113.41 24.52C114.098 23.24 115.194 22.472 116.698 22.216C117.562 22.072 118.21 21.904 118.642 21.712C119.186 21.472 119.458 21.208 119.458 20.92H121.714C121.714 21.976 121.394 22.784 120.754 23.344C120.13 23.888 119.17 24.304 117.874 24.592C116.898 24.8 116.13 25.184 115.57 25.744C115.026 26.288 114.754 27.024 114.754 27.952C115.154 27.36 115.586 26.92 116.05 26.632C116.61 26.28 117.266 26.104 118.018 26.104C119.698 26.104 120.81 26.744 121.354 28.024C121.77 29 121.978 30.896 121.978 33.712C121.978 36.224 121.706 37.92 121.162 38.8C120.522 39.84 119.234 40.36 117.298 40.36C115.346 40.36 114.042 39.84 113.386 38.8C112.81 37.888 112.522 36.192 112.522 33.712V29.008ZM133.786 40H130.666V34.168H127.834V40H124.714V26.464H127.834V31.768H130.666V26.464H133.786V40ZM136.498 34.672V31.12C136.498 29.504 136.882 28.264 137.65 27.4C138.418 26.536 139.554 26.104 141.058 26.104C143.074 26.104 144.418 26.632 145.09 27.688C145.602 28.488 145.858 29.944 145.858 32.056V33.88H139.618V35.848C139.618 36.68 139.77 37.256 140.074 37.576C140.314 37.832 140.706 37.96 141.25 37.96C141.81 37.96 142.186 37.768 142.378 37.384C142.586 36.984 142.69 36.328 142.69 35.416H145.81C145.81 37 145.49 38.2 144.85 39.016C144.146 39.912 143.026 40.36 141.49 40.36C139.698 40.36 138.418 39.92 137.65 39.04C136.882 38.144 136.498 36.688 136.498 34.672ZM139.618 31.48H142.738V30.304C142.738 29.616 142.626 29.144 142.402 28.888C142.178 28.632 141.746 28.504 141.106 28.504C140.418 28.504 139.978 28.752 139.786 29.248C139.674 29.536 139.618 30.096 139.618 30.928V31.48ZM148.498 34.672V31.12C148.498 29.504 148.882 28.264 149.65 27.4C150.418 26.536 151.554 26.104 153.058 26.104C155.074 26.104 156.418 26.632 157.09 27.688C157.602 28.488 157.858 29.944 157.858 32.056V33.88H151.618V35.848C151.618 36.68 151.77 37.256 152.074 37.576C152.314 37.832 152.706 37.96 153.25 37.96C153.81 37.96 154.186 37.768 154.378 37.384C154.586 36.984 154.69 36.328 154.69 35.416H157.81C157.81 37 157.49 38.2 156.85 39.016C156.146 39.912 155.026 40.36 153.49 40.36C151.698 40.36 150.418 39.92 149.65 39.04C148.882 38.144 148.498 36.688 148.498 34.672ZM151.618 31.48H154.738V30.304C154.738 29.616 154.626 29.144 154.402 28.888C154.178 28.632 153.746 28.504 153.106 28.504C152.418 28.504 151.978 28.752 151.786 29.248C151.674 29.536 151.618 30.096 151.618 30.928V31.48Z" fill="#00F0FF"/>
</svg>
