<svg width="377" height="85" viewBox="0 0 377 85" fill="none" xmlns="http://www.w3.org/2000/svg">
<path d="M0 51.4595V0H365V68H131.156L103.705 51.4595H0Z" fill="#FCEE0A"/>
<path d="M10 66.4595V15H375V83H141.156L113.705 66.4595H10Z" stroke="#FCEE0A" stroke-width="3"/>
<path d="M140.92 40.36H141.64H142.432C142.704 40.36 142.92 40.352 143.08 40.336C143.256 40.32 143.448 40.264 143.656 40.168C144.072 39.976 144.36 39.624 144.52 39.112C144.632 38.76 144.688 38.28 144.688 37.672C144.688 36.632 144.544 35.928 144.256 35.56C143.92 35.128 143.24 34.912 142.216 34.912H140.92V40.36ZM140.92 32.272H141.544H141.856C142.4 32.272 142.784 32.248 143.008 32.2C143.424 32.104 143.736 31.92 143.944 31.648C144.072 31.456 144.16 31.2 144.208 30.88C144.272 30.544 144.304 30.152 144.304 29.704C144.304 28.968 144.192 28.456 143.968 28.168C143.696 27.816 143.2 27.64 142.48 27.64H140.92V32.272ZM143.488 43H137.56V25H142.984C143.896 25 144.592 25.064 145.072 25.192C145.792 25.384 146.368 25.76 146.8 26.32C147.136 26.752 147.368 27.232 147.496 27.76C147.624 28.272 147.688 28.872 147.688 29.56C147.688 30.488 147.56 31.224 147.304 31.768C146.968 32.504 146.376 33.024 145.528 33.328C146.44 33.472 147.104 33.912 147.52 34.648C147.936 35.368 148.144 36.336 148.144 37.552C148.144 37.952 148.128 38.336 148.096 38.704C148.064 39.072 148 39.424 147.904 39.76C147.536 40.912 147.008 41.744 146.32 42.256C145.648 42.752 144.704 43 143.488 43ZM164.288 43H161.168V29.464H164.288V43ZM154.232 40.696C155.16 40.696 155.792 40.608 156.128 40.432C156.608 40.176 156.848 39.648 156.848 38.848C156.848 38.112 156.616 37.616 156.152 37.36C155.8 37.168 155.232 37.072 154.448 37.072H153.92V40.696H154.232ZM150.8 29.464H153.92V34.72H154.712C156.472 34.72 157.736 34.976 158.504 35.488C159.464 36.128 159.944 37.272 159.944 38.92C159.944 40.488 159.504 41.584 158.624 42.208C158.208 42.496 157.664 42.704 156.992 42.832C156.336 42.944 155.656 43 154.952 43H150.8V29.464ZM170.134 34.072V38.584C170.134 39.336 170.166 39.824 170.23 40.048C170.406 40.656 170.926 40.96 171.79 40.96C172.462 40.96 172.902 40.776 173.11 40.408C173.27 40.12 173.35 39.512 173.35 38.584V34.072C173.35 33 173.23 32.304 172.99 31.984C172.75 31.664 172.35 31.504 171.79 31.504C171.054 31.504 170.574 31.768 170.35 32.296C170.206 32.632 170.134 33.224 170.134 34.072ZM167.014 32.008C167.014 30.12 167.31 28.624 167.902 27.52C168.59 26.24 169.686 25.472 171.19 25.216C172.054 25.072 172.702 24.904 173.134 24.712C173.678 24.472 173.95 24.208 173.95 23.92H176.206C176.206 24.976 175.886 25.784 175.246 26.344C174.622 26.888 173.662 27.304 172.366 27.592C171.39 27.8 170.622 28.184 170.062 28.744C169.518 29.288 169.246 30.024 169.246 30.952C169.646 30.36 170.078 29.92 170.542 29.632C171.102 29.28 171.758 29.104 172.51 29.104C174.19 29.104 175.302 29.744 175.846 31.024C176.262 32 176.47 33.896 176.47 36.712C176.47 39.224 176.198 40.92 175.654 41.8C175.014 42.84 173.726 43.36 171.79 43.36C169.838 43.36 168.534 42.84 167.878 41.8C167.302 40.888 167.014 39.192 167.014 36.712V32.008ZM182.254 34.504V38.56C182.254 40.16 182.758 40.96 183.766 40.96C184.214 40.96 184.55 40.744 184.774 40.312C185.014 39.88 185.134 39.32 185.134 38.632V34.12C185.134 33.192 185.086 32.592 184.99 32.32C184.798 31.776 184.374 31.504 183.718 31.504C183.078 31.504 182.654 31.864 182.446 32.584C182.318 33.016 182.254 33.656 182.254 34.504ZM182.254 29.464V30.88C182.558 30.256 182.926 29.808 183.358 29.536C183.806 29.248 184.358 29.104 185.014 29.104C186.086 29.104 186.878 29.44 187.39 30.112C187.966 30.88 188.254 32.16 188.254 33.952V38.848C188.254 40.144 188.046 41.168 187.63 41.92C187.102 42.88 186.23 43.36 185.014 43.36C184.374 43.36 183.83 43.232 183.382 42.976C182.934 42.72 182.526 42.264 182.158 41.608L182.11 47.536H179.134V29.464H182.254ZM200.302 43H197.35C197.27 42.856 197.214 42.696 197.182 42.52C197.15 42.344 197.134 42.16 197.134 41.968C197.15 41.808 197.158 41.688 197.158 41.608C196.358 42.776 195.43 43.36 194.374 43.36C193.126 43.36 192.206 43.04 191.614 42.4C191.038 41.744 190.75 40.712 190.75 39.304C190.75 37.944 191.214 36.88 192.142 36.112C192.67 35.68 193.75 35.128 195.382 34.456C195.942 34.216 196.35 33.968 196.606 33.712C196.862 33.44 196.99 33.112 196.99 32.728C196.99 32.568 196.958 32.368 196.894 32.128C196.846 31.888 196.71 31.728 196.486 31.648C196.278 31.552 195.934 31.504 195.454 31.504C194.798 31.504 194.358 31.664 194.134 31.984C193.926 32.304 193.822 32.8 193.822 33.472H190.846C190.846 32.032 191.142 30.984 191.734 30.328C192.47 29.512 193.75 29.104 195.574 29.104C197.462 29.104 198.734 29.544 199.39 30.424C199.822 31 200.038 31.896 200.038 33.112V41.104C200.038 41.392 200.062 41.704 200.11 42.04C200.158 42.36 200.222 42.68 200.302 43ZM196.918 37.336V35.872C196.07 36.448 195.23 37.024 194.398 37.6C194.19 37.776 194.046 38.008 193.966 38.296C193.902 38.568 193.87 38.88 193.87 39.232C193.87 39.792 193.974 40.224 194.182 40.528C194.39 40.816 194.774 40.96 195.334 40.96C195.974 40.96 196.422 40.664 196.678 40.072C196.854 39.656 196.942 39.048 196.942 38.248C196.942 38.056 196.934 37.888 196.918 37.744C196.918 37.584 196.918 37.448 196.918 37.336ZM201.752 29.464H210.68V31.864H207.776V43H204.656V31.864H201.752V29.464ZM215.99 40.696C216.918 40.696 217.55 40.608 217.886 40.432C218.366 40.176 218.606 39.648 218.606 38.848C218.606 38.112 218.374 37.616 217.91 37.36C217.558 37.168 216.99 37.072 216.206 37.072H215.678V40.696H215.99ZM212.558 29.464H215.678V34.72H216.47C218.23 34.72 219.494 34.976 220.262 35.488C221.222 36.128 221.702 37.272 221.702 38.92C221.702 40.488 221.262 41.584 220.382 42.208C219.966 42.496 219.422 42.704 218.75 42.832C218.094 42.944 217.414 43 216.71 43H212.558V29.464ZM228.323 29.464H231.611L232.979 36.64C233.011 36.816 233.075 37.28 233.171 38.032C233.267 38.768 233.355 39.504 233.435 40.24C233.451 39.696 233.523 39.072 233.651 38.368C233.795 37.664 233.899 37.12 233.963 36.736L235.331 29.464H238.499L235.211 43.192C234.747 44.984 234.403 46.064 234.179 46.432C233.667 47.264 232.763 47.68 231.467 47.68C231.115 47.68 230.635 47.64 230.027 47.56V45.136C230.363 45.168 230.635 45.184 230.843 45.184C231.163 45.184 231.395 45.152 231.539 45.088C231.763 44.976 231.875 44.792 231.875 44.536C231.875 44.312 231.843 44.056 231.779 43.768C231.731 43.48 231.667 43.16 231.587 42.808L228.323 29.464ZM248.093 34.168H244.973V32.656C244.973 31.888 244.613 31.504 243.893 31.504C243.365 31.504 243.021 31.8 242.861 32.392C242.765 32.76 242.717 33.472 242.717 34.528V37.72C242.717 39.048 242.789 39.904 242.933 40.288C243.077 40.672 243.397 40.896 243.893 40.96C244.325 40.96 244.613 40.768 244.757 40.384C244.837 40.176 244.909 39.704 244.973 38.968V37.72H248.093V38.968C248.093 40.44 247.757 41.544 247.085 42.28C246.429 43 245.341 43.36 243.821 43.36C242.413 43.36 241.357 42.96 240.653 42.16C239.949 41.344 239.597 40.056 239.597 38.296V33.904C239.597 32.144 240.005 30.872 240.821 30.088C241.509 29.432 242.509 29.104 243.821 29.104C245.293 29.104 246.397 29.512 247.133 30.328C247.773 31.032 248.093 31.952 248.093 33.088V34.168ZM250.872 29.464H259.224V43H256.104V31.864H253.776V37.312C253.776 39.344 253.56 40.752 253.128 41.536C252.472 42.72 251.176 43.312 249.24 43.312V40.6C249.992 40.6 250.464 40.336 250.656 39.808C250.8 39.408 250.872 38.488 250.872 37.048V29.464ZM260.808 29.464H264.096L265.464 36.64C265.496 36.816 265.56 37.28 265.656 38.032C265.752 38.768 265.84 39.504 265.92 40.24C265.936 39.696 266.008 39.072 266.136 38.368C266.28 37.664 266.384 37.12 266.448 36.736L267.816 29.464H270.984L267.696 43.192C267.232 44.984 266.888 46.064 266.664 46.432C266.152 47.264 265.248 47.68 263.952 47.68C263.6 47.68 263.12 47.64 262.512 47.56V45.136C262.848 45.168 263.12 45.184 263.328 45.184C263.648 45.184 263.88 45.152 264.024 45.088C264.248 44.976 264.36 44.792 264.36 44.536C264.36 44.312 264.328 44.056 264.264 43.768C264.216 43.48 264.152 43.16 264.072 42.808L260.808 29.464ZM280.472 31.864H275.912V43H272.816V29.464H280.472V31.864ZM280.823 29.464H284.111L285.479 36.64C285.511 36.816 285.575 37.28 285.671 38.032C285.767 38.768 285.855 39.504 285.935 40.24C285.951 39.696 286.023 39.072 286.151 38.368C286.295 37.664 286.399 37.12 286.463 36.736L287.831 29.464H290.999L287.711 43.192C287.247 44.984 286.903 46.064 286.679 46.432C286.167 47.264 285.263 47.68 283.967 47.68C283.615 47.68 283.135 47.64 282.527 47.56V45.136C282.863 45.168 283.135 45.184 283.343 45.184C283.663 45.184 283.895 45.152 284.039 45.088C284.263 44.976 284.375 44.792 284.375 44.536C284.375 44.312 284.343 44.056 284.279 43.768C284.231 43.48 284.167 43.16 284.087 42.808L280.823 29.464Z" fill="#0A0A0A"/>
</svg>
