<svg width="50" height="50" viewBox="0 0 50 50" fill="none" xmlns="http://www.w3.org/2000/svg">
<path d="M41.668 8.33203H8.33464C6.04297 8.33203 4.1888 10.207 4.1888 12.4987L4.16797 37.4987C4.16797 39.7904 6.04297 41.6654 8.33464 41.6654H41.668C43.9596 41.6654 45.8346 39.7904 45.8346 37.4987V12.4987C45.8346 10.207 43.9596 8.33203 41.668 8.33203ZM40.8346 17.1862L26.1055 26.3945C25.4388 26.8112 24.5638 26.8112 23.8971 26.3945L9.16797 17.1862C8.95907 17.0689 8.77613 16.9105 8.63024 16.7205C8.48434 16.5305 8.37852 16.3128 8.31917 16.0807C8.25982 15.8486 8.24818 15.6069 8.28496 15.3702C8.32174 15.1334 8.40617 14.9066 8.53314 14.7035C8.66011 14.5003 8.82698 14.3251 9.02365 14.1883C9.22032 14.0515 9.4427 13.956 9.67733 13.9077C9.91197 13.8593 10.154 13.859 10.3887 13.9069C10.6234 13.9548 10.846 14.0498 11.043 14.1862L25.0013 22.9154L38.9596 14.1862C39.1566 14.0498 39.3792 13.9548 39.6139 13.9069C39.8486 13.859 40.0906 13.8593 40.3253 13.9077C40.5599 13.956 40.7823 14.0515 40.979 14.1883C41.1756 14.3251 41.3425 14.5003 41.4695 14.7035C41.5964 14.9066 41.6809 15.1334 41.7176 15.3702C41.7544 15.6069 41.7428 15.8486 41.6834 16.0807C41.6241 16.3128 41.5183 16.5305 41.3724 16.7205C41.2265 16.9105 41.0435 17.0689 40.8346 17.1862Z" fill="#FCEE0A"/>
</svg>
