<svg width="128" height="128" viewBox="0 0 128 128" fill="none" xmlns="http://www.w3.org/2000/svg">
<path d="M54.2175 19.1931C55.3451 16.1459 59.6549 16.1459 60.7825 19.1931L70.8256 46.3341C71.4839 48.1133 72.8867 49.5161 74.6659 50.1744L101.807 60.2175C104.854 61.3451 104.854 65.6549 101.807 66.7825L74.6659 76.8256C72.8867 77.4839 71.4839 78.8867 70.8256 80.6659L60.7825 107.807C59.6549 110.854 55.3451 110.854 54.2175 107.807L44.1744 80.6659C43.5161 78.8867 42.1133 77.4839 40.3341 76.8256L13.1931 66.7825C10.1459 65.6549 10.1459 61.3451 13.1931 60.2175L40.3341 50.1744C42.1133 49.5161 43.5161 48.1133 44.1744 46.3341L54.2175 19.1931Z" stroke="#FCEE0A" stroke-width="3"/>
<path d="M66.2175 19.1931C67.3451 16.1459 71.6549 16.1459 72.7825 19.1931L82.8256 46.3341C83.4839 48.1133 84.8867 49.5161 86.6659 50.1744L113.807 60.2175C116.854 61.3451 116.854 65.6549 113.807 66.7825L86.6659 76.8256C84.8867 77.4839 83.4839 78.8867 82.8256 80.6659L72.7825 107.807C71.6549 110.854 67.3451 110.854 66.2175 107.807L56.1744 80.6659C55.5161 78.8867 54.1133 77.4839 52.3341 76.8256L25.1931 66.7825C22.1459 65.6549 22.1459 61.3451 25.1931 60.2175L52.3341 50.1744C54.1133 49.5161 55.5161 48.1133 56.1744 46.3341L66.2175 19.1931Z" stroke="#FCEE0A" stroke-width="3"/>
</svg>
