<svg width="128" height="128" viewBox="0 0 128 128" fill="none" xmlns="http://www.w3.org/2000/svg">
<g clip-path="url(#clip0_1716_3101)">
<path d="M62.6079 16.0192C62.5404 16.0255 62.3298 16.0477 62.1354 16.0635C59.5947 16.3105 57.0027 17.3745 54.8589 19.0497C53.9652 19.7463 53.301 20.3923 52.4802 21.3518C51.6324 22.343 51.0519 23.1695 50.4444 24.2462C48.4437 27.8055 47.5635 32.1312 47.9766 36.3808C48.3465 40.1903 49.6965 43.7148 51.8619 46.5395C52.0374 46.7675 54.7293 49.9405 57.8397 53.5885L63.4989 60.2227L69.1581 53.5885C72.2685 49.9405 74.9604 46.7675 75.1359 46.5395C76.4049 44.8833 77.4039 42.9738 78.0789 40.906C79.2858 37.2137 79.4478 33.1888 78.5487 29.3983C77.9439 26.846 76.9044 24.547 75.4329 22.4918C75.0414 21.9472 74.01 20.7375 73.5564 20.2942C71.0886 17.8843 68.2482 16.4815 65.0244 16.0793C64.6437 16.0318 62.9211 15.9875 62.6079 16.0192Z" fill="#FCEE0A"/>
<path d="M37.7962 45.1993C36.6892 45.2658 35.5093 45.4938 34.4239 45.8485C32.2504 46.5578 30.2875 47.777 28.5352 49.5028C28.0708 49.962 27.0394 51.1716 26.6614 51.7036C24.5986 54.6075 23.416 57.9071 23.0623 61.742C22.9948 62.464 22.9948 64.535 23.0623 65.257C23.416 69.0918 24.5986 72.3915 26.6614 75.2953C27.0394 75.8273 28.0708 77.037 28.5352 77.4961C29.5261 78.4746 30.5602 79.2695 31.6807 79.9186C35.4121 82.0815 39.6781 82.414 43.6282 80.856C45.6397 80.058 47.4622 78.8103 49.039 77.1478C49.2334 76.942 51.9388 73.7848 55.0492 70.1368L60.7057 63.4995L55.0492 56.8621C51.9388 53.2141 49.2334 50.057 49.039 49.8511C45.9799 46.6211 41.9353 44.9491 37.7962 45.1993Z" fill="#FCEE0A"/>
<path d="M87.5574 45.1993C84.0069 45.4147 80.5995 47.0677 77.9616 49.8512C77.7672 50.057 75.0618 53.2142 71.9514 56.8622L66.2949 63.4995L71.9649 70.1527C75.0834 73.8102 77.7699 76.9452 77.9319 77.1162C79.56 78.8262 81.3447 80.0548 83.3724 80.856C87.3225 82.414 91.5885 82.0815 95.3199 79.9187C96.4404 79.2695 97.4745 78.4747 98.4654 77.4962C98.9298 77.037 99.9612 75.8273 100.339 75.2953C102.21 72.6607 103.385 69.6207 103.822 66.2862C103.96 65.2348 103.984 64.8358 103.984 63.5312C103.987 62.2487 103.971 61.9415 103.849 60.9345C103.433 57.505 102.254 54.4017 100.339 51.7037C99.9612 51.1717 98.9298 49.962 98.4654 49.5028C95.3955 46.4787 91.5399 44.9587 87.5574 45.1993Z" fill="#FCEE0A"/>
<path d="M57.7326 73.5441C54.5682 77.2586 51.8817 80.4285 51.7629 80.5868C50.7963 81.8725 49.9134 83.4558 49.3248 84.9695C48.1152 88.0665 47.6535 91.42 47.9775 94.7418C48.3285 98.3676 49.5516 101.696 51.5658 104.508C51.9573 105.052 52.9887 106.262 53.4423 106.705C55.6887 108.9 58.2807 110.277 61.1238 110.79C62.0337 110.955 62.3577 110.98 63.4998 110.98C64.6419 110.98 64.9659 110.955 65.8758 110.79C68.7189 110.277 71.3109 108.9 73.5573 106.705C74.0109 106.262 75.0423 105.052 75.4338 104.508C76.9053 102.453 77.9448 100.154 78.5496 97.6013C79.7295 92.636 79.0707 87.3096 76.7379 82.9428C76.3248 82.1701 75.7524 81.2708 75.2367 80.5868C75.0288 80.3081 63.5268 66.7928 63.4998 66.7928C63.4917 66.7928 60.897 69.8328 57.7326 73.5441Z" fill="#FCEE0A"/>
</g>
<defs>
<clipPath id="clip0_1716_3101">
<rect width="81" height="95" fill="white" transform="translate(23 16)"/>
</clipPath>
</defs>
</svg>
