<svg width="237" height="70" viewBox="0 0 237 70" fill="none" xmlns="http://www.w3.org/2000/svg">
<path d="M8.51562 6.92676H29.9875C32.5282 6.94943 35.0505 7.36376 37.4665 8.15533C39.9816 8.9427 42.3367 10.1764 44.4204 11.7982C46.5274 13.4545 48.2716 15.5313 49.5436 17.8982C50.9296 20.5354 51.6187 23.487 51.5446 26.4696C51.5551 29.1032 50.9626 31.7038 49.8132 34.0696C48.6657 36.4386 47.0756 38.563 45.13 40.3268C43.1176 42.17 40.7841 43.623 38.2471 44.6125C35.6038 45.5887 32.8025 46.0587 29.9875 45.9982H19.2445L51.502 65.7268H39.7372L12.4467 48.7268V40.0696H32.0169C33.664 40.0555 35.2929 39.7208 36.8137 39.0839C40.137 37.7169 42.8515 35.1775 44.4488 31.9411C45.2975 30.1995 45.7254 28.2807 45.6977 26.3411C45.7081 24.503 45.3207 22.6846 44.5623 21.0125C43.8191 19.4088 42.7897 17.9562 41.5253 16.7268C40.2628 15.4801 38.7868 14.4734 37.1685 13.7553C35.5459 13.0324 33.7914 12.6578 32.0169 12.6553H8.51562V6.92676Z" fill="#FCEA10"/>
<path d="M63.4941 65.7984V16.627H68.4044V65.7984H63.4941Z" fill="#FCEA10"/>
<path d="M78.3125 16.4268H91.2836C93.9281 16.4746 96.5372 17.0474 98.9613 18.1125C101.727 19.2642 104.258 20.9206 106.426 22.9982C108.781 25.228 110.706 27.8774 112.103 30.8125C113.532 33.9841 114.29 37.4203 114.329 40.9027C114.368 44.3852 113.687 47.8377 112.33 51.041C111.073 53.9495 109.293 56.5988 107.079 58.8553C104.963 61.0267 102.465 62.7849 99.7134 64.041C97.0803 65.2705 94.2146 65.9137 91.312 65.9267H89.8929V60.9696C92.4162 60.972 94.9165 60.487 97.2583 59.541C99.6 58.5959 101.746 57.22 103.588 55.4839C106.408 52.7385 108.354 49.2108 109.178 45.3494C110.002 41.488 109.666 37.4672 108.214 33.7982C106.339 29.0063 102.699 25.1274 98.053 22.9696C95.4921 21.7986 92.7053 21.2132 89.8929 21.2553H78.3125V16.4268Z" fill="#FCEA10"/>
<path d="M163.786 16.3555V21.3126H124.518V16.3555H163.786ZM163.857 42.6983H129.442V60.8412H163.857V65.7983H124.518V37.7412H163.857V42.6983Z" fill="#FCEA10"/>
<path d="M180.932 6.5271L226.799 65.6842H219.349L199.764 40.6557L181.514 65.6842H173.637L196.216 35.6842L173.51 6.5414L180.932 6.5271Z" fill="#FCEA10"/>
<path d="M10.3613 6.92676H31.8332C34.3745 6.94234 36.8979 7.35684 39.3122 8.15533C41.8318 8.94256 44.1915 10.1762 46.2803 11.7982C48.3864 13.4458 50.1267 15.5188 51.3893 17.8839C52.7717 20.5225 53.4605 23.4732 53.3903 26.4553C53.4076 29.0943 52.8148 31.701 51.6589 34.0696C50.5147 36.4365 48.9241 38.5569 46.9757 40.3125C44.9665 42.16 42.6321 43.6134 40.0928 44.5982C37.4511 45.582 34.6493 46.0569 31.8332 45.9982H21.1328L53.3903 65.7125H41.5971L14.2924 48.7696V40.0982H33.8059C35.453 40.084 37.0818 39.7493 38.6026 39.1125C40.2324 38.443 41.7243 37.4741 43.002 36.2553C44.3325 35.0385 45.4293 33.5858 46.2377 31.9696C47.0408 30.2647 47.4669 28.4047 47.4865 26.5179C47.5061 24.6311 47.1188 22.7625 46.3513 21.0411C45.6114 19.439 44.587 17.9866 43.3285 16.7553C42.0582 15.5116 40.5781 14.5054 38.9574 13.7839C37.3348 13.061 35.5803 12.6864 33.8059 12.6839H10.3613V6.92676Z" fill="#FCEA10"/>
<path d="M65.3398 65.7841V16.627H70.2501V65.7841H65.3398Z" fill="#FCEA10"/>
<path d="M80.1562 16.4268H93.1416C95.7813 16.4761 98.3855 17.0489 100.805 18.1125C103.574 19.2676 106.108 20.9235 108.284 22.9982C110.643 25.2245 112.568 27.8747 113.961 30.8125C115.487 34.0711 116.249 37.639 116.189 41.241C116.218 44.6134 115.536 47.9537 114.188 51.041C112.927 53.9438 111.153 56.5917 108.951 58.8553C106.827 61.0239 104.326 62.7816 101.571 64.041C98.9432 65.2702 96.0822 65.9134 93.1842 65.9267H91.765V60.9696C94.2936 60.9789 96.7998 60.4937 99.1446 59.541C101.486 58.604 103.629 57.2272 105.46 55.4839C107.393 53.6527 108.927 51.4374 109.965 48.9783C111.003 46.5192 111.523 43.8699 111.491 41.1982C111.487 38.6865 111.006 36.1989 110.072 33.8696C108.22 29.063 104.573 25.1765 99.911 23.041C97.35 21.87 94.5632 21.2846 91.7508 21.3267H80.1562V16.4268Z" fill="#FCEA10"/>
<path d="M165.647 16.3555V21.3126H126.379V16.3555H165.647ZM165.647 42.684H131.36V60.8412H165.704V65.784H126.379V37.7412H165.704L165.647 42.684Z" fill="#FCEA10"/>
<path d="M182.776 6.52734L228.644 65.6845H221.179L201.58 40.6559L183.33 65.6845H175.468L198.046 35.6845L175.34 6.54164L182.776 6.52734Z" fill="#FCEA10"/>
<path d="M11.2129 6.86914H32.699C35.2356 6.88481 37.7543 7.29933 40.1638 8.09771C42.6813 8.87623 45.0409 10.1001 47.1319 11.712C49.238 13.3596 50.9783 15.4326 52.2409 17.7977C53.5154 20.2836 54.204 23.0316 54.2532 25.8286C54.3024 28.6257 53.7109 31.3965 52.5247 33.9263C51.3673 36.2892 49.7786 38.4119 47.8415 40.1834C45.8267 42.0235 43.4938 43.4761 40.9585 44.4691C38.3245 45.4941 35.5229 46.0126 32.699 45.9977H21.9985L54.2561 65.712H42.4486L15.1582 48.712V40.0406H34.6574C36.3045 40.0264 37.9334 39.6917 39.4542 39.0549C41.0866 38.3822 42.5826 37.4138 43.8678 36.1977C45.1899 34.9766 46.2813 33.5246 47.0893 31.912C47.9046 30.2106 48.3374 28.3493 48.3571 26.4605C48.3767 24.5716 47.9826 22.7016 47.2028 20.9834C46.473 19.3756 45.4474 17.9214 44.18 16.6977C42.9123 15.4508 41.4316 14.4443 39.809 13.7263C38.1873 13.0006 36.4322 12.6258 34.6574 12.6263H11.2129V6.86914Z" fill="#FCEA10"/>
<path d="M66.1914 65.7265V16.5693H71.1159V65.7265H66.1914Z" fill="#FCEA10"/>
<path d="M81.0059 16.3691H93.9912C96.6309 16.4185 99.2351 16.9913 101.655 18.0549C104.425 19.2066 106.96 20.8628 109.134 22.9406C111.497 25.1631 113.423 27.8141 114.81 30.7549C116.336 34.0135 117.099 37.5814 117.038 41.1834C117.068 44.5558 116.386 47.8961 115.037 50.9834C113.777 53.8862 112.002 56.5341 109.801 58.7977C107.677 60.9663 105.175 62.7239 102.421 63.9834C99.7928 65.2126 96.9318 65.8558 94.0338 65.8692H92.6146V60.912C95.1427 60.9159 97.6479 60.4309 99.9942 59.4834C102.338 58.5352 104.484 57.1543 106.324 55.412C109.149 52.6726 111.097 49.1465 111.919 45.2855C112.74 41.4246 112.398 37.4046 110.936 33.7406C110.017 31.3979 108.675 29.2472 106.977 27.3977C105.217 25.5129 103.111 23.9895 100.775 22.912C98.2149 21.7378 95.4274 21.1522 92.6146 21.1977H81.0768L81.0059 16.3691Z" fill="#FCEA10"/>
<path d="M166.497 16.2988V21.256H127.229V16.2988H166.497ZM166.568 42.6417H132.139V60.7845H166.568V65.7274H127.229V37.6845H166.568V42.6417Z" fill="#FCEA10"/>
<path d="M183.64 6.46973L229.493 65.6269H222.028L202.444 40.5983L184.179 65.6269H176.317L198.896 35.6269L176.189 6.484L183.64 6.46973Z" fill="#FCEA10"/>
<path d="M63.4941 65.7984V16.627H68.4044V65.7984H63.4941Z" fill="white"/>
<path d="M78.3125 16.4268H91.2836C93.9281 16.4746 96.5372 17.0474 98.9613 18.1125C101.727 19.2642 104.258 20.9206 106.426 22.9982C108.781 25.228 110.706 27.8774 112.103 30.8125C113.532 33.9841 114.29 37.4203 114.329 40.9027C114.368 44.3852 113.687 47.8377 112.33 51.041C111.069 53.9473 109.289 56.5959 107.079 58.8553C104.963 61.0267 102.465 62.7849 99.7134 64.041C97.0803 65.2705 94.2146 65.9137 91.312 65.9267H89.8929V60.9696C92.4162 60.972 94.9165 60.487 97.2583 59.541C99.6 58.5959 101.746 57.22 103.588 55.4839C106.408 52.7385 108.354 49.2108 109.178 45.3494C110.002 41.488 109.666 37.4672 108.214 33.7982C106.339 29.0063 102.699 25.1274 98.053 22.9696C95.4921 21.7986 92.7053 21.2132 89.8929 21.2553H78.3125V16.4268Z" fill="white"/>
<path d="M163.786 16.3555V21.3126H124.518V16.3555H163.786ZM163.857 42.6983H129.442V60.8412H163.857V65.7983H124.518V37.7412H163.857V42.6983Z" fill="white"/>
<path d="M180.932 6.5271L226.799 65.6842H219.349L199.764 40.6557L181.514 65.6842H173.637L196.216 35.6842L173.51 6.5414L180.932 6.5271Z" fill="white"/>
<path d="M66.1914 65.7265V16.5693H71.1159V65.7265H66.1914Z" fill="white"/>
<path d="M81.0059 16.3691H93.9912C96.6309 16.4185 99.2351 16.9913 101.655 18.0549C104.425 19.2066 106.96 20.8628 109.134 22.9406C111.497 25.1631 113.423 27.8141 114.81 30.7549C116.336 34.0135 117.099 37.5814 117.038 41.1834C117.068 44.5558 116.386 47.8961 115.037 50.9834C113.777 53.8862 112.002 56.5341 109.801 58.7977C107.677 60.9663 105.175 62.7239 102.421 63.9834C99.7928 65.2126 96.9318 65.8558 94.0338 65.8692H92.6146V60.912C95.1433 60.9227 97.6499 60.4375 99.9942 59.4834C102.34 58.5455 104.487 57.1689 106.324 55.4263C109.149 52.6869 111.097 49.1608 111.919 45.2998C112.74 41.4388 112.398 37.4188 110.936 33.7549C110.017 31.4122 108.675 29.2615 106.977 27.412C105.217 25.5272 103.111 24.0038 100.775 22.9263C98.2149 21.7521 95.4274 21.1665 92.6146 21.212H81.0768L81.0059 16.3691Z" fill="white"/>
<path d="M166.497 16.2988V21.256H127.229V16.2988H166.497ZM166.568 42.6417H132.153V60.7845H166.568V65.7274H127.229V37.6845H166.568V42.6417Z" fill="white"/>
<path d="M183.64 6.46973L229.493 65.684H222.028L202.444 40.6412L184.179 65.684H176.317L198.896 35.684L176.189 6.51258L183.64 6.46973Z" fill="white"/>
<path d="M181.72 13.7897L180.96 14.3847C180.687 14.0308 180.493 13.647 180.38 13.2334C180.279 12.8213 180.254 12.4097 180.305 11.9984C180.356 11.5872 180.482 11.1945 180.681 10.8203C180.892 10.4477 181.173 10.1239 181.525 9.84884L186.606 5.87402L188.577 8.42646L187.816 9.02149L186.437 7.23479L182.116 10.6146C181.873 10.805 181.677 11.0291 181.529 11.2868C181.386 11.5513 181.297 11.8288 181.26 12.1191C181.224 12.4094 181.243 12.7004 181.316 12.9923C181.397 13.2789 181.531 13.5447 181.72 13.7897Z" fill="#1D1D1B"/>
<path d="M183.508 17.7489C183.235 17.3949 183.041 17.0112 182.928 16.5976C182.827 16.1855 182.802 15.7738 182.853 15.3626C182.905 14.9513 183.03 14.5586 183.229 14.1845C183.44 13.8119 183.722 13.488 184.073 13.213C184.418 12.9432 184.793 12.754 185.197 12.6453C185.613 12.5382 186.025 12.5104 186.434 12.562C186.842 12.6135 187.232 12.7396 187.604 12.9401C187.981 13.1474 188.306 13.428 188.579 13.782C188.847 14.1291 189.032 14.5087 189.133 14.9208C189.239 15.3397 189.267 15.7547 189.216 16.166C189.165 16.5772 189.036 16.9726 188.83 17.352C188.631 17.7262 188.359 18.0481 188.014 18.3179L187.527 18.6987L185.557 16.1462L186.317 15.5512L187.697 17.3379C187.9 17.1792 188.055 16.9809 188.164 16.7428C188.279 16.5115 188.34 16.2612 188.35 15.9921C188.359 15.723 188.32 15.4478 188.233 15.1665C188.146 14.8852 188.008 14.622 187.819 14.377C187.624 14.1252 187.395 13.9274 187.133 13.7836C186.877 13.6346 186.604 13.5418 186.316 13.5054C186.033 13.4758 185.746 13.498 185.456 13.5719C185.172 13.6527 184.908 13.7883 184.664 13.9787C184.414 14.1744 184.215 14.4011 184.067 14.6589C183.924 14.9234 183.832 15.1974 183.791 15.4809C183.761 15.7659 183.783 16.0544 183.857 16.3462C183.937 16.6328 184.074 16.902 184.269 17.1538L183.508 17.7489Z" fill="#1D1D1B"/>
<path d="M188.051 23.6135C187.778 23.2596 187.588 22.8732 187.482 22.4543C187.375 22.0354 187.348 21.6203 187.399 21.2091C187.45 20.7978 187.579 20.4025 187.785 20.0231C187.991 19.6436 188.27 19.3164 188.621 19.0414C188.973 18.7663 189.353 18.5779 189.763 18.476C190.179 18.3688 190.591 18.341 191 18.3926C191.415 18.4389 191.811 18.5657 192.188 18.773C192.565 18.9803 192.89 19.261 193.163 19.6149C193.452 19.9893 193.645 20.4006 193.742 20.849C193.844 21.3042 193.856 21.7479 193.777 22.1804L192.837 22.0155C192.881 21.7078 192.868 21.396 192.798 21.0799C192.727 20.7639 192.592 20.4765 192.392 20.2179C192.198 19.966 191.969 19.7682 191.707 19.6245C191.444 19.4807 191.168 19.3906 190.88 19.3542C190.592 19.3178 190.302 19.3366 190.012 19.4105C189.728 19.4913 189.464 19.6269 189.22 19.8173C188.97 20.013 188.771 20.2397 188.623 20.4975C188.48 20.762 188.391 21.0394 188.354 21.3297C188.318 21.62 188.337 21.9111 188.41 22.203C188.491 22.4895 188.628 22.7587 188.822 23.0106L188.051 23.6135Z" fill="#1D1D1B"/>
<path d="M195.996 24.9276L194.419 22.8856L197.726 20.2992L198.317 21.065L195.781 23.0484L196.766 24.3246C197.04 24.6786 197.227 25.0616 197.328 25.4736C197.435 25.8925 197.462 26.3076 197.411 26.7189C197.36 27.1301 197.231 27.5254 197.025 27.9049C196.826 28.279 196.551 28.6036 196.199 28.8787L193.663 30.8621L193.064 30.0862L195.6 28.1027C195.85 27.907 196.047 27.6769 196.189 27.4123C196.338 27.1546 196.426 26.8832 196.456 26.5982C196.497 26.3147 196.478 26.0297 196.397 25.7431C196.324 25.4513 196.19 25.1794 195.996 24.9276Z" fill="#1D1D1B"/>
<path d="M196.788 29.6203C197.139 29.3452 197.52 29.1568 197.929 29.0549C198.345 28.9477 198.758 28.9199 199.166 28.9715C199.582 29.0178 199.975 29.1412 200.347 29.3417C200.724 29.549 201.049 29.8297 201.322 30.1836C201.595 30.5375 201.782 30.9205 201.884 31.3326C201.99 31.7515 202.014 32.1692 201.956 32.5858C201.91 33.0038 201.784 33.4026 201.578 33.782C201.379 34.1561 201.104 34.4807 200.752 34.7558L198.206 36.7471L197.607 35.9712L200.153 33.9798C200.397 33.7894 200.59 33.5619 200.733 33.2974C200.881 33.0396 200.973 32.7656 201.009 32.4753C201.045 32.185 201.026 31.894 200.953 31.6021C200.879 31.3102 200.745 31.0384 200.551 30.7866C200.357 30.5347 200.128 30.3369 199.865 30.1932C199.602 30.0494 199.327 29.9593 199.038 29.9229C198.75 29.8865 198.461 29.9053 198.171 29.9792C197.886 30.06 197.622 30.1956 197.379 30.386L196.788 29.6203Z" fill="#1D1D1B"/>
<path d="M205.823 36.0981C206.091 36.4453 206.275 36.8249 206.376 37.2369C206.49 37.6505 206.521 38.063 206.469 38.4742C206.418 38.8855 206.287 39.2774 206.076 39.65C205.877 40.0242 205.604 40.3461 205.26 40.6159C204.908 40.8909 204.524 41.082 204.108 41.1892C203.704 41.2979 203.298 41.3264 202.889 41.2748C202.487 41.218 202.101 41.0832 201.731 40.8706C201.366 40.6648 201.05 40.3884 200.782 40.0412L201.542 39.4462C201.732 39.6912 201.954 39.8883 202.21 40.0373C202.473 40.1811 202.743 40.2704 203.019 40.3053C203.307 40.3417 203.591 40.3222 203.869 40.2467C204.158 40.1727 204.425 40.0405 204.669 39.8501C204.912 39.6597 205.105 39.4323 205.248 39.1677C205.396 38.91 205.485 38.6386 205.514 38.3536C205.556 38.0701 205.536 37.7851 205.456 37.4985C205.382 37.2066 205.251 36.9382 205.062 36.6932C204.873 36.4481 204.647 36.2537 204.384 36.11C204.133 35.9677 203.864 35.8784 203.575 35.842C203.299 35.8071 203.016 35.8266 202.726 35.9006C202.441 35.9814 202.177 36.1169 201.934 36.3074L201.343 35.5416C201.687 35.2719 202.062 35.0827 202.466 34.974C202.882 34.8668 203.294 34.839 203.703 34.8906C204.112 34.9422 204.498 35.0709 204.863 35.2767C205.235 35.4772 205.555 35.751 205.823 36.0981Z" fill="#1D1D1B"/>
<path d="M203.9 44.1226L203.309 43.3568L210.926 37.3986L211.517 38.1643L203.9 44.1226Z" fill="#1D1D1B"/>
<path d="M211.549 43.5162C211.817 43.8633 212.002 44.2429 212.103 44.655C212.216 45.0686 212.247 45.481 212.196 45.8922C212.145 46.3035 212.013 46.6954 211.802 47.0681C211.603 47.4422 211.331 47.7641 210.986 48.0339C210.634 48.3089 210.251 48.5 209.834 48.6072C209.43 48.7159 209.024 48.7444 208.615 48.6929C208.214 48.636 207.828 48.5012 207.458 48.2886C207.093 48.0828 206.776 47.8064 206.508 47.4592L207.269 46.8642C207.458 47.1092 207.681 47.3063 207.937 47.4553C208.2 47.5991 208.469 47.6884 208.745 47.7233C209.034 47.7597 209.317 47.7402 209.595 47.6647C209.885 47.5908 210.152 47.4586 210.395 47.2682C210.638 47.0777 210.831 46.8503 210.974 46.5857C211.122 46.328 211.211 46.0566 211.241 45.7716C211.282 45.4881 211.263 45.2031 211.182 44.9165C211.109 44.6247 210.978 44.3562 210.788 44.1112C210.599 43.8662 210.373 43.6718 210.11 43.528C209.86 43.3858 209.59 43.2964 209.302 43.26C209.025 43.2251 208.742 43.2446 208.452 43.3186C208.168 43.3994 207.903 43.535 207.66 43.7254L207.069 42.9596C207.414 42.6899 207.788 42.5007 208.192 42.392C208.609 42.2848 209.021 42.257 209.429 42.3086C209.838 42.3602 210.225 42.4889 210.59 42.6947C210.961 42.8952 211.281 43.169 211.549 43.5162Z" fill="#1D1D1B"/>
<path d="M213.004 55.8741C212.659 56.1438 212.282 56.3296 211.873 56.4315C211.462 56.5455 211.052 56.5767 210.644 56.5251C210.235 56.4735 209.846 56.3414 209.476 56.1288C209.104 55.9283 208.781 55.6511 208.508 55.2971C208.24 54.95 208.028 54.5976 207.871 54.2399C207.714 53.8823 207.617 53.5382 207.579 53.2078C207.546 52.8843 207.569 52.5769 207.648 52.2859C207.725 52.007 207.865 51.7666 208.067 51.5648L208.776 52.4837C208.7 52.6092 208.64 52.743 208.598 52.8851C208.556 53.0272 208.549 53.186 208.576 53.3614C208.596 53.5421 208.66 53.7375 208.768 53.9478C208.875 54.1701 209.042 54.4215 209.269 54.7021C209.463 54.9539 209.692 55.1517 209.955 55.2955C210.211 55.4445 210.48 55.5339 210.764 55.5635C211.045 55.6052 211.328 55.5857 211.613 55.5049C211.903 55.4309 212.17 55.2987 212.413 55.1083L214.949 53.1249C215.192 52.9345 215.385 52.707 215.528 52.4425C215.676 52.1847 215.768 51.9107 215.804 51.6204C215.846 51.3369 215.826 51.0519 215.746 50.7653C215.673 50.4735 215.539 50.2016 215.344 49.9498C215.16 49.7115 214.937 49.5206 214.674 49.3768C214.423 49.2346 214.154 49.1452 213.866 49.1088C213.577 49.0724 213.288 49.0912 212.998 49.1651C212.708 49.2391 212.441 49.3713 212.198 49.5617C211.955 49.7521 211.761 49.9796 211.619 50.2441C211.476 50.5087 211.386 50.7861 211.35 51.0764C211.314 51.3667 211.33 51.6544 211.398 51.9394C211.478 52.226 211.611 52.4884 211.794 52.7266L211.034 53.3216C210.766 52.9745 210.575 52.5941 210.462 52.1805C210.361 51.7685 210.332 51.3594 210.377 50.9535C210.428 50.5422 210.553 50.1495 210.753 49.7754C210.964 49.4028 211.249 49.0763 211.607 48.796C211.952 48.5262 212.326 48.337 212.73 48.2283C213.146 48.1211 213.559 48.0933 213.967 48.1449C214.376 48.1965 214.763 48.3252 215.128 48.531C215.504 48.7383 215.827 49.0155 216.095 49.3627C216.368 49.7166 216.555 50.0996 216.657 50.5117C216.77 50.9253 216.801 51.3377 216.749 51.749C216.698 52.1602 216.567 52.5522 216.356 52.9248C216.157 53.2989 215.885 53.6209 215.54 53.8906L213.004 55.8741Z" fill="#1D1D1B"/>
<path d="M217.16 58.7504L211.712 59.5736L211.042 58.7057L216.475 57.8621L218.649 52.7554L219.335 53.6437L217.16 58.7504Z" fill="#1D1D1B"/>
</svg>
