<svg width="237" height="70" viewBox="0 0 237 70" fill="none" xmlns="http://www.w3.org/2000/svg">
<path d="M9 6.04688H30.4849C33.0215 6.06244 35.54 6.4742 37.9494 7.26728C40.4688 8.04929 42.8283 9.27474 44.9171 10.886C47.0231 12.5226 48.7633 14.5818 50.0258 16.9313C51.4081 19.5523 52.0969 22.4834 52.0267 25.4458C52.0416 28.0608 51.454 30.644 50.3096 32.9953C49.1597 35.3471 47.5701 37.457 45.6266 39.2109C43.6129 41.0401 41.2799 42.4832 38.744 43.4682C36.1111 44.4912 33.3096 45.0111 30.4849 45.0008H19.8134L52.0551 64.5842H40.2625L12.9593 47.6971V38.9981H32.4433C34.0903 38.984 35.7191 38.6515 37.2398 38.0189C38.8722 37.3507 40.3681 36.3888 41.6532 35.1807C42.9752 33.9678 44.0666 32.5254 44.8745 30.9235C45.7265 29.1941 46.1591 27.2884 46.1375 25.3606C46.1483 23.5286 45.7558 21.7167 44.988 20.0533C44.2524 18.4594 43.2275 17.0159 41.9654 15.796C40.6934 14.5663 39.2136 13.5717 37.5946 12.8585C35.9729 12.1376 34.218 11.7653 32.4433 11.7658H9V6.04688Z" fill="#E30613"/>
<path d="M63.9766 64.5124V15.6816H68.9008V64.5124H63.9766Z" fill="#E30613"/>
<path d="M78.791 15.4844H91.7756C94.4152 15.5334 97.0193 16.1024 99.4387 17.1589C102.205 18.303 104.74 19.9429 106.917 21.998C109.273 24.2177 111.198 26.8543 112.594 29.7746C114.12 33.0116 114.882 36.5558 114.822 40.1339C114.851 43.4839 114.169 46.802 112.821 49.8689C111.56 52.7524 109.786 55.3826 107.584 57.6312C105.46 59.7854 102.959 61.5314 100.205 62.7825C97.5769 64.0036 94.7161 64.6425 91.8182 64.6557H90.3991V59.7315C92.9277 59.7421 95.4341 59.2601 97.7784 58.3124C100.124 57.3807 102.271 56.0132 104.108 54.2822C106.031 52.4558 107.559 50.2538 108.596 47.8127C109.633 45.3717 110.158 42.7436 110.139 40.0913C110.134 37.5964 109.653 35.1253 108.72 32.8114C106.867 28.0367 103.22 24.1761 98.5589 22.0547C95.9985 20.8902 93.2116 20.3085 90.3991 20.3518H78.862L78.791 15.4844Z" fill="#E30613"/>
<path d="M164.276 15.4121V20.3363H125.01V15.4121H164.276ZM164.276 41.5659H129.92V59.6025H164.333V64.5125H125.01V36.6558H164.333L164.276 41.5659Z" fill="#E30613"/>
<path d="M181.405 5.64844L227.27 64.4128H219.805L200.208 39.5504L181.958 64.4128H174.096L196.674 34.612L173.969 5.66263L181.405 5.64844Z" fill="#E30613"/>
<path d="M10.8457 6.03125H32.3307C34.8666 6.05388 37.384 6.46547 39.7951 7.25166C42.3158 8.04098 44.6788 9.26572 46.777 10.8703C48.8834 12.5123 50.6235 14.5762 51.8857 16.9298C53.2796 19.5471 53.9737 22.48 53.9008 25.4444C53.9113 28.0605 53.3188 30.6438 52.1695 32.9939C51.0244 35.3487 49.4342 37.4594 47.4865 39.2095C45.4752 41.0418 43.1416 42.4853 40.604 43.4668C37.971 44.4898 35.1695 45.0096 32.3449 44.9994H21.645L53.8724 64.4834H42.0656L14.7766 47.5963V38.9966H34.289C35.9405 38.9812 37.5736 38.6488 39.0997 38.0175C40.7278 37.3492 42.219 36.3871 43.4989 35.1793C44.844 33.9628 45.955 32.5103 46.777 30.8937C47.6301 29.1596 48.0628 27.249 48.04 25.3166C48.0491 23.4909 47.6617 21.6849 46.9047 20.0234C46.1579 18.4325 45.129 16.9902 43.8679 15.7662C42.6012 14.5367 41.126 13.542 39.5113 12.8287C37.8863 12.1025 36.1256 11.7301 34.3458 11.736H10.8457V6.03125Z" fill="#E30613"/>
<path d="M65.8203 64.5127V15.6677H70.7445V64.5127H65.8203Z" fill="#E30613"/>
<path d="M80.6367 15.4844H93.6072C96.2497 15.5347 98.8573 16.0986 101.284 17.1447C104.043 18.3029 106.571 19.9467 108.749 21.998C111.109 24.2137 113.034 26.8512 114.425 29.7746C115.957 33.0099 116.725 36.5545 116.667 40.1339C116.697 43.4839 116.015 46.802 114.666 49.8689C113.406 52.7558 111.626 55.3868 109.416 57.6312C107.295 59.7884 104.793 61.5348 102.037 62.7825C99.4054 63.9928 96.5459 64.6266 93.6498 64.6415H92.2307V59.7315C94.7592 59.7421 97.2657 59.2601 99.6099 58.3124C101.954 57.3789 104.102 56.0116 105.939 54.2822C107.862 52.4558 109.39 50.2538 110.427 47.8127C111.465 45.3717 111.99 42.7436 111.97 40.0913C111.965 37.6011 111.483 35.1348 110.551 32.8256C109.629 30.4971 108.281 28.3605 106.578 26.5249C104.82 24.6562 102.72 23.1433 100.39 22.0689C97.8251 20.9041 95.0335 20.3225 92.2165 20.366H80.6793L80.6367 15.4844Z" fill="#E30613"/>
<path d="M166.122 15.4121V20.3363H126.855V15.4121H166.122ZM166.122 41.5659H131.78V59.6025H166.193V64.5125H126.855V36.6558H166.193L166.122 41.5659Z" fill="#E30613"/>
<path d="M183.264 5.64844L229.129 64.4128H221.65L202.067 39.5504L183.817 64.4128H175.913L198.491 34.612L175.785 5.66263L183.264 5.64844Z" fill="#E30613"/>
<path d="M11.7109 5.97656H33.1817C35.7223 5.99908 38.2444 6.41067 40.6603 7.19698C43.1704 7.99096 45.5233 9.21542 47.6138 10.8156C49.7244 12.457 51.4693 14.5209 52.7367 16.8752C54.1191 19.4962 54.8078 22.4273 54.7376 25.3897C54.7481 28.0058 54.1557 30.5891 53.0064 32.9392C51.866 35.2968 50.275 37.4084 48.3234 39.1548C46.3142 40.99 43.98 42.4338 41.4408 43.4121C38.8079 44.4351 36.0064 44.955 33.1817 44.9447H22.4818L54.7376 64.5281H42.945L15.6418 47.641V38.9419H35.1542C36.8013 38.9279 38.43 38.5954 39.9508 37.9628C41.5805 37.2977 43.0723 36.3353 44.3499 35.1246C45.6803 33.9159 46.7771 32.4728 47.5854 30.8673C48.3879 29.171 48.8135 27.3211 48.8331 25.4447C48.8527 23.5683 48.4658 21.7098 47.699 19.9971C46.9522 18.4098 45.9286 16.9682 44.6763 15.7399C43.4018 14.5134 41.9226 13.5192 40.3055 12.8024C38.6856 12.0761 36.9295 11.7036 35.1542 11.7097H11.7109V5.97656Z" fill="#E30613"/>
<path d="M66.6426 64.4558V15.625H71.5526V64.4558H66.6426Z" fill="#E30613"/>
<path d="M81.502 15.4258H94.4724C97.1055 15.4783 99.7033 16.0422 102.121 17.0861C104.884 18.2442 107.417 19.8879 109.6 21.9394C111.956 24.1591 113.88 26.7957 115.276 29.716C116.804 32.9525 117.566 36.497 117.504 40.0753C117.534 43.4253 116.852 46.7434 115.503 49.8103C114.243 52.6972 112.463 55.3283 110.253 57.5727C108.137 59.7296 105.64 61.4761 102.888 62.7239C100.252 63.9357 97.3875 64.5696 94.4866 64.5829H93.0675V59.6729C95.5959 59.6821 98.1021 59.2001 100.447 58.2538C102.788 57.323 104.931 55.9553 106.762 54.2236C108.692 52.4024 110.224 50.2014 111.262 47.7592C112.3 45.3169 112.821 42.6863 112.793 40.0328C112.788 37.5425 112.306 35.0762 111.374 32.767C109.521 27.9923 105.875 24.1317 101.213 22.0103C98.6522 20.8471 95.8656 20.2656 93.0533 20.3074H81.5162L81.502 15.4258Z" fill="#E30613"/>
<path d="M166.987 15.3552V20.2794H127.664V15.3552H166.987ZM166.987 41.509H132.631V59.5456H167.044V64.4556H127.664V36.5706H166.987V41.509Z" fill="#E30613"/>
<path d="M184.115 5.5918L229.98 64.3562H222.502L202.876 39.4938L184.626 64.3562H176.764L199.342 34.5554L176.637 5.60599L184.115 5.5918Z" fill="#E30613"/>
<path d="M63.9766 64.5124V15.6816H68.9008V64.5124H63.9766Z" fill="#1D1D1B"/>
<path d="M78.791 15.4844H91.7756C94.4152 15.5334 97.0193 16.1024 99.4387 17.1589C102.205 18.303 104.74 19.9429 106.917 21.998C109.273 24.2177 111.198 26.8543 112.594 29.7746C114.12 33.0116 114.882 36.5558 114.822 40.1339C114.851 43.4839 114.169 46.802 112.821 49.8689C111.56 52.7524 109.786 55.3826 107.584 57.6312C105.46 59.7854 102.959 61.5314 100.205 62.7825C97.576 63.9991 94.7151 64.6332 91.8182 64.6415H90.3991V59.7315C92.9277 59.7421 95.4341 59.2601 97.7784 58.3124C100.124 57.3807 102.271 56.0132 104.108 54.2822C106.031 52.4558 107.559 50.2538 108.596 47.8127C109.633 45.3717 110.158 42.7436 110.139 40.0913C110.134 37.5964 109.653 35.1253 108.72 32.8114C106.867 28.0367 103.22 24.1761 98.5589 22.0547C95.9985 20.8902 93.2116 20.3085 90.3991 20.3518H78.862L78.791 15.4844Z" fill="#1D1D1B"/>
<path d="M164.276 15.4121V20.3363H125.01V15.4121H164.276ZM164.347 41.5659H129.92V59.6025H164.347V64.5125H125.01V36.6558H164.347V41.5659Z" fill="#1D1D1B"/>
<path d="M181.405 5.64844L227.27 64.4128H219.805L200.208 39.5504L181.958 64.4128H174.096L196.674 34.612L173.969 5.66263L181.405 5.64844Z" fill="#1D1D1B"/>
<path d="M66.6426 64.4558V15.625H71.5526V64.4558H66.6426Z" fill="#1D1D1B"/>
<path d="M81.502 15.4258H94.4724C97.1055 15.4783 99.7033 16.0422 102.121 17.0861C104.884 18.2442 107.417 19.8879 109.6 21.9394C111.956 24.1591 113.88 26.7957 115.276 29.716C116.804 32.9525 117.566 36.497 117.504 40.0753C117.534 43.4253 116.852 46.7434 115.503 49.8103C114.243 52.6972 112.463 55.3283 110.253 57.5727C108.137 59.7296 105.64 61.4761 102.888 62.7239C100.252 63.9357 97.3875 64.5696 94.4866 64.5829H93.0675V59.6729C95.5959 59.6821 98.1021 59.2001 100.447 58.2538C102.788 57.323 104.931 55.9553 106.762 54.2236C108.692 52.4024 110.224 50.2014 111.262 47.7592C112.3 45.3169 112.821 42.6863 112.793 40.0328C112.788 37.5425 112.306 35.0762 111.374 32.767C109.521 27.9923 105.875 24.1317 101.213 22.0103C98.6522 20.8471 95.8656 20.2656 93.0533 20.3074H81.5162L81.502 15.4258Z" fill="#1D1D1B"/>
<path d="M166.987 15.3552V20.2794H127.664V15.3552H166.987ZM166.987 41.509H132.631V59.5456H167.044V64.4556H127.664V36.5706H166.987V41.509Z" fill="#1D1D1B"/>
<path d="M184.115 5.5918L229.98 64.4129H222.502L202.876 39.5222L184.626 64.4129H176.764L199.342 34.6121L176.637 5.63437L184.115 5.5918Z" fill="#1D1D1B"/>
<path d="M182.193 12.8631L181.432 13.4542C181.159 13.1026 180.966 12.7214 180.853 12.3105C180.752 11.9012 180.727 11.4923 180.778 11.0837C180.829 10.6752 180.954 10.2851 181.153 9.91347C181.365 9.54332 181.646 9.22164 181.998 8.94843L187.079 5L189.049 7.53549L188.288 8.12657L186.909 6.35173L182.589 9.70908C182.345 9.89822 182.15 10.1208 182.001 10.3768C181.859 10.6396 181.769 10.9152 181.733 11.2036C181.697 11.4919 181.715 11.7811 181.789 12.071C181.869 12.3557 182.004 12.6197 182.193 12.8631Z" fill="white"/>
<path d="M183.98 16.796C183.707 16.4444 183.514 16.0632 183.401 15.6523C183.3 15.243 183.275 14.8341 183.326 14.4256C183.377 14.017 183.502 13.6269 183.701 13.2553C183.913 12.8851 184.194 12.5634 184.546 12.2902C184.89 12.0223 185.265 11.8343 185.669 11.7263C186.085 11.6199 186.497 11.5923 186.906 11.6435C187.314 11.6948 187.705 11.82 188.076 12.0192C188.453 12.2251 188.778 12.5039 189.051 12.8555C189.319 13.2003 189.504 13.5774 189.605 13.9867C189.712 14.4028 189.739 14.8151 189.688 15.2236C189.637 15.6322 189.508 16.0249 189.302 16.4018C189.103 16.7735 188.831 17.0933 188.486 17.3612L187.999 17.7395L186.029 15.204L186.79 14.6129L188.169 16.3878C188.372 16.2302 188.528 16.0331 188.637 15.7966C188.751 15.5668 188.813 15.3183 188.822 15.0509C188.831 14.7836 188.792 14.5102 188.705 14.2308C188.618 13.9514 188.48 13.6899 188.291 13.4465C188.096 13.1964 187.868 12.9999 187.605 12.8571C187.349 12.709 187.077 12.6169 186.788 12.5807C186.505 12.5513 186.219 12.5733 185.929 12.6468C185.644 12.727 185.38 12.8617 185.137 13.0509C184.887 13.2453 184.687 13.4705 184.539 13.7265C184.397 13.9893 184.304 14.2615 184.263 14.5431C184.234 14.8262 184.256 15.1128 184.329 15.4027C184.409 15.6873 184.547 15.9548 184.741 16.2049L183.98 16.796Z" fill="white"/>
<path d="M188.524 22.6217C188.251 22.2701 188.061 21.8863 187.954 21.4702C187.848 21.0541 187.82 20.6418 187.871 20.2333C187.923 19.8247 188.051 19.432 188.257 19.0551C188.463 18.6782 188.742 18.3531 189.093 18.0799C189.445 17.8067 189.826 17.6195 190.235 17.5183C190.651 17.4118 191.063 17.3842 191.472 17.4355C191.887 17.4815 192.283 17.6074 192.66 17.8134C193.037 18.0193 193.362 18.2981 193.635 18.6497C193.924 19.0215 194.117 19.4302 194.214 19.8755C194.316 20.3277 194.328 20.7685 194.249 21.1981L193.309 21.0343C193.353 20.7287 193.34 20.4189 193.27 20.1049C193.199 19.791 193.064 19.5055 192.865 19.2486C192.67 18.9985 192.442 18.802 192.179 18.6592C191.916 18.5164 191.64 18.4269 191.352 18.3907C191.064 18.3545 190.774 18.3732 190.485 18.4466C190.2 18.5269 189.936 18.6616 189.692 18.8507C189.442 19.0451 189.243 19.2703 189.095 19.5263C188.952 19.7891 188.863 20.0647 188.827 20.3531C188.79 20.6415 188.809 20.9306 188.883 21.2205C188.963 21.5052 189.1 21.7726 189.295 22.0228L188.524 22.6217Z" fill="white"/>
<path d="M196.467 23.9271L194.891 21.8987L198.198 19.3294L198.789 20.0901L196.253 22.0604L197.238 23.3281C197.511 23.6797 197.699 24.0602 197.8 24.4695C197.906 24.8856 197.934 25.2979 197.883 25.7064C197.831 26.115 197.703 26.5077 197.497 26.8846C197.298 27.2562 197.022 27.5787 196.671 27.8519L194.135 29.8222L193.536 29.0514L196.072 27.0811C196.322 26.8867 196.518 26.6581 196.661 26.3953C196.809 26.1393 196.898 25.8697 196.928 25.5866C196.969 25.305 196.95 25.0219 196.869 24.7372C196.796 24.4473 196.662 24.1772 196.467 23.9271Z" fill="white"/>
<path d="M197.26 28.5886C197.611 28.3154 197.992 28.1282 198.401 28.0269C198.817 27.9205 199.229 27.8929 199.638 27.9441C200.053 27.9901 200.447 28.1127 200.818 28.3119C201.195 28.5178 201.52 28.7966 201.793 29.1482C202.067 29.4998 202.254 29.8802 202.355 30.2896C202.462 30.7057 202.486 31.1206 202.428 31.5344C202.382 31.9497 202.256 32.3458 202.05 32.7227C201.851 33.0943 201.575 33.4168 201.224 33.69L198.678 35.6681L198.079 34.8974L200.625 32.9192C200.868 32.73 201.061 32.5041 201.204 32.2413C201.352 31.9853 201.444 31.7131 201.48 31.4247C201.517 31.1363 201.498 30.8472 201.424 30.5573C201.351 30.2673 201.217 29.9973 201.023 29.7471C200.828 29.497 200.6 29.3005 200.337 29.1577C200.074 29.0149 199.799 28.9254 199.51 28.8892C199.222 28.853 198.933 28.8717 198.643 28.9452C198.358 29.0254 198.094 29.1601 197.851 29.3492L197.26 28.5886Z" fill="white"/>
<path d="M206.294 35.0234C206.562 35.3683 206.746 35.7454 206.848 36.1547C206.961 36.5655 206.992 36.9752 206.941 37.3838C206.889 37.7923 206.758 38.1816 206.547 38.5518C206.348 38.9234 206.076 39.2432 205.731 39.5112C205.379 39.7844 204.996 39.9742 204.579 40.0807C204.175 40.1887 203.769 40.217 203.361 40.1658C202.959 40.1093 202.573 39.9754 202.203 39.7642C201.838 39.5598 201.521 39.2852 201.253 38.9403L202.014 38.3493C202.203 38.5927 202.426 38.7884 202.682 38.9365C202.945 39.0793 203.214 39.168 203.491 39.2027C203.779 39.2388 204.062 39.2194 204.34 39.1445C204.63 39.071 204.896 38.9397 205.14 38.7505C205.383 38.5614 205.576 38.3354 205.719 38.0726C205.867 37.8166 205.956 37.547 205.985 37.2639C206.027 36.9823 206.007 36.6992 205.927 36.4145C205.854 36.1246 205.722 35.8579 205.533 35.6145C205.344 35.3711 205.118 35.178 204.855 35.0352C204.605 34.8939 204.335 34.8052 204.047 34.769C203.77 34.7343 203.487 34.7537 203.197 34.8272C202.913 34.9074 202.649 35.0421 202.405 35.2313L201.814 34.4706C202.159 34.2027 202.533 34.0147 202.937 33.9067C203.354 33.8003 203.766 33.7727 204.174 33.8239C204.583 33.8752 204.97 34.003 205.335 34.2074C205.706 34.4066 206.026 34.6786 206.294 35.0234Z" fill="white"/>
<path d="M204.371 42.9946L203.78 42.2339L211.397 36.3152L211.988 37.0759L204.371 42.9946Z" fill="white"/>
<path d="M212.02 42.3922C212.288 42.737 212.473 43.1141 212.574 43.5235C212.687 43.9343 212.718 44.344 212.667 44.7525C212.616 45.161 212.484 45.5504 212.273 45.9205C212.074 46.2922 211.802 46.612 211.457 46.88C211.106 47.1532 210.722 47.343 210.306 47.4495C209.901 47.5574 209.495 47.5858 209.087 47.5345C208.685 47.478 208.299 47.3442 207.929 47.133C207.564 46.9286 207.247 46.6539 206.979 46.3091L207.74 45.718C207.929 45.9614 208.152 46.1572 208.408 46.3052C208.671 46.448 208.94 46.5368 209.217 46.5714C209.505 46.6076 209.788 46.5882 210.066 46.5132C210.356 46.4398 210.623 46.3085 210.866 46.1193C211.109 45.9302 211.303 45.7042 211.445 45.4414C211.593 45.1854 211.682 44.9158 211.712 44.6327C211.753 44.3511 211.734 44.068 211.653 43.7833C211.58 43.4934 211.449 43.2267 211.259 42.9833C211.07 42.7399 210.844 42.5468 210.581 42.404C210.331 42.2627 210.061 42.1739 209.773 42.1378C209.496 42.1031 209.213 42.1225 208.923 42.196C208.639 42.2762 208.375 42.4109 208.131 42.6L207.54 41.8394C207.885 41.5714 208.259 41.3835 208.664 41.2755C209.08 41.1691 209.492 41.1414 209.9 41.1927C210.309 41.2439 210.696 41.3718 211.061 41.5762C211.432 41.7754 211.752 42.0474 212.02 42.3922Z" fill="white"/>
<path d="M213.475 54.6681C213.13 54.936 212.753 55.1206 212.344 55.2218C211.933 55.335 211.523 55.366 211.115 55.3148C210.706 55.2635 210.317 55.1323 209.947 54.9211C209.575 54.722 209.253 54.4466 208.979 54.095C208.711 53.7502 208.499 53.4001 208.342 53.0448C208.185 52.6895 208.088 52.3478 208.05 52.0196C208.017 51.6981 208.04 51.3928 208.119 51.1037C208.196 50.8267 208.336 50.5879 208.538 50.3875L209.248 51.3002C209.171 51.4249 209.112 51.5578 209.069 51.6989C209.027 51.8401 209.02 51.9978 209.047 52.1721C209.067 52.3516 209.131 52.5457 209.239 52.7546C209.346 52.9754 209.513 53.2252 209.74 53.5039C209.934 53.7541 210.163 53.9506 210.426 54.0934C210.682 54.2414 210.951 54.3302 211.235 54.3596C211.516 54.401 211.799 54.3816 212.084 54.3014C212.374 54.2279 212.641 54.0966 212.884 53.9074L215.419 51.9372C215.663 51.748 215.856 51.522 215.999 51.2593C216.147 51.0032 216.239 50.731 216.275 50.4427C216.317 50.1611 216.297 49.8779 216.217 49.5933C216.143 49.3033 216.01 49.0333 215.815 48.7831C215.631 48.5465 215.408 48.3567 215.145 48.2139C214.894 48.0726 214.625 47.9839 214.336 47.9477C214.048 47.9116 213.759 47.9302 213.469 48.0037C213.179 48.0772 212.912 48.2085 212.669 48.3976C212.426 48.5868 212.232 48.8127 212.09 49.0755C211.947 49.3383 211.857 49.6139 211.821 49.9022C211.785 50.1906 211.801 50.4764 211.869 50.7595C211.949 51.0442 212.082 51.3049 212.265 51.5415L211.505 52.1326C211.237 51.7878 211.046 51.4099 210.933 50.9991C210.832 50.5897 210.803 50.1834 210.848 49.7802C210.899 49.3716 211.024 48.9815 211.224 48.6099C211.435 48.2397 211.72 47.9154 212.078 47.637C212.423 47.369 212.797 47.181 213.201 47.0731C213.617 46.9666 214.03 46.939 214.438 46.9903C214.847 47.0415 215.233 47.1693 215.598 47.3738C215.975 47.5797 216.298 47.8551 216.566 48.1999C216.839 48.5515 217.026 48.932 217.127 49.3413C217.24 49.7522 217.271 50.1618 217.22 50.5704C217.169 50.9789 217.038 51.3682 216.827 51.7384C216.627 52.11 216.355 52.4298 216.011 52.6978L213.475 54.6681Z" fill="white"/>
<path d="M217.631 57.5253L212.183 58.343L211.513 57.481L216.945 56.643L219.119 51.5701L219.805 52.4525L217.631 57.5253Z" fill="white"/>
</svg>
