<svg width="505" height="945" viewBox="0 0 505 945" fill="none" xmlns="http://www.w3.org/2000/svg">
<mask id="path-1-inside-1_1716_1488" fill="white">
<path fill-rule="evenodd" clip-rule="evenodd" d="M19.3424 944.001L19.7896 944.5L20.4594 944.5L376.326 944.5L489.923 944.499L491.423 944.499L491.423 942.999L491.423 314.417L504.399 303.611L504.94 303.162L504.94 302.459L504.94 147.174L504.94 146.471L504.399 146.022L488.88 133.1L488.88 25.6609L488.88 24.958L488.34 24.5082L462.961 3.37603L462.544 3.02874L462.002 3.02874L291.936 3.02873C291.301 1.81822 290.045 0.994061 288.599 0.994061C286.512 0.99406 284.82 2.70976 284.82 4.82615C284.82 6.94255 286.512 8.65818 288.599 8.65818C290.271 8.65818 291.69 7.55601 292.187 6.02873L461.459 6.02874L485.88 26.3639L485.88 133.803L485.88 134.505L486.421 134.955L501.94 147.877L501.94 301.756L488.963 312.561L488.423 313.011L488.423 313.714L488.423 941.499L376.326 941.5L21.1293 941.5L2.87674 921.136L0.642794 923.139L19.3424 944.001Z"/>
</mask>
<path fill-rule="evenodd" clip-rule="evenodd" d="M19.3424 944.001L19.7896 944.5L20.4594 944.5L376.326 944.5L489.923 944.499L491.423 944.499L491.423 942.999L491.423 314.417L504.399 303.611L504.94 303.162L504.94 302.459L504.94 147.174L504.94 146.471L504.399 146.022L488.88 133.1L488.88 25.6609L488.88 24.958L488.34 24.5082L462.961 3.37603L462.544 3.02874L462.002 3.02874L291.936 3.02873C291.301 1.81822 290.045 0.994061 288.599 0.994061C286.512 0.99406 284.82 2.70976 284.82 4.82615C284.82 6.94255 286.512 8.65818 288.599 8.65818C290.271 8.65818 291.69 7.55601 292.187 6.02873L461.459 6.02874L485.88 26.3639L485.88 133.803L485.88 134.505L486.421 134.955L501.94 147.877L501.94 301.756L488.963 312.561L488.423 313.011L488.423 313.714L488.423 941.499L376.326 941.5L21.1293 941.5L2.87674 921.136L0.642794 923.139L19.3424 944.001Z" fill="#0A0A0A"/>
<path d="M19.7896 944.5L17.5556 946.502L18.4498 947.5L19.7896 947.5L19.7896 944.5ZM19.3424 944.001L17.1085 946.003L17.1085 946.004L19.3424 944.001ZM20.4594 944.5L20.4594 947.5L20.4594 944.5ZM376.326 944.5L376.326 947.5L376.326 947.5L376.326 944.5ZM489.923 944.499L489.923 947.499L489.923 944.499ZM491.423 944.499L491.423 947.499L494.423 947.499L494.423 944.499L491.423 944.499ZM491.423 314.417L489.503 312.111L488.423 313.011L488.423 314.417L491.423 314.417ZM504.399 303.611L502.48 301.306L502.48 301.306L504.399 303.611ZM504.94 303.162L506.859 305.467L507.94 304.568L507.94 303.162L504.94 303.162ZM504.94 146.471L507.94 146.471L507.94 145.066L506.859 144.166L504.94 146.471ZM504.399 146.022L502.48 148.327L502.48 148.327L504.399 146.022ZM488.88 133.1L485.88 133.1L485.88 134.505L486.961 135.405L488.88 133.1ZM488.88 24.958L491.88 24.958L491.88 23.5521L490.8 22.6525L488.88 24.958ZM488.34 24.5082L486.421 26.8137L486.421 26.8137L488.34 24.5082ZM462.961 3.37603L461.042 5.68145L462.961 3.37603ZM462.544 3.02874L464.464 0.723324L463.63 0.0287439L462.544 0.0287439L462.544 3.02874ZM462.002 3.02874L462.002 0.0287438L462.002 3.02874ZM291.936 3.02873L289.28 4.42241L290.122 6.02873L291.936 6.02873L291.936 3.02873ZM292.187 6.02873L292.187 3.02873L290.009 3.02873L289.335 5.0999L292.187 6.02873ZM461.459 6.02874L463.378 3.72332L462.544 3.02874L461.459 3.02874L461.459 6.02874ZM485.88 26.3639L488.88 26.3639L488.88 24.9581L487.8 24.0585L485.88 26.3639ZM485.88 134.505L482.88 134.505L482.88 135.911L483.961 136.811L485.88 134.505ZM486.421 134.955L488.34 132.65L488.34 132.65L486.421 134.955ZM501.94 147.877L504.94 147.877L504.94 146.472L503.859 145.572L501.94 147.877ZM501.94 301.756L503.859 304.061L504.94 303.162L504.94 301.756L501.94 301.756ZM488.963 312.561L490.883 314.867L490.883 314.866L488.963 312.561ZM488.423 313.011L486.503 310.705L485.423 311.605L485.423 313.011L488.423 313.011ZM488.423 313.714L491.423 313.714L488.423 313.714ZM488.423 941.499L488.423 944.499L491.423 944.499L491.423 941.499L488.423 941.499ZM376.326 941.5L376.326 944.5L376.326 944.5L376.326 941.5ZM21.1293 941.5L18.8953 943.502L19.7895 944.5L21.1293 944.5L21.1293 941.5ZM2.87674 921.136L5.11069 919.134L3.10834 916.9L0.874392 918.902L2.87674 921.136ZM0.642794 923.139L-1.35956 920.905L-3.5935 922.907L-1.59115 925.141L0.642794 923.139ZM22.0235 942.498L21.5764 941.999L17.1085 946.004L17.5556 946.502L22.0235 942.498ZM20.4594 941.5L19.7896 941.5L19.7896 947.5L20.4594 947.5L20.4594 941.5ZM376.326 941.5L20.4594 941.5L20.4594 947.5L376.326 947.5L376.326 941.5ZM489.923 941.499L376.326 941.5L376.326 947.5L489.923 947.499L489.923 941.499ZM491.423 941.499L489.923 941.499L489.923 947.499L491.423 947.499L491.423 941.499ZM488.423 942.999L488.423 944.499L494.423 944.499L494.423 942.999L488.423 942.999ZM488.423 314.417L488.423 942.999L494.423 942.999L494.423 314.417L488.423 314.417ZM502.48 301.306L489.503 312.111L493.342 316.722L506.319 305.917L502.48 301.306ZM503.02 300.856L502.48 301.306L506.319 305.917L506.859 305.467L503.02 300.856ZM501.94 302.459L501.94 303.162L507.94 303.162L507.94 302.459L501.94 302.459ZM501.94 147.174L501.94 302.459L507.94 302.459L507.94 147.174L501.94 147.174ZM501.94 146.471L501.94 147.174L507.94 147.174L507.94 146.471L501.94 146.471ZM502.48 148.327L503.02 148.777L506.859 144.166L506.319 143.716L502.48 148.327ZM486.961 135.405L502.48 148.327L506.319 143.716L490.8 130.794L486.961 135.405ZM485.88 25.6609L485.88 133.1L491.88 133.1L491.88 25.6609L485.88 25.6609ZM485.88 24.958L485.88 25.6609L491.88 25.6609L491.88 24.958L485.88 24.958ZM486.421 26.8137L486.961 27.2635L490.8 22.6525L490.26 22.2028L486.421 26.8137ZM461.042 5.68145L486.421 26.8137L490.26 22.2028L464.881 1.07061L461.042 5.68145ZM460.625 5.33416L461.042 5.68145L464.881 1.07061L464.464 0.723324L460.625 5.33416ZM462.002 6.02874L462.544 6.02874L462.544 0.0287439L462.002 0.0287438L462.002 6.02874ZM291.936 6.02873L462.002 6.02874L462.002 0.0287438L291.936 0.0287289L291.936 6.02873ZM294.593 1.63505C293.468 -0.50954 291.219 -2.00594 288.599 -2.00594L288.599 3.99406C288.87 3.99406 289.135 4.14598 289.28 4.42241L294.593 1.63505ZM288.599 -2.00594C284.815 -2.00594 281.82 1.09294 281.82 4.82615L287.82 4.82615C287.82 4.32658 288.208 3.99406 288.599 3.99406L288.599 -2.00594ZM281.82 4.82615C281.82 8.55943 284.815 11.6582 288.599 11.6582L288.599 5.65818C288.208 5.65818 287.82 5.32566 287.82 4.82615L281.82 4.82615ZM288.599 11.6582C291.631 11.6582 294.159 9.66105 295.04 6.95756L289.335 5.0999C289.22 5.45097 288.911 5.65818 288.599 5.65818L288.599 11.6582ZM461.459 3.02874L292.187 3.02873L292.187 9.02873L461.459 9.02874L461.459 3.02874ZM487.8 24.0585L463.378 3.72332L459.539 8.33416L483.961 28.6693L487.8 24.0585ZM488.88 133.803L488.88 26.3639L482.88 26.3639L482.88 133.803L488.88 133.803ZM488.88 134.505L488.88 133.803L482.88 133.803L482.88 134.505L488.88 134.505ZM488.34 132.65L487.8 132.2L483.961 136.811L484.501 137.261L488.34 132.65ZM503.859 145.572L488.34 132.65L484.501 137.261L500.02 150.183L503.859 145.572ZM504.94 301.756L504.94 147.877L498.94 147.877L498.94 301.756L504.94 301.756ZM490.883 314.866L503.859 304.061L500.02 299.45L487.043 310.256L490.883 314.866ZM490.342 315.316L490.883 314.867L487.043 310.256L486.503 310.705L490.342 315.316ZM491.423 313.714L491.423 313.011L485.423 313.011L485.423 313.714L491.423 313.714ZM491.423 941.499L491.423 313.714L485.423 313.714L485.423 941.499L491.423 941.499ZM376.326 944.5L488.423 944.499L488.423 938.499L376.326 938.5L376.326 944.5ZM21.1293 944.5L376.326 944.5L376.326 938.5L21.1293 938.5L21.1293 944.5ZM0.642794 923.139L18.8953 943.502L23.3632 939.498L5.11069 919.134L0.642794 923.139ZM2.64514 925.373L4.87909 923.37L0.874392 918.902L-1.35956 920.905L2.64514 925.373ZM21.5764 941.999L2.87674 921.136L-1.59115 925.141L17.1085 946.003L21.5764 941.999Z" fill="#0A0A0A" mask="url(#path-1-inside-1_1716_1488)"/>
</svg>
