<svg width="99" height="99" viewBox="0 0 99 99" fill="none" xmlns="http://www.w3.org/2000/svg">
<path d="M47.4142 52.633C59.6261 59.6835 70.3809 63.9178 71.4358 62.0906C72.4908 60.2634 63.4463 53.0666 51.2345 46.0161C39.0227 38.9656 28.2678 34.7312 27.2129 36.5585C26.158 38.3857 35.2024 45.5825 47.4142 52.633Z" stroke="#00F0FF" stroke-width="1.3756" stroke-miterlimit="10"/>
<path d="M45.244 56.3927C57.4558 63.4432 69.1827 65.994 71.4367 62.09C73.6906 58.186 65.6182 49.3056 53.4064 42.2551C41.1946 35.2046 29.4677 32.6538 27.2137 36.5578C24.9597 40.4619 33.0322 49.3422 45.244 56.3927Z" stroke="#00F0FF" stroke-width="1.3756" stroke-miterlimit="10"/>
<path d="M43.0718 60.1532C55.2836 67.2037 67.9825 68.0709 71.4355 62.0901C74.8885 56.1093 67.7881 45.5453 55.5763 38.4948C43.3645 31.4443 30.6656 30.5772 27.2126 36.558C23.7596 42.5388 30.86 53.1027 43.0718 60.1532Z" stroke="#00F0FF" stroke-width="1.3756" stroke-miterlimit="10"/>
<path d="M40.9003 63.9143C53.1121 70.9648 66.7833 70.1479 71.4357 62.0896C76.0881 54.0314 69.96 41.7834 57.7482 34.7329C45.5364 27.6824 31.8652 28.4993 27.2128 36.5575C22.5603 44.6157 28.6885 56.8638 40.9003 63.9143Z" stroke="#00F0FF" stroke-width="1.3756" stroke-miterlimit="10"/>
<path d="M38.73 67.675C50.9419 74.7255 65.5851 72.225 71.4365 62.09C77.288 51.955 72.1319 38.0233 59.9201 30.9728C47.7082 23.9223 33.065 26.4228 27.2136 36.5579C21.3621 46.6929 26.5182 60.6245 38.73 67.675Z" stroke="#00F0FF" stroke-width="1.3756" stroke-miterlimit="10"/>
<path d="M36.5579 71.4355C48.7697 78.486 64.3849 74.3019 71.4354 62.0901C78.4859 49.8783 74.3018 34.2631 62.09 27.2126C49.8782 20.1621 34.263 24.3462 27.2125 36.558C20.162 48.7698 24.346 64.385 36.5579 71.4355Z" stroke="#00F0FF" stroke-width="1.3756" stroke-miterlimit="10"/>
<path d="M36.5595 71.4358C38.3867 72.4907 45.5836 63.4463 52.6341 51.2345C59.6846 39.0227 63.9189 28.2678 62.0917 27.2129C60.2644 26.1579 53.0676 35.2024 46.0171 47.4142C38.9666 59.626 34.7323 70.3809 36.5595 71.4358Z" stroke="#00F0FF" stroke-width="1.3756" stroke-miterlimit="10"/>
<path d="M36.5582 71.435C40.4622 73.689 49.3426 65.6165 56.3931 53.4047C63.4436 41.1929 65.9943 29.466 62.0903 27.2121C58.1863 24.9581 49.3059 33.0305 42.2554 45.2423C35.2049 57.4542 32.6542 69.181 36.5582 71.435Z" stroke="#00F0FF" stroke-width="1.3756" stroke-miterlimit="10"/>
<path d="M36.5588 71.4351C42.5396 74.8882 53.1036 67.7878 60.1541 55.5759C67.2046 43.3641 68.0717 30.6652 62.0909 27.2122C56.1101 23.7592 45.5462 30.8596 38.4957 43.0714C31.4452 55.2833 30.578 67.9821 36.5588 71.4351Z" stroke="#00F0FF" stroke-width="1.3756" stroke-miterlimit="10"/>
<path d="M36.5586 71.435C44.6168 76.0874 56.8649 69.9593 63.9154 57.7475C70.9659 45.5356 70.1489 31.8645 62.0907 27.212C54.0325 22.5596 41.7844 28.6877 34.7339 40.8996C27.6834 53.1114 28.5004 66.7825 36.5586 71.435Z" stroke="#00F0FF" stroke-width="1.3756" stroke-miterlimit="10"/>
<path d="M36.5592 71.4351C46.6942 77.2866 60.6259 72.1305 67.6764 59.9187C74.7269 47.7068 72.2264 33.0637 62.0913 27.2122C51.9563 21.3607 38.0247 26.5168 30.9742 38.7287C23.9237 50.9405 26.4242 65.5837 36.5592 71.4351Z" stroke="#00F0FF" stroke-width="1.3756" stroke-miterlimit="10"/>
<path d="M55.9309 73.9862C69.5513 70.3366 77.6342 56.3365 73.9847 42.7161C70.3351 29.0957 56.335 21.0128 42.7146 24.6624C29.0942 28.3119 21.0113 42.312 24.6609 55.9324C28.3104 69.5528 42.3105 77.6357 55.9309 73.9862Z" stroke="#00F0FF" stroke-width="1.3756" stroke-miterlimit="10"/>
</svg>
