<svg width="96" height="96" viewBox="0 0 96 96" fill="none" xmlns="http://www.w3.org/2000/svg">
<path d="M47.8407 52.9017C66.524 52.9017 81.6698 50.6355 81.6698 47.84C81.6698 45.0445 66.524 42.7783 47.8407 42.7783C29.1575 42.7783 14.0117 45.0445 14.0117 47.84C14.0117 50.6355 29.1575 52.9017 47.8407 52.9017Z" stroke="#00F0FF" stroke-width="1.3756" stroke-miterlimit="10"/>
<path d="M47.8407 58.6551C66.524 58.6551 81.6698 53.8131 81.6698 47.8402C81.6698 41.8674 66.524 37.0254 47.8407 37.0254C29.1575 37.0254 14.0117 41.8674 14.0117 47.8402C14.0117 53.8131 29.1575 58.6551 47.8407 58.6551Z" stroke="#00F0FF" stroke-width="1.3756" stroke-miterlimit="10"/>
<path d="M47.8407 64.4074C66.524 64.4074 81.6698 56.9897 81.6698 47.8394C81.6698 38.6892 66.524 31.2715 47.8407 31.2715C29.1575 31.2715 14.0117 38.6892 14.0117 47.8394C14.0117 56.9897 29.1575 64.4074 47.8407 64.4074Z" stroke="#00F0FF" stroke-width="1.3756" stroke-miterlimit="10"/>
<path d="M47.8407 70.1622C66.524 70.1622 81.6698 60.1679 81.6698 47.8394C81.6698 35.5109 66.524 25.5166 47.8407 25.5166C29.1575 25.5166 14.0117 35.5109 14.0117 47.8394C14.0117 60.1679 29.1575 70.1622 47.8407 70.1622Z" stroke="#00F0FF" stroke-width="1.3756" stroke-miterlimit="10"/>
<path d="M47.8407 75.9157C66.524 75.9157 81.6698 63.3457 81.6698 47.8398C81.6698 32.3339 66.524 19.7639 47.8407 19.7639C29.1575 19.7639 14.0117 32.3339 14.0117 47.8398C14.0117 63.3457 29.1575 75.9157 47.8407 75.9157Z" stroke="#00F0FF" stroke-width="1.3756" stroke-miterlimit="10"/>
<path d="M47.8407 81.6688C66.524 81.6688 81.6698 66.523 81.6698 47.8398C81.6698 29.1565 66.524 14.0107 47.8407 14.0107C29.1575 14.0107 14.0117 29.1565 14.0117 47.8398C14.0117 66.523 29.1575 81.6688 47.8407 81.6688Z" stroke="#00F0FF" stroke-width="1.3756" stroke-miterlimit="10"/>
<path d="M47.843 81.6688C50.6385 81.6688 52.9047 66.523 52.9047 47.8398C52.9047 29.1565 50.6385 14.0107 47.843 14.0107C45.0475 14.0107 42.7812 29.1565 42.7812 47.8398C42.7812 66.523 45.0475 81.6688 47.843 81.6688Z" stroke="#00F0FF" stroke-width="1.3756" stroke-miterlimit="10"/>
<path d="M47.8422 81.6688C53.815 81.6688 58.657 66.523 58.657 47.8398C58.657 29.1565 53.815 14.0107 47.8422 14.0107C41.8693 14.0107 37.0273 29.1565 37.0273 47.8398C37.0273 66.523 41.8693 81.6688 47.8422 81.6688Z" stroke="#00F0FF" stroke-width="1.3756" stroke-miterlimit="10"/>
<path d="M47.8414 81.6688C56.9916 81.6688 64.4093 66.523 64.4093 47.8398C64.4093 29.1565 56.9916 14.0107 47.8414 14.0107C38.6912 14.0107 31.2734 29.1565 31.2734 47.8398C31.2734 66.523 38.6912 81.6688 47.8414 81.6688Z" stroke="#00F0FF" stroke-width="1.3756" stroke-miterlimit="10"/>
<path d="M47.8423 81.6688C60.1708 81.6688 70.1651 66.523 70.1651 47.8398C70.1651 29.1565 60.1708 14.0107 47.8423 14.0107C35.5138 14.0107 25.5195 29.1565 25.5195 47.8398C25.5195 66.523 35.5138 81.6688 47.8423 81.6688Z" stroke="#00F0FF" stroke-width="1.3756" stroke-miterlimit="10"/>
<path d="M47.8415 81.6688C63.3474 81.6688 75.9174 66.523 75.9174 47.8398C75.9174 29.1565 63.3474 14.0107 47.8415 14.0107C32.3356 14.0107 19.7656 29.1565 19.7656 47.8398C19.7656 66.523 32.3356 81.6688 47.8415 81.6688Z" stroke="#00F0FF" stroke-width="1.3756" stroke-miterlimit="10"/>
<path d="M71.7615 71.7616C84.9724 58.5506 84.9724 37.1315 71.7615 23.9206C58.5506 10.7096 37.1314 10.7096 23.9205 23.9206C10.7096 37.1315 10.7096 58.5506 23.9205 71.7616C37.1314 84.9725 58.5506 84.9725 71.7615 71.7616Z" stroke="#00F0FF" stroke-width="1.3756" stroke-miterlimit="10"/>
</svg>
