<svg width="431" height="117" viewBox="0 0 431 117" fill="none" xmlns="http://www.w3.org/2000/svg">
<path d="M419.918 36.1846L419.918 36.1853C425.462 41.467 428.815 47.9104 430.007 55.4824C430.007 55.4826 430.007 55.4827 430.007 55.4829L419.918 36.1846ZM419.918 36.1846C414.984 31.4648 409.009 28.5236 402.303 27.502C401.363 27.3591 399.47 27.2669 397.888 27.2111C397.103 27.1834 396.406 27.1649 395.957 27.1533L395.675 27.1461C395.593 27.1439 395.529 27.1422 395.488 27.1408C395.468 27.1401 395.449 27.1395 395.435 27.1387C395.433 27.1386 395.428 27.1384 395.422 27.1379C395.415 27.1375 395.406 27.1368 395.397 27.1358C395.392 27.1352 395.38 27.1339 395.365 27.1313C395.358 27.13 395.339 27.1261 395.328 27.1235C395.317 27.1204 395.292 27.1121 395.267 27.1029M419.918 36.1846L395.267 27.1029M362.295 26.8831C361.525 26.7503 360.227 26.3144 359.366 25.9345M362.295 26.8831L371.383 94.0441L371.382 94.0441L313.41 94.1676L313.343 94.1677L313.279 94.1855L311.306 94.7285C310.196 95.0314 308.349 95.6813 307.171 96.1831L307.17 96.1836C303.277 97.8535 301.222 99.4695 294.558 106.041C292.872 107.704 291.174 109.324 289.8 110.592C288.408 111.876 287.389 112.761 287.037 112.992C286.282 113.488 284.66 114.313 283.42 114.824L283.418 114.825C283.078 114.968 282.803 115.094 282.557 115.207C281.944 115.489 281.506 115.691 280.655 115.861C279.446 116.102 277.45 116.26 273.204 116.358C265.823 116.527 251.756 116.511 223.468 116.48C219.274 116.475 214.767 116.471 209.923 116.466L142.776 116.392L141.122 115.871L141.118 115.87C138.815 115.166 136.416 114.049 134.758 112.966L134.756 112.965C134.6 112.865 134.257 112.586 133.744 112.138C133.242 111.699 132.604 111.12 131.874 110.442C130.413 109.084 128.592 107.335 126.77 105.524L126.769 105.522C122.591 101.402 119.923 98.928 117.549 97.2674C115.155 95.5927 113.07 94.7525 110.08 93.8672L110.079 93.8668L107.81 93.2001L107.742 93.1803L107.672 93.1799L86.5072 93.0564L86.5058 93.0564C60.9846 92.9823 46.8142 92.9329 38.8018 92.8558C34.7948 92.8172 32.3332 92.7717 30.7639 92.713C29.1875 92.6539 28.5389 92.5821 28.1402 92.499L28.1388 92.4987C13.3162 89.4533 2.92341 78.5057 1.00309 63.9093C0.64065 61.0782 0.859532 56.0238 1.48984 53.0391L1.48995 53.0386C3.87051 41.7077 12.4995 32.0956 23.5295 28.4712C24.5906 28.1334 26.6866 27.6207 28.1968 27.3523C28.4671 27.3076 28.7235 27.2585 28.9957 27.2065C30.0838 26.9983 31.4257 26.7416 34.932 26.5167C39.3341 26.2344 47.1262 26.005 62.0074 26.0001L62.1338 26L62.2451 25.9399C62.4577 25.8249 62.7638 25.6672 63.1907 25.4554L63.1922 25.4547C63.4962 25.3025 63.8927 25.0122 64.4256 24.5636C64.9672 24.1077 65.6791 23.4627 66.6203 22.5747C68.5036 20.798 71.3263 18.028 75.5813 13.8059L75.5821 13.8051C78.6025 10.7941 81.4438 8.00553 83.5879 5.93336C84.6601 4.89709 85.5568 4.0411 86.2139 3.42641C86.5427 3.11884 86.8096 2.8734 87.0077 2.69663C87.107 2.60809 87.1867 2.53875 87.2471 2.48826C87.2996 2.4444 87.3265 2.42414 87.3348 2.41797C87.7724 2.16754 88.8094 1.71816 89.6173 1.45654L89.6238 1.45443L89.6238 1.45438L89.641 1.44856C90.3084 1.22215 90.6936 1.0915 95.212 1.02707C99.7526 0.962313 108.406 0.962299 125.628 0.962299C141.183 0.9623 149.87 0.974655 154.818 1.03018C157.294 1.05795 158.827 1.09647 159.814 1.14911C160.803 1.20184 161.21 1.26762 161.454 1.337C163.326 1.90659 164.299 2.46135 165.876 3.8722L165.879 3.87502C166.704 4.60129 167.944 5.51697 168.662 5.89122C168.778 5.95512 168.888 6.01796 168.995 6.07937C169.485 6.36018 169.923 6.61099 170.67 6.79508C171.557 7.01386 172.891 7.14621 175.394 7.23105C179.94 7.38517 188.486 7.38442 205.552 7.38291C207.326 7.38275 209.193 7.38259 211.156 7.38259C212.652 7.38259 214.091 7.38265 215.475 7.38272C233.033 7.38353 241.798 7.38393 246.449 7.24346C248.952 7.16786 250.3 7.05099 251.197 6.8613C251.978 6.69596 252.423 6.47153 252.931 6.2147C253.022 6.16896 253.115 6.1222 253.211 6.07456C253.924 5.74367 255.245 4.76895 256.193 3.89518C258.147 2.15772 260.042 1.10191 261.83 0.705138C261.919 0.688542 262.138 0.66756 262.534 0.6475C262.925 0.627684 263.462 0.609868 264.16 0.594092C265.556 0.562553 267.587 0.53942 270.375 0.52399C275.952 0.493135 284.547 0.493131 297.128 0.517825L331.065 0.591672L332.81 1.38353C332.811 1.38401 332.812 1.3845 332.813 1.38498C333.64 1.77613 334.173 2.07078 335.892 3.65156C337.628 5.24848 340.537 8.12259 346.116 13.6578L346.468 13.3029L346.116 13.6579C351.368 18.8655 354.31 21.7678 356.109 23.4414C357.903 25.1099 358.604 25.6013 359.366 25.9345M362.295 26.8831C362.365 26.8952 362.483 26.9 362.585 26.9038C362.712 26.9085 362.884 26.913 363.097 26.9175C363.524 26.9264 364.121 26.935 364.858 26.9435C366.333 26.9604 368.372 26.9764 370.731 26.9914C375.451 27.0215 381.458 27.0478 386.81 27.0694C388.424 27.0759 389.98 27.082 391.422 27.0877C392.827 27.0932 394.126 27.0983 395.267 27.1029M362.295 26.8831L395.267 27.1029M359.366 25.9345C359.367 25.9346 359.367 25.9348 359.367 25.9349L359.567 25.4767L359.365 25.9341C359.366 25.9342 359.366 25.9344 359.366 25.9345ZM86.5043 93.5564C35.4636 93.4082 29.8143 93.3588 28.0381 92.9884C13.0146 89.9018 2.45612 78.7897 0.507245 63.9737L86.5043 93.5564ZM86.5043 93.5564L107.669 93.6799M86.5043 93.5564L107.669 93.6799M107.669 93.6799L109.939 94.3466M107.669 93.6799L109.939 94.3466M109.939 94.3466C115.859 96.0998 118.055 97.6308 126.417 105.878L109.939 94.3466Z" stroke="#FCEE0A"/>
</svg>
