<svg width="84" height="102" viewBox="0 0 84 102" fill="none" xmlns="http://www.w3.org/2000/svg">
<path d="M41.6329 1.03011C40.9971 6.48193 40.0221 26.2972 40.0221 33.741V37.2637H33.9818H27.9414V43.1978V49.1319L21.6468 49.4045C12.279 49.782 0.346647 50.6417 0.00754037 50.9772C-0.373955 51.3546 13.8049 52.403 23.3423 52.6966L27.9414 52.8434V58.7984V64.7325H33.9818H40.0221V68.1294C40.0221 76.2233 41.3574 101.553 41.8024 101.994C42.2687 102.455 43.6251 77.775 43.6251 68.7795C43.6251 66.9133 43.6887 65.2567 43.7523 65.068C43.8583 64.7745 44.6001 64.7325 49.7926 64.7325H55.7058V58.7565V52.7805H57.698C62.8482 52.7805 79.9307 51.6901 83.1522 51.1659L84 51.0191L83.1522 50.8723C80.7785 50.453 71.2199 49.782 61.9157 49.4045L55.7058 49.1529V43.1978V37.2637H49.7714H43.8583L43.7523 36.5718C43.6887 36.2153 43.6039 33.1539 43.5403 29.8199C43.3284 19.1679 42.2687 0.422028 41.8448 0.00265503C41.8024 -0.0392838 41.7177 0.422028 41.6329 1.03011ZM50.8311 51.103V59.9098H41.9296H33.028V51.103V42.2962H41.9296H50.8311V51.103Z" fill="black"/>
</svg>
