<svg width="70" height="85" viewBox="0 0 70 85" fill="none" xmlns="http://www.w3.org/2000/svg">
<path d="M34.6941 0.858429C34.1642 5.40161 33.3518 21.9143 33.3518 28.1175V31.0531H28.3182H23.2845V35.9982V40.9433L18.039 41.1704C10.2325 41.485 0.288872 42.2014 0.00628364 42.481C-0.311629 42.7955 11.5041 43.6692 19.4519 43.9138L23.2845 44.0361V48.9987V53.9438H28.3182H33.3518V56.7745C33.3518 63.5194 34.4645 84.6277 34.8354 84.9947C35.2239 85.3791 36.3543 64.8125 36.3543 57.3162C36.3543 55.761 36.4073 54.3806 36.4602 54.2234C36.5485 53.9787 37.1667 53.9438 41.4939 53.9438H46.4215V48.9637V43.9837H48.0817C52.3735 43.9837 66.6089 43.0751 69.2935 42.6382L70 42.5159L69.2935 42.3936C67.3154 42.0441 59.3499 41.485 51.5964 41.1704L46.4215 40.9608V35.9982V31.0531H41.4762H36.5485L36.4602 30.4765C36.4073 30.1794 36.3366 27.6283 36.2836 24.8499C36.107 15.9733 35.2239 0.351685 34.8707 0.00221252C34.8354 -0.0327377 34.7647 0.351685 34.6941 0.858429ZM42.3593 42.5858V49.9248H34.9413H27.5234V42.5858V35.2468H34.9413H42.3593V42.5858Z" fill="black"/>
</svg>
