<svg width="1183" height="755" viewBox="0 0 1183 755" fill="none" xmlns="http://www.w3.org/2000/svg">
<path d="M1110.39 749.582C1110.39 747.55 1112.25 745.664 1114.85 745.664C1117.45 745.664 1119.31 747.55 1119.31 749.582C1119.31 751.614 1117.45 753.5 1114.85 753.5C1112.25 753.5 1110.39 751.614 1110.39 749.582Z" fill="#0A0A0A" stroke="#0A0A0A" stroke-width="3"/>
<mask id="path-2-inside-1_1716_3053" fill="white">
<path fill-rule="evenodd" clip-rule="evenodd" d="M35.9393 617.058L36.3787 617.497L37 617.497L1159.68 617.496L1161.18 617.496L1161.18 615.996L1161.18 442.892L1181.9 427.429L1182.5 426.979L1182.5 426.227L1182.5 206.677L1182.5 205.925L1181.9 205.475L1157.17 187.019L1157.17 34.8748L1157.17 34.1226L1156.57 33.6727L1116.53 3.79486L1116.13 3.49694L1115.64 3.49694L465.534 3.49689C464.682 1.45288 462.507 -1.9086e-06 459.96 -2.13131e-06C456.668 -2.41907e-06 454 2.42572 454 5.41797C454 8.41028 456.668 10.8359 459.96 10.8359C462.845 10.8359 465.252 8.97229 465.802 6.49689L1115.14 6.49694L1154.17 35.627L1154.17 187.772L1154.17 188.524L1154.77 188.974L1179.5 207.43L1179.5 425.475L1158.78 440.938L1158.18 441.388L1158.18 442.14L1158.18 614.496L37.6213 614.497L8.56397 585.44L6.44263 587.561L35.9393 617.058Z"/>
</mask>
<path fill-rule="evenodd" clip-rule="evenodd" d="M35.9393 617.058L36.3787 617.497L37 617.497L1159.68 617.496L1161.18 617.496L1161.18 615.996L1161.18 442.892L1181.9 427.429L1182.5 426.979L1182.5 426.227L1182.5 206.677L1182.5 205.925L1181.9 205.475L1157.17 187.019L1157.17 34.8748L1157.17 34.1226L1156.57 33.6727L1116.53 3.79486L1116.13 3.49694L1115.64 3.49694L465.534 3.49689C464.682 1.45288 462.507 -1.9086e-06 459.96 -2.13131e-06C456.668 -2.41907e-06 454 2.42572 454 5.41797C454 8.41028 456.668 10.8359 459.96 10.8359C462.845 10.8359 465.252 8.97229 465.802 6.49689L1115.14 6.49694L1154.17 35.627L1154.17 187.772L1154.17 188.524L1154.77 188.974L1179.5 207.43L1179.5 425.475L1158.78 440.938L1158.18 441.388L1158.18 442.14L1158.18 614.496L37.6213 614.497L8.56397 585.44L6.44263 587.561L35.9393 617.058Z" fill="#0A0A0A"/>
<path d="M36.3787 617.497L34.2573 619.618L35.136 620.497L36.3787 620.497L36.3787 617.497ZM35.9393 617.058L38.0607 614.936L38.0607 614.936L35.9393 617.058ZM37 617.497L37 620.497L37 617.497ZM1159.68 617.496L1159.68 614.496L1159.68 617.496ZM1161.18 617.496L1161.18 620.496L1164.18 620.496L1164.18 617.496L1161.18 617.496ZM1161.18 615.996L1164.18 615.996L1161.18 615.996ZM1161.18 442.892L1159.38 440.488L1158.18 441.388L1158.18 442.892L1161.18 442.892ZM1181.9 427.429L1180.1 425.025L1180.1 425.025L1181.9 427.429ZM1182.5 426.979L1184.29 429.384L1185.5 428.484L1185.5 426.979L1182.5 426.979ZM1182.5 205.925L1185.5 205.925L1185.5 204.421L1184.29 203.521L1182.5 205.925ZM1181.9 205.475L1183.69 203.071L1183.69 203.071L1181.9 205.475ZM1157.17 187.019L1154.17 187.019L1154.17 188.524L1155.37 189.424L1157.17 187.019ZM1157.17 34.1226L1160.17 34.1226L1160.17 32.6182L1158.96 31.7184L1157.17 34.1226ZM1156.57 33.6727L1154.77 36.077L1154.77 36.077L1156.57 33.6727ZM1116.53 3.79486L1114.74 6.19903L1114.74 6.19909L1116.53 3.79486ZM1116.13 3.49694L1117.93 1.09277L1117.13 0.496943L1116.13 0.496942L1116.13 3.49694ZM465.534 3.49689L462.766 4.6521L463.535 6.49689L465.534 6.49689L465.534 3.49689ZM465.802 6.49689L465.802 3.49689L463.395 3.49689L462.873 5.84595L465.802 6.49689ZM1115.14 6.49694L1116.93 4.09271L1116.13 3.49694L1115.14 3.49694L1115.14 6.49694ZM1154.17 35.627L1157.17 35.627L1157.17 34.1226L1155.96 33.2228L1154.17 35.627ZM1154.17 188.524L1151.17 188.524L1151.17 190.028L1152.37 190.928L1154.17 188.524ZM1154.77 188.974L1152.98 191.378L1152.98 191.378L1154.77 188.974ZM1179.5 207.43L1182.5 207.43L1182.5 205.925L1181.29 205.025L1179.5 207.43ZM1179.5 425.475L1181.29 427.879L1182.5 426.979L1182.5 425.475L1179.5 425.475ZM1158.78 440.938L1160.58 443.342L1160.58 443.342L1158.78 440.938ZM1158.18 441.388L1156.38 438.984L1155.18 439.883L1155.18 441.388L1158.18 441.388ZM1158.18 614.496L1158.18 617.496L1161.18 617.496L1161.18 614.496L1158.18 614.496ZM37.6213 614.497L35.5 616.618L36.3787 617.497L37.6213 617.497L37.6213 614.497ZM8.56397 585.44L10.6853 583.318L8.56397 581.197L6.44263 583.318L8.56397 585.44ZM6.44263 587.561L4.32129 585.44L2.19995 587.561L4.32129 589.682L6.44263 587.561ZM38.5 615.376L38.0607 614.936L33.818 619.179L34.2573 619.618L38.5 615.376ZM37 614.497L36.3787 614.497L36.3787 620.497L37 620.497L37 614.497ZM1159.68 614.496L37 614.497L37 620.497L1159.68 620.496L1159.68 614.496ZM1161.18 614.496L1159.68 614.496L1159.68 620.496L1161.18 620.496L1161.18 614.496ZM1158.18 615.996L1158.18 617.496L1164.18 617.496L1164.18 615.996L1158.18 615.996ZM1158.18 442.892L1158.18 615.996L1164.18 615.996L1164.18 442.892L1158.18 442.892ZM1180.1 425.025L1159.38 440.488L1162.97 445.296L1183.69 429.833L1180.1 425.025ZM1180.71 424.575L1180.1 425.025L1183.69 429.833L1184.29 429.384L1180.71 424.575ZM1179.5 426.227L1179.5 426.979L1185.5 426.979L1185.5 426.227L1179.5 426.227ZM1179.5 206.677L1179.5 426.227L1185.5 426.227L1185.5 206.677L1179.5 206.677ZM1179.5 205.925L1179.5 206.677L1185.5 206.677L1185.5 205.925L1179.5 205.925ZM1180.1 207.88L1180.71 208.329L1184.29 203.521L1183.69 203.071L1180.1 207.88ZM1155.37 189.424L1180.1 207.88L1183.69 203.071L1158.96 184.615L1155.37 189.424ZM1154.17 34.8748L1154.17 187.019L1160.17 187.019L1160.17 34.8748L1154.17 34.8748ZM1154.17 34.1226L1154.17 34.8748L1160.17 34.8748L1160.17 34.1226L1154.17 34.1226ZM1154.77 36.077L1155.37 36.5269L1158.96 31.7184L1158.36 31.2685L1154.77 36.077ZM1114.74 6.19909L1154.77 36.077L1158.36 31.2685L1118.33 1.39062L1114.74 6.19909ZM1114.34 5.90112L1114.74 6.19903L1118.33 1.39068L1117.93 1.09277L1114.34 5.90112ZM1115.64 6.49694L1116.13 6.49694L1116.13 0.496942L1115.64 0.496942L1115.64 6.49694ZM465.534 6.49689L1115.64 6.49694L1115.64 0.496942L465.534 0.496886L465.534 6.49689ZM468.303 2.34167C466.949 -0.903932 463.624 -3 459.96 -3L459.96 3C461.391 3 462.414 3.80969 462.766 4.6521L468.303 2.34167ZM459.96 -3C455.287 -3 451 0.506101 451 5.41797L457 5.41797C457 4.34533 458.05 3 459.96 3L459.96 -3ZM451 5.41797C451 10.33 455.287 13.8359 459.96 13.8359L459.96 7.83594C458.05 7.83594 457 6.4906 457 5.41797L451 5.41797ZM459.96 13.8359C464.088 13.8359 467.841 11.1491 468.73 7.14783L462.873 5.84595C462.662 6.79547 461.602 7.83594 459.96 7.83594L459.96 13.8359ZM1115.14 3.49694L465.802 3.49689L465.802 9.49689L1115.14 9.49694L1115.14 3.49694ZM1155.96 33.2228L1116.93 4.09271L1113.34 8.90118L1152.37 38.0312L1155.96 33.2228ZM1157.17 187.772L1157.17 35.627L1151.17 35.627L1151.17 187.772L1157.17 187.772ZM1157.17 188.524L1157.17 187.772L1151.17 187.772L1151.17 188.524L1157.17 188.524ZM1156.57 186.569L1155.96 186.12L1152.37 190.928L1152.98 191.378L1156.57 186.569ZM1181.29 205.025L1156.57 186.569L1152.98 191.378L1177.71 209.834L1181.29 205.025ZM1182.5 425.475L1182.5 207.43L1176.5 207.43L1176.5 425.475L1182.5 425.475ZM1160.58 443.342L1181.29 427.879L1177.71 423.071L1156.99 438.534L1160.58 443.342ZM1159.97 443.792L1160.58 443.342L1156.99 438.534L1156.38 438.984L1159.97 443.792ZM1161.18 442.14L1161.18 441.388L1155.18 441.388L1155.18 442.14L1161.18 442.14ZM1161.18 614.496L1161.18 442.14L1155.18 442.14L1155.18 614.496L1161.18 614.496ZM37.6213 617.497L1158.18 617.496L1158.18 611.496L37.6213 611.497L37.6213 617.497ZM6.44263 587.561L35.5 616.618L39.7427 612.376L10.6853 583.318L6.44263 587.561ZM8.56397 589.682L10.6853 587.561L6.44263 583.318L4.32129 585.44L8.56397 589.682ZM38.0607 614.936L8.56397 585.44L4.32129 589.682L33.818 619.179L38.0607 614.936Z" fill="#0A0A0A" mask="url(#path-2-inside-1_1716_3053)"/>
<path d="M1.49994 584.418C1.49994 582.386 3.35898 580.5 5.95996 580.5C8.56092 580.5 10.4199 582.386 10.4199 584.418C10.4199 586.45 8.56094 588.336 5.95996 588.336C3.35896 588.336 1.49994 586.45 1.49994 584.418Z" fill="#0A0A0A" stroke="#0A0A0A" stroke-width="3"/>
<mask id="path-5-inside-2_1716_3053" fill="white">
<path d="M1170.45 528.145L1170.45 461.456L1174.96 457.356C1174.96 457.356 1174.43 402.376 1174.96 402.376C1175.49 402.376 1180.84 397.031 1180.84 397.031L1180.84 518.345L1171.02 527.617"/>
</mask>
<path d="M1170.45 528.145L1170.45 461.456L1174.96 457.356C1174.96 457.356 1174.43 402.376 1174.96 402.376C1175.49 402.376 1180.84 397.031 1180.84 397.031L1180.84 518.345L1171.02 527.617" fill="#0A0A0A"/>
<path d="M1170.45 461.456L1168.43 459.236L1167.45 460.129L1167.45 461.456L1170.45 461.456ZM1174.96 457.356L1176.98 459.576L1177.97 458.672L1177.96 457.327L1174.96 457.356ZM1180.84 397.031L1183.84 397.031L1183.84 389.793L1178.72 394.909L1180.84 397.031ZM1180.84 518.345L1182.9 520.526L1183.84 519.638L1183.84 518.345L1180.84 518.345ZM1173.45 528.145L1173.45 461.456L1167.45 461.456L1167.45 528.145L1173.45 528.145ZM1172.47 463.676L1176.98 459.576L1172.94 455.136L1168.43 459.236L1172.47 463.676ZM1174.96 457.356C1177.96 457.327 1177.96 457.327 1177.96 457.327C1177.96 457.326 1177.96 457.326 1177.96 457.325C1177.96 457.323 1177.96 457.321 1177.96 457.317C1177.96 457.311 1177.96 457.301 1177.96 457.288C1177.96 457.261 1177.96 457.222 1177.96 457.17C1177.96 457.066 1177.96 456.912 1177.95 456.711C1177.95 456.308 1177.94 455.718 1177.94 454.967C1177.92 453.464 1177.91 451.318 1177.89 448.741C1177.84 443.589 1177.79 436.72 1177.76 429.852C1177.73 422.981 1177.71 416.121 1177.74 410.981C1177.75 408.409 1177.77 406.284 1177.81 404.811C1177.82 404.068 1177.85 403.524 1177.87 403.181C1177.88 402.998 1177.89 402.936 1177.88 402.949C1177.88 402.958 1177.88 402.987 1177.87 403.029C1177.86 403.065 1177.85 403.151 1177.81 403.262C1177.79 403.335 1177.71 403.614 1177.52 403.935C1177.45 404.05 1176.68 405.376 1174.96 405.376L1174.96 399.376C1173.24 399.376 1172.46 400.71 1172.38 400.838C1172.18 401.172 1172.09 401.471 1172.06 401.57C1171.99 401.814 1171.95 402.029 1171.94 402.119C1171.91 402.34 1171.89 402.587 1171.88 402.806C1171.85 403.269 1171.83 403.906 1171.81 404.666C1171.77 406.2 1171.75 408.371 1171.74 410.952C1171.71 416.122 1171.73 423.006 1171.76 429.881C1171.79 436.758 1171.84 443.634 1171.89 448.79C1171.91 451.368 1171.92 453.516 1171.94 455.021C1171.94 455.773 1171.95 456.364 1171.95 456.767C1171.96 456.968 1171.96 457.123 1171.96 457.227C1171.96 457.279 1171.96 457.319 1171.96 457.345C1171.96 457.358 1171.96 457.368 1171.96 457.375C1171.96 457.378 1171.96 457.381 1171.96 457.383C1171.96 457.383 1171.96 457.384 1171.96 457.384C1171.96 457.385 1171.96 457.385 1174.96 457.356ZM1174.96 405.376C1175.53 405.376 1175.96 405.215 1176.12 405.152C1176.33 405.07 1176.5 404.98 1176.61 404.919C1176.82 404.796 1177.01 404.66 1177.15 404.556C1177.44 404.341 1177.76 404.072 1178.07 403.805C1178.7 403.259 1179.46 402.553 1180.17 401.877C1180.88 401.194 1181.58 400.513 1182.1 400.006C1182.36 399.752 1182.57 399.539 1182.72 399.39C1182.8 399.316 1182.86 399.257 1182.9 399.217C1182.92 399.197 1182.93 399.181 1182.94 399.17C1182.95 399.165 1182.95 399.161 1182.96 399.158C1182.96 399.157 1182.96 399.156 1182.96 399.155C1182.96 399.154 1182.96 399.154 1182.96 399.154C1182.96 399.154 1182.96 399.154 1182.96 399.154C1182.96 399.153 1182.96 399.153 1180.84 397.031C1178.72 394.909 1178.72 394.909 1178.72 394.909C1178.72 394.909 1178.72 394.909 1178.72 394.909C1178.72 394.909 1178.72 394.909 1178.72 394.909C1178.72 394.91 1178.72 394.911 1178.72 394.912C1178.71 394.914 1178.71 394.918 1178.71 394.922C1178.7 394.932 1178.68 394.946 1178.66 394.965C1178.62 395.003 1178.57 395.059 1178.5 395.131C1178.35 395.274 1178.14 395.48 1177.89 395.727C1177.39 396.221 1176.72 396.878 1176.03 397.531C1175.34 398.19 1174.66 398.821 1174.13 399.278C1173.86 399.511 1173.68 399.66 1173.58 399.737C1173.52 399.78 1173.54 399.759 1173.62 399.714C1173.66 399.691 1173.77 399.632 1173.92 399.57C1174.03 399.527 1174.42 399.376 1174.96 399.376L1174.96 405.376ZM1177.84 397.031L1177.84 518.345L1183.84 518.345L1183.84 397.031L1177.84 397.031ZM1178.78 516.164L1168.96 525.436L1173.08 529.799L1182.9 520.526L1178.78 516.164Z" fill="#0A0A0A" mask="url(#path-5-inside-2_1716_3053)"/>
</svg>
