<svg width="431" height="117" viewBox="0 0 431 117" fill="none" xmlns="http://www.w3.org/2000/svg">
<path d="M419.918 36.1846L419.918 36.1853C425.462 41.467 428.815 47.9104 430.007 55.4824C430.007 55.4826 430.007 55.4827 430.007 55.4829L419.918 36.1846ZM419.918 36.1846C414.984 31.4648 409.009 28.5236 402.303 27.502C401.363 27.3591 399.47 27.2669 397.888 27.2111C397.103 27.1834 396.406 27.1649 395.957 27.1533L395.675 27.1461C395.593 27.1439 395.529 27.1422 395.488 27.1408C395.468 27.1401 395.449 27.1395 395.435 27.1387C395.433 27.1386 395.428 27.1384 395.422 27.1379C395.415 27.1375 395.406 27.1368 395.397 27.1358C395.392 27.1352 395.38 27.1339 395.365 27.1313C395.358 27.13 395.339 27.1261 395.328 27.1235C395.317 27.1204 395.292 27.1121 395.267 27.1029M419.918 36.1846L395.267 27.1029M362.295 26.8831C361.525 26.7503 360.227 26.3144 359.366 25.9345M362.295 26.8831L371.383 94.0441L371.382 94.0441L313.41 94.1676L313.343 94.1677L313.279 94.1855L311.306 94.7285C310.196 95.0314 308.349 95.6813 307.171 96.1831L307.17 96.1836C303.277 97.8535 301.222 99.4695 294.558 106.041C292.872 107.704 291.174 109.324 289.8 110.592C288.408 111.876 287.389 112.761 287.037 112.992C286.282 113.488 284.66 114.313 283.42 114.824L283.418 114.825C283.078 114.968 282.803 115.094 282.557 115.207C281.944 115.489 281.506 115.691 280.655 115.861C279.446 116.102 277.45 116.26 273.204 116.358C265.823 116.527 251.756 116.511 223.468 116.48C219.274 116.475 214.767 116.471 209.923 116.466L142.776 116.392L141.122 115.871L141.118 115.87C138.815 115.166 136.416 114.049 134.758 112.966L134.756 112.965C134.6 112.865 134.257 112.586 133.744 112.138C133.242 111.699 132.604 111.12 131.874 110.442C130.413 109.084 128.592 107.335 126.77 105.524L126.769 105.522C122.591 101.402 119.923 98.928 117.549 97.2674C115.155 95.5927 113.07 94.7525 110.08 93.8672L110.079 93.8668L107.81 93.2001L107.742 93.1803L107.672 93.1799L86.5072 93.0564L86.5058 93.0564C60.9846 92.9823 46.8142 92.9329 38.8018 92.8558C34.7948 92.8172 32.3332 92.7717 30.7639 92.713C29.1875 92.6539 28.5389 92.5821 28.1402 92.499L28.1388 92.4987C13.3162 89.4533 2.92341 78.5057 1.00309 63.9093C0.64065 61.0782 0.859532 56.0238 1.48984 53.0391L1.48995 53.0386C3.87051 41.7077 12.4995 32.0956 23.5295 28.4712C24.5906 28.1334 26.6866 27.6207 28.1968 27.3523C28.4671 27.3076 28.7235 27.2585 28.9957 27.2065C30.0838 26.9983 31.4257 26.7416 34.932 26.5167C39.3341 26.2344 47.1262 26.005 62.0074 26.0001L62.1338 26L62.2451 25.9399C62.4577 25.8249 62.7638 25.6672 63.1907 25.4554L63.1922 25.4547C63.4962 25.3025 63.8927 25.0122 64.4256 24.5636C64.9672 24.1077 65.6791 23.4627 66.6203 22.5747C68.5036 20.798 71.3263 18.028 75.5813 13.8059L75.5821 13.8051C78.6025 10.7941 81.4438 8.00553 83.5879 5.93336C84.6601 4.89709 85.5568 4.0411 86.2139 3.42641C86.5427 3.11884 86.8096 2.8734 87.0077 2.69663C87.107 2.60809 87.1867 2.53875 87.2471 2.48826C87.2996 2.4444 87.3265 2.42414 87.3348 2.41797C87.7724 2.16754 88.8094 1.71816 89.6173 1.45654L89.6238 1.45443L89.6238 1.45438L89.641 1.44856C90.3084 1.22215 90.6936 1.0915 95.212 1.02707C99.7526 0.962313 108.406 0.962299 125.628 0.962299C141.183 0.9623 149.87 0.974655 154.818 1.03018C157.294 1.05795 158.827 1.09647 159.814 1.14911C160.803 1.20184 161.21 1.26762 161.454 1.337C163.326 1.90659 164.299 2.46135 165.876 3.8722L165.879 3.87502C166.704 4.60129 167.944 5.51697 168.662 5.89122C168.778 5.95512 168.888 6.01796 168.995 6.07937C169.485 6.36018 169.923 6.61099 170.67 6.79508C171.557 7.01386 172.891 7.14621 175.394 7.23105C179.94 7.38517 188.486 7.38442 205.552 7.38291C207.326 7.38275 209.193 7.38259 211.156 7.38259C212.652 7.38259 214.091 7.38265 215.475 7.38272C233.033 7.38353 241.798 7.38393 246.449 7.24346C248.952 7.16786 250.3 7.05099 251.197 6.8613C251.978 6.69596 252.423 6.47153 252.931 6.2147C253.022 6.16896 253.115 6.1222 253.211 6.07456C253.924 5.74367 255.245 4.76895 256.193 3.89518C258.147 2.15772 260.042 1.10191 261.83 0.705138C261.919 0.688542 262.138 0.66756 262.534 0.6475C262.925 0.627684 263.462 0.609868 264.16 0.594092C265.556 0.562553 267.587 0.53942 270.375 0.52399C275.952 0.493135 284.547 0.493131 297.128 0.517825L331.065 0.591672L332.81 1.38353C332.811 1.38401 332.812 1.3845 332.813 1.38498C333.64 1.77613 334.173 2.07078 335.892 3.65156C337.628 5.24848 340.537 8.12259 346.116 13.6578L346.468 13.3029L346.116 13.6579C351.368 18.8655 354.31 21.7678 356.109 23.4414C357.903 25.1099 358.604 25.6013 359.366 25.9345M362.295 26.8831C362.365 26.8952 362.483 26.9 362.585 26.9038C362.712 26.9085 362.884 26.913 363.097 26.9175C363.524 26.9264 364.121 26.935 364.858 26.9435C366.333 26.9604 368.372 26.9764 370.731 26.9914C375.451 27.0215 381.458 27.0478 386.81 27.0694C388.424 27.0759 389.98 27.082 391.422 27.0877C392.827 27.0932 394.126 27.0983 395.267 27.1029M362.295 26.8831L395.267 27.1029M359.366 25.9345C359.367 25.9346 359.367 25.9348 359.367 25.9349L359.567 25.4767L359.365 25.9341C359.366 25.9342 359.366 25.9344 359.366 25.9345ZM86.5043 93.5564C35.4636 93.4082 29.8143 93.3588 28.0381 92.9884C13.0146 89.9018 2.45612 78.7897 0.507245 63.9737L86.5043 93.5564ZM86.5043 93.5564L107.669 93.6799M86.5043 93.5564L107.669 93.6799M107.669 93.6799L109.939 94.3466M107.669 93.6799L109.939 94.3466M109.939 94.3466C115.859 96.0998 118.055 97.6308 126.417 105.878L109.939 94.3466Z" stroke="#FCEE0A"/>
<path d="M80.4 39C82.3467 39 83.84 39.3733 84.88 40.12C85.9333 40.8533 86.46 41.9533 86.46 43.42C86.46 44.22 86.3133 44.9067 86.02 45.48C85.74 46.04 85.3267 46.5 84.78 46.86C84.2467 47.2067 83.5933 47.46 82.82 47.62C82.0467 47.78 81.1733 47.86 80.2 47.86H78.66V53H76.72V39.34C77.2667 39.2067 77.8733 39.12 78.54 39.08C79.22 39.0267 79.84 39 80.4 39ZM80.56 40.7C79.7333 40.7 79.1 40.72 78.66 40.76V46.2H80.12C80.7867 46.2 81.3867 46.16 81.92 46.08C82.4533 45.9867 82.9 45.84 83.26 45.64C83.6333 45.4267 83.92 45.14 84.12 44.78C84.32 44.42 84.42 43.96 84.42 43.4C84.42 42.8667 84.3133 42.4267 84.1 42.08C83.9 41.7333 83.62 41.46 83.26 41.26C82.9133 41.0467 82.5067 40.9 82.04 40.82C81.5733 40.74 81.08 40.7 80.56 40.7ZM97.1519 53C96.9252 52.4 96.7119 51.8133 96.5119 51.24C96.3119 50.6533 96.1052 50.06 95.8919 49.46H89.6119L88.3519 53H86.3319C86.8652 51.5333 87.3652 50.18 87.8319 48.94C88.2985 47.6867 88.7519 46.5 89.1919 45.38C89.6452 44.26 90.0919 43.1933 90.5319 42.18C90.9719 41.1533 91.4319 40.14 91.9119 39.14H93.6919C94.1719 40.14 94.6319 41.1533 95.0719 42.18C95.5119 43.1933 95.9519 44.26 96.3919 45.38C96.8452 46.5 97.3052 47.6867 97.7719 48.94C98.2385 50.18 98.7385 51.5333 99.2719 53H97.1519ZM95.3319 47.86C94.9052 46.7 94.4785 45.58 94.0519 44.5C93.6385 43.4067 93.2052 42.36 92.7519 41.36C92.2852 42.36 91.8385 43.4067 91.4119 44.5C90.9985 45.58 90.5852 46.7 90.1719 47.86H95.3319ZM102.646 44.9H103.686C104.126 44.9 104.573 44.8667 105.026 44.8C105.479 44.7333 105.893 44.6133 106.266 44.44C106.639 44.2533 106.946 44.0067 107.186 43.7C107.426 43.3933 107.546 43.0067 107.546 42.54C107.546 41.94 107.286 41.4533 106.766 41.08C106.259 40.6933 105.579 40.5 104.726 40.5C103.993 40.5 103.333 40.5867 102.746 40.76C102.159 40.92 101.726 41.0867 101.446 41.26L100.826 39.68C100.986 39.5733 101.199 39.4733 101.466 39.38C101.746 39.2733 102.053 39.18 102.386 39.1C102.733 39.02 103.106 38.96 103.506 38.92C103.906 38.8667 104.319 38.84 104.746 38.84C105.439 38.84 106.079 38.9133 106.666 39.06C107.253 39.2067 107.759 39.4333 108.186 39.74C108.613 40.0333 108.946 40.4133 109.186 40.88C109.426 41.3333 109.546 41.8733 109.546 42.5C109.546 43.14 109.339 43.74 108.926 44.3C108.526 44.86 107.933 45.2667 107.146 45.52C107.546 45.6267 107.926 45.78 108.286 45.98C108.659 46.1667 108.979 46.4133 109.246 46.72C109.526 47.0133 109.746 47.36 109.906 47.76C110.079 48.16 110.166 48.6267 110.166 49.16C110.166 49.8933 110.026 50.5267 109.746 51.06C109.479 51.58 109.099 52.0067 108.606 52.34C108.126 52.6733 107.539 52.9133 106.846 53.06C106.153 53.22 105.386 53.3 104.546 53.3C104.039 53.3 103.559 53.26 103.106 53.18C102.653 53.1133 102.246 53.0333 101.886 52.94C101.526 52.8333 101.213 52.72 100.946 52.6C100.679 52.48 100.473 52.38 100.326 52.3L100.906 50.7C101.053 50.78 101.246 50.8733 101.486 50.98C101.739 51.0867 102.019 51.1867 102.326 51.28C102.633 51.3733 102.973 51.4533 103.346 51.52C103.719 51.5867 104.113 51.62 104.526 51.62C105.659 51.62 106.539 51.4333 107.166 51.06C107.806 50.6733 108.126 50.0267 108.126 49.12C108.126 48.5867 108.013 48.1533 107.786 47.82C107.573 47.4733 107.273 47.2 106.886 47C106.513 46.8 106.066 46.6667 105.546 46.6C105.039 46.52 104.486 46.48 103.886 46.48H102.646V44.9ZM116.591 39C118.538 39 120.031 39.3733 121.071 40.12C122.125 40.8533 122.651 41.9533 122.651 43.42C122.651 44.22 122.505 44.9067 122.211 45.48C121.931 46.04 121.518 46.5 120.971 46.86C120.438 47.2067 119.785 47.46 119.011 47.62C118.238 47.78 117.365 47.86 116.391 47.86H114.851V53H112.911V39.34C113.458 39.2067 114.065 39.12 114.731 39.08C115.411 39.0267 116.031 39 116.591 39ZM116.751 40.7C115.925 40.7 115.291 40.72 114.851 40.76V46.2H116.311C116.978 46.2 117.578 46.16 118.111 46.08C118.645 45.9867 119.091 45.84 119.451 45.64C119.825 45.4267 120.111 45.14 120.311 44.78C120.511 44.42 120.611 43.96 120.611 43.4C120.611 42.8667 120.505 42.4267 120.291 42.08C120.091 41.7333 119.811 41.46 119.451 41.26C119.105 41.0467 118.698 40.9 118.231 40.82C117.765 40.74 117.271 40.7 116.751 40.7ZM133.343 53C133.117 52.4 132.903 51.8133 132.703 51.24C132.503 50.6533 132.297 50.06 132.083 49.46H125.803L124.543 53H122.523C123.057 51.5333 123.557 50.18 124.023 48.94C124.49 47.6867 124.943 46.5 125.383 45.38C125.837 44.26 126.283 43.1933 126.723 42.18C127.163 41.1533 127.623 40.14 128.103 39.14H129.883C130.363 40.14 130.823 41.1533 131.263 42.18C131.703 43.1933 132.143 44.26 132.583 45.38C133.037 46.5 133.497 47.6867 133.963 48.94C134.43 50.18 134.93 51.5333 135.463 53H133.343ZM131.523 47.86C131.097 46.7 130.67 45.58 130.243 44.5C129.83 43.4067 129.397 42.36 128.943 41.36C128.477 42.36 128.03 43.4067 127.603 44.5C127.19 45.58 126.777 46.7 126.363 47.86H131.523ZM139.285 40.8V44.32H141.005C141.978 44.32 142.845 44.4 143.605 44.56C144.378 44.72 145.032 44.98 145.565 45.34C146.098 45.6867 146.505 46.14 146.785 46.7C147.065 47.2467 147.205 47.92 147.205 48.72C147.205 50.1867 146.672 51.2933 145.605 52.04C144.538 52.7733 143.032 53.14 141.085 53.14C140.805 53.14 140.498 53.1333 140.165 53.12C139.845 53.1067 139.518 53.0867 139.185 53.06C138.865 53.0333 138.545 53 138.225 52.96C137.905 52.92 137.612 52.8667 137.345 52.8V39.14H145.905V40.8H139.285ZM141.245 51.44C141.765 51.44 142.258 51.4 142.725 51.32C143.205 51.24 143.625 51.1 143.985 50.9C144.345 50.6867 144.632 50.4067 144.845 50.06C145.058 49.7133 145.165 49.2733 145.165 48.74C145.165 48.18 145.065 47.72 144.865 47.36C144.678 47 144.405 46.7133 144.045 46.5C143.685 46.2867 143.238 46.14 142.705 46.06C142.185 45.9667 141.592 45.92 140.925 45.92H139.285V51.38C139.432 51.3933 139.605 51.4067 139.805 51.42C139.978 51.4333 140.185 51.44 140.425 51.44C140.665 51.44 140.938 51.44 141.245 51.44ZM149.168 46.06C149.168 44.8733 149.341 43.8267 149.688 42.92C150.048 42.0133 150.528 41.26 151.128 40.66C151.741 40.0467 152.448 39.5867 153.248 39.28C154.061 38.9733 154.921 38.82 155.828 38.82C156.721 38.82 157.561 38.9733 158.348 39.28C159.148 39.5867 159.848 40.0467 160.448 40.66C161.048 41.26 161.521 42.0133 161.868 42.92C162.228 43.8267 162.408 44.8733 162.408 46.06C162.408 47.2467 162.228 48.2933 161.868 49.2C161.521 50.1067 161.048 50.8667 160.448 51.48C159.848 52.08 159.148 52.5333 158.348 52.84C157.561 53.1467 156.721 53.3 155.828 53.3C154.921 53.3 154.061 53.1467 153.248 52.84C152.448 52.5333 151.741 52.08 151.128 51.48C150.528 50.8667 150.048 50.1067 149.688 49.2C149.341 48.2933 149.168 47.2467 149.168 46.06ZM151.208 46.06C151.208 46.9 151.314 47.6667 151.528 48.36C151.741 49.04 152.041 49.62 152.428 50.1C152.828 50.58 153.308 50.9533 153.868 51.22C154.441 51.4733 155.081 51.6 155.788 51.6C156.494 51.6 157.128 51.4733 157.688 51.22C158.248 50.9533 158.721 50.58 159.108 50.1C159.508 49.62 159.814 49.04 160.028 48.36C160.241 47.6667 160.348 46.9 160.348 46.06C160.348 45.22 160.241 44.46 160.028 43.78C159.814 43.0867 159.508 42.5 159.108 42.02C158.721 41.54 158.248 41.1733 157.688 40.92C157.128 40.6533 156.494 40.52 155.788 40.52C155.081 40.52 154.441 40.6533 153.868 40.92C153.308 41.1733 152.828 41.54 152.428 42.02C152.041 42.5 151.741 43.0867 151.528 43.78C151.314 44.46 151.208 45.22 151.208 46.06ZM174.007 39.14V40.82H169.647V53H167.707V40.82H163.347V39.14H174.007ZM186.316 39.14C185.903 39.5933 185.436 40.1 184.916 40.66C184.396 41.2067 183.849 41.7733 183.276 42.36C182.716 42.9333 182.156 43.5 181.596 44.06C181.036 44.62 180.509 45.14 180.016 45.62C180.589 46.02 181.196 46.5133 181.836 47.1C182.476 47.6867 183.103 48.3133 183.716 48.98C184.329 49.6467 184.903 50.3267 185.436 51.02C185.983 51.7133 186.436 52.3733 186.796 53H184.516C184.116 52.3733 183.656 51.7467 183.136 51.12C182.616 50.48 182.063 49.8733 181.476 49.3C180.903 48.7133 180.316 48.1733 179.716 47.68C179.129 47.1867 178.556 46.7667 177.996 46.42V53H176.056V39.14H177.996V45.26C178.463 44.82 178.976 44.3267 179.536 43.78C180.096 43.22 180.649 42.66 181.196 42.1C181.743 41.54 182.256 41.0067 182.736 40.5C183.229 39.98 183.643 39.5267 183.976 39.14H186.316ZM198.578 53C198.351 52.4 198.138 51.8133 197.938 51.24C197.738 50.6533 197.531 50.06 197.318 49.46H191.038L189.778 53H187.758C188.291 51.5333 188.791 50.18 189.258 48.94C189.724 47.6867 190.178 46.5 190.618 45.38C191.071 44.26 191.518 43.1933 191.958 42.18C192.398 41.1533 192.858 40.14 193.338 39.14H195.118C195.598 40.14 196.058 41.1533 196.498 42.18C196.938 43.1933 197.378 44.26 197.818 45.38C198.271 46.5 198.731 47.6867 199.198 48.94C199.664 50.18 200.164 51.5333 200.698 53H198.578ZM196.758 47.86C196.331 46.7 195.904 45.58 195.478 44.5C195.064 43.4067 194.631 42.36 194.178 41.36C193.711 42.36 193.264 43.4067 192.838 44.5C192.424 45.58 192.011 46.7 191.598 47.86H196.758ZM217.748 39.14V53H215.808V40.8H209.148V53H207.208V39.14H217.748ZM224.873 39C226.819 39 228.313 39.3733 229.353 40.12C230.406 40.8533 230.933 41.9533 230.933 43.42C230.933 44.22 230.786 44.9067 230.493 45.48C230.213 46.04 229.799 46.5 229.253 46.86C228.719 47.2067 228.066 47.46 227.293 47.62C226.519 47.78 225.646 47.86 224.673 47.86H223.133V53H221.193V39.34C221.739 39.2067 222.346 39.12 223.013 39.08C223.693 39.0267 224.313 39 224.873 39ZM225.033 40.7C224.206 40.7 223.573 40.72 223.133 40.76V46.2H224.593C225.259 46.2 225.859 46.16 226.393 46.08C226.926 45.9867 227.373 45.84 227.733 45.64C228.106 45.4267 228.393 45.14 228.593 44.78C228.793 44.42 228.893 43.96 228.893 43.4C228.893 42.8667 228.786 42.4267 228.573 42.08C228.373 41.7333 228.093 41.46 227.733 41.26C227.386 41.0467 226.979 40.9 226.513 40.82C226.046 40.74 225.553 40.7 225.033 40.7ZM232.801 46.06C232.801 44.8733 232.974 43.8267 233.321 42.92C233.681 42.0133 234.161 41.26 234.761 40.66C235.374 40.0467 236.081 39.5867 236.881 39.28C237.694 38.9733 238.554 38.82 239.461 38.82C240.354 38.82 241.194 38.9733 241.981 39.28C242.781 39.5867 243.481 40.0467 244.081 40.66C244.681 41.26 245.154 42.0133 245.501 42.92C245.861 43.8267 246.041 44.8733 246.041 46.06C246.041 47.2467 245.861 48.2933 245.501 49.2C245.154 50.1067 244.681 50.8667 244.081 51.48C243.481 52.08 242.781 52.5333 241.981 52.84C241.194 53.1467 240.354 53.3 239.461 53.3C238.554 53.3 237.694 53.1467 236.881 52.84C236.081 52.5333 235.374 52.08 234.761 51.48C234.161 50.8667 233.681 50.1067 233.321 49.2C232.974 48.2933 232.801 47.2467 232.801 46.06ZM234.841 46.06C234.841 46.9 234.947 47.6667 235.161 48.36C235.374 49.04 235.674 49.62 236.061 50.1C236.461 50.58 236.941 50.9533 237.501 51.22C238.074 51.4733 238.714 51.6 239.421 51.6C240.127 51.6 240.761 51.4733 241.321 51.22C241.881 50.9533 242.354 50.58 242.741 50.1C243.141 49.62 243.447 49.04 243.661 48.36C243.874 47.6667 243.981 46.9 243.981 46.06C243.981 45.22 243.874 44.46 243.661 43.78C243.447 43.0867 243.141 42.5 242.741 42.02C242.354 41.54 241.881 41.1733 241.321 40.92C240.761 40.6533 240.127 40.52 239.421 40.52C238.714 40.52 238.074 40.6533 237.501 40.92C236.941 41.1733 236.461 41.54 236.061 42.02C235.674 42.5 235.374 43.0867 235.161 43.78C234.947 44.46 234.841 45.22 234.841 46.06ZM257.067 39.14V40.82H250.867V53H248.927V39.14H257.067ZM262.783 39C264.729 39 266.223 39.3733 267.263 40.12C268.316 40.8533 268.843 41.9533 268.843 43.42C268.843 44.22 268.696 44.9067 268.403 45.48C268.123 46.04 267.709 46.5 267.163 46.86C266.629 47.2067 265.976 47.46 265.203 47.62C264.429 47.78 263.556 47.86 262.583 47.86H261.043V53H259.103V39.34C259.649 39.2067 260.256 39.12 260.923 39.08C261.603 39.0267 262.223 39 262.783 39ZM262.943 40.7C262.116 40.7 261.483 40.72 261.043 40.76V46.2H262.503C263.169 46.2 263.769 46.16 264.303 46.08C264.836 45.9867 265.283 45.84 265.643 45.64C266.016 45.4267 266.303 45.14 266.503 44.78C266.703 44.42 266.803 43.96 266.803 43.4C266.803 42.8667 266.696 42.4267 266.483 42.08C266.283 41.7333 266.003 41.46 265.643 41.26C265.296 41.0467 264.889 40.9 264.423 40.82C263.956 40.74 263.463 40.7 262.943 40.7ZM279.535 53C279.308 52.4 279.095 51.8133 278.895 51.24C278.695 50.6533 278.488 50.06 278.275 49.46H271.995L270.735 53H268.715C269.248 51.5333 269.748 50.18 270.215 48.94C270.681 47.6867 271.135 46.5 271.575 45.38C272.028 44.26 272.475 43.1933 272.915 42.18C273.355 41.1533 273.815 40.14 274.295 39.14H276.075C276.555 40.14 277.015 41.1533 277.455 42.18C277.895 43.1933 278.335 44.26 278.775 45.38C279.228 46.5 279.688 47.6867 280.155 48.94C280.621 50.18 281.121 51.5333 281.655 53H279.535ZM277.715 47.86C277.288 46.7 276.861 45.58 276.435 44.5C276.021 43.4067 275.588 42.36 275.135 41.36C274.668 42.36 274.221 43.4067 273.795 44.5C273.381 45.58 272.968 46.7 272.555 47.86H277.715ZM289.756 51.08C289.623 50.76 289.443 50.3533 289.216 49.86C289.003 49.3667 288.77 48.8333 288.516 48.26C288.263 47.6867 287.99 47.1 287.696 46.5C287.416 45.8867 287.15 45.3133 286.896 44.78C286.643 44.2333 286.403 43.7467 286.176 43.32C285.963 42.8933 285.79 42.5667 285.656 42.34C285.51 43.9133 285.39 45.62 285.296 47.46C285.203 49.2867 285.123 51.1333 285.056 53H283.156C283.21 51.8 283.27 50.5933 283.336 49.38C283.403 48.1533 283.476 46.9533 283.556 45.78C283.65 44.5933 283.743 43.44 283.836 42.32C283.943 41.2 284.056 40.14 284.176 39.14H285.876C286.236 39.7267 286.623 40.42 287.036 41.22C287.45 42.02 287.863 42.86 288.276 43.74C288.69 44.6067 289.09 45.48 289.476 46.36C289.863 47.2267 290.216 48.02 290.536 48.74C290.856 48.02 291.21 47.2267 291.596 46.36C291.983 45.48 292.383 44.6067 292.796 43.74C293.21 42.86 293.623 42.02 294.036 41.22C294.45 40.42 294.836 39.7267 295.196 39.14H296.896C297.35 43.6067 297.69 48.2267 297.916 53H296.016C295.95 51.1333 295.87 49.2867 295.776 47.46C295.683 45.62 295.563 43.9133 295.416 42.34C295.283 42.5667 295.103 42.8933 294.876 43.32C294.663 43.7467 294.43 44.2333 294.176 44.78C293.923 45.3133 293.65 45.8867 293.356 46.5C293.076 47.1 292.81 47.6867 292.556 48.26C292.303 48.8333 292.063 49.3667 291.836 49.86C291.623 50.3533 291.45 50.76 291.316 51.08H289.756ZM307.178 51.08C307.045 50.76 306.865 50.3533 306.638 49.86C306.425 49.3667 306.192 48.8333 305.938 48.26C305.685 47.6867 305.412 47.1 305.118 46.5C304.838 45.8867 304.572 45.3133 304.318 44.78C304.065 44.2333 303.825 43.7467 303.598 43.32C303.385 42.8933 303.212 42.5667 303.078 42.34C302.932 43.9133 302.812 45.62 302.718 47.46C302.625 49.2867 302.545 51.1333 302.478 53H300.578C300.632 51.8 300.692 50.5933 300.758 49.38C300.825 48.1533 300.898 46.9533 300.978 45.78C301.072 44.5933 301.165 43.44 301.258 42.32C301.365 41.2 301.478 40.14 301.598 39.14H303.298C303.658 39.7267 304.045 40.42 304.458 41.22C304.872 42.02 305.285 42.86 305.698 43.74C306.112 44.6067 306.512 45.48 306.898 46.36C307.285 47.2267 307.638 48.02 307.958 48.74C308.278 48.02 308.632 47.2267 309.018 46.36C309.405 45.48 309.805 44.6067 310.218 43.74C310.632 42.86 311.045 42.02 311.458 41.22C311.872 40.42 312.258 39.7267 312.618 39.14H314.318C314.772 43.6067 315.112 48.2267 315.338 53H313.438C313.372 51.1333 313.292 49.2867 313.198 47.46C313.105 45.62 312.985 43.9133 312.838 42.34C312.705 42.5667 312.525 42.8933 312.298 43.32C312.085 43.7467 311.852 44.2333 311.598 44.78C311.345 45.3133 311.072 45.8867 310.778 46.5C310.498 47.1 310.232 47.6867 309.978 48.26C309.725 48.8333 309.485 49.3667 309.258 49.86C309.045 50.3533 308.872 50.76 308.738 51.08H307.178ZM327.1 39.14H329.04V53H327.1V46.6H320.32V53H318.38V39.14H320.32V44.92H327.1V39.14ZM331.922 46.06C331.922 44.8733 332.095 43.8267 332.442 42.92C332.802 42.0133 333.282 41.26 333.882 40.66C334.495 40.0467 335.202 39.5867 336.002 39.28C336.815 38.9733 337.675 38.82 338.582 38.82C339.475 38.82 340.315 38.9733 341.102 39.28C341.902 39.5867 342.602 40.0467 343.202 40.66C343.802 41.26 344.275 42.0133 344.622 42.92C344.982 43.8267 345.162 44.8733 345.162 46.06C345.162 47.2467 344.982 48.2933 344.622 49.2C344.275 50.1067 343.802 50.8667 343.202 51.48C342.602 52.08 341.902 52.5333 341.102 52.84C340.315 53.1467 339.475 53.3 338.582 53.3C337.675 53.3 336.815 53.1467 336.002 52.84C335.202 52.5333 334.495 52.08 333.882 51.48C333.282 50.8667 332.802 50.1067 332.442 49.2C332.095 48.2933 331.922 47.2467 331.922 46.06ZM333.962 46.06C333.962 46.9 334.068 47.6667 334.282 48.36C334.495 49.04 334.795 49.62 335.182 50.1C335.582 50.58 336.062 50.9533 336.622 51.22C337.195 51.4733 337.835 51.6 338.542 51.6C339.248 51.6 339.882 51.4733 340.442 51.22C341.002 50.9533 341.475 50.58 341.862 50.1C342.262 49.62 342.568 49.04 342.782 48.36C342.995 47.6667 343.102 46.9 343.102 46.06C343.102 45.22 342.995 44.46 342.782 43.78C342.568 43.0867 342.262 42.5 341.862 42.02C341.475 41.54 341.002 41.1733 340.442 40.92C339.882 40.6533 339.248 40.52 338.542 40.52C337.835 40.52 337.195 40.6533 336.622 40.92C336.062 41.1733 335.582 41.54 335.182 42.02C334.795 42.5 334.495 43.0867 334.282 43.78C334.068 44.46 333.962 45.22 333.962 46.06ZM356.188 39.14V40.82H349.988V53H348.048V39.14H356.188ZM357.117 46.06C357.117 44.8733 357.29 43.8267 357.637 42.92C357.997 42.0133 358.477 41.26 359.077 40.66C359.69 40.0467 360.397 39.5867 361.197 39.28C362.01 38.9733 362.87 38.82 363.777 38.82C364.67 38.82 365.51 38.9733 366.297 39.28C367.097 39.5867 367.797 40.0467 368.397 40.66C368.997 41.26 369.47 42.0133 369.817 42.92C370.177 43.8267 370.357 44.8733 370.357 46.06C370.357 47.2467 370.177 48.2933 369.817 49.2C369.47 50.1067 368.997 50.8667 368.397 51.48C367.797 52.08 367.097 52.5333 366.297 52.84C365.51 53.1467 364.67 53.3 363.777 53.3C362.87 53.3 362.01 53.1467 361.197 52.84C360.397 52.5333 359.69 52.08 359.077 51.48C358.477 50.8667 357.997 50.1067 357.637 49.2C357.29 48.2933 357.117 47.2467 357.117 46.06ZM359.157 46.06C359.157 46.9 359.264 47.6667 359.477 48.36C359.69 49.04 359.99 49.62 360.377 50.1C360.777 50.58 361.257 50.9533 361.817 51.22C362.39 51.4733 363.03 51.6 363.737 51.6C364.444 51.6 365.077 51.4733 365.637 51.22C366.197 50.9533 366.67 50.58 367.057 50.1C367.457 49.62 367.764 49.04 367.977 48.36C368.19 47.6667 368.297 46.9 368.297 46.06C368.297 45.22 368.19 44.46 367.977 43.78C367.764 43.0867 367.457 42.5 367.057 42.02C366.67 41.54 366.197 41.1733 365.637 40.92C365.077 40.6533 364.444 40.52 363.737 40.52C363.03 40.52 362.39 40.6533 361.817 40.92C361.257 41.1733 360.777 41.54 360.377 42.02C359.99 42.5 359.69 43.0867 359.477 43.78C359.264 44.46 359.157 45.22 359.157 46.06ZM76.16 69.06C76.16 67.8733 76.3333 66.8267 76.68 65.92C77.04 65.0133 77.52 64.26 78.12 63.66C78.7333 63.0467 79.44 62.5867 80.24 62.28C81.0533 61.9733 81.9133 61.82 82.82 61.82C83.7133 61.82 84.5533 61.9733 85.34 62.28C86.14 62.5867 86.84 63.0467 87.44 63.66C88.04 64.26 88.5133 65.0133 88.86 65.92C89.22 66.8267 89.4 67.8733 89.4 69.06C89.4 70.2467 89.22 71.2933 88.86 72.2C88.5133 73.1067 88.04 73.8667 87.44 74.48C86.84 75.08 86.14 75.5333 85.34 75.84C84.5533 76.1467 83.7133 76.3 82.82 76.3C81.9133 76.3 81.0533 76.1467 80.24 75.84C79.44 75.5333 78.7333 75.08 78.12 74.48C77.52 73.8667 77.04 73.1067 76.68 72.2C76.3333 71.2933 76.16 70.2467 76.16 69.06ZM78.2 69.06C78.2 69.9 78.3067 70.6667 78.52 71.36C78.7333 72.04 79.0333 72.62 79.42 73.1C79.82 73.58 80.3 73.9533 80.86 74.22C81.4333 74.4733 82.0733 74.6 82.78 74.6C83.4867 74.6 84.12 74.4733 84.68 74.22C85.24 73.9533 85.7133 73.58 86.1 73.1C86.5 72.62 86.8067 72.04 87.02 71.36C87.2333 70.6667 87.34 69.9 87.34 69.06C87.34 68.22 87.2333 67.46 87.02 66.78C86.8067 66.0867 86.5 65.5 86.1 65.02C85.7133 64.54 85.24 64.1733 84.68 63.92C84.12 63.6533 83.4867 63.52 82.78 63.52C82.0733 63.52 81.4333 63.6533 80.86 63.92C80.3 64.1733 79.82 64.54 79.42 65.02C79.0333 65.5 78.7333 66.0867 78.52 66.78C78.3067 67.46 78.2 68.22 78.2 69.06ZM94.2264 63.8V67.32H95.9464C96.9197 67.32 97.7864 67.4 98.5464 67.56C99.3197 67.72 99.9731 67.98 100.506 68.34C101.04 68.6867 101.446 69.14 101.726 69.7C102.006 70.2467 102.146 70.92 102.146 71.72C102.146 73.1867 101.613 74.2933 100.546 75.04C99.4797 75.7733 97.9731 76.14 96.0264 76.14C95.7464 76.14 95.4397 76.1333 95.1064 76.12C94.7864 76.1067 94.4597 76.0867 94.1264 76.06C93.8064 76.0333 93.4864 76 93.1664 75.96C92.8464 75.92 92.5531 75.8667 92.2864 75.8V62.14H100.846V63.8H94.2264ZM96.1864 74.44C96.7064 74.44 97.1997 74.4 97.6664 74.32C98.1464 74.24 98.5664 74.1 98.9264 73.9C99.2864 73.6867 99.5731 73.4067 99.7864 73.06C99.9997 72.7133 100.106 72.2733 100.106 71.74C100.106 71.18 100.006 70.72 99.8064 70.36C99.6197 70 99.3464 69.7133 98.9864 69.5C98.6264 69.2867 98.1797 69.14 97.6464 69.06C97.1264 68.9667 96.5331 68.92 95.8664 68.92H94.2264V74.38C94.3731 74.3933 94.5464 74.4067 94.7464 74.42C94.9197 74.4333 95.1264 74.44 95.3664 74.44C95.6064 74.44 95.8797 74.44 96.1864 74.44ZM104.669 76V62.14H113.129V63.8H106.609V67.92H112.409V69.54H106.609V74.34H113.629V76H104.669ZM121.489 76.3C120.515 76.3 119.629 76.14 118.829 75.82C118.029 75.5 117.342 75.0333 116.769 74.42C116.195 73.8067 115.749 73.0533 115.429 72.16C115.122 71.2533 114.969 70.22 114.969 69.06C114.969 67.9 115.142 66.8733 115.489 65.98C115.849 65.0733 116.329 64.3133 116.929 63.7C117.529 63.0867 118.229 62.62 119.029 62.3C119.829 61.98 120.682 61.82 121.589 61.82C122.162 61.82 122.675 61.86 123.129 61.94C123.595 62.02 123.995 62.1133 124.329 62.22C124.675 62.3267 124.955 62.4333 125.169 62.54C125.382 62.6467 125.529 62.7267 125.609 62.78L125.049 64.38C124.929 64.3 124.755 64.2133 124.529 64.12C124.302 64.0267 124.042 63.9333 123.749 63.84C123.469 63.7467 123.155 63.6733 122.809 63.62C122.475 63.5533 122.135 63.52 121.789 63.52C121.055 63.52 120.395 63.6467 119.809 63.9C119.222 64.1533 118.722 64.52 118.309 65C117.895 65.48 117.575 66.0667 117.349 66.76C117.135 67.44 117.029 68.2067 117.029 69.06C117.029 69.8867 117.122 70.64 117.309 71.32C117.509 72 117.802 72.5867 118.189 73.08C118.575 73.56 119.055 73.9333 119.629 74.2C120.215 74.4667 120.895 74.6 121.669 74.6C122.562 74.6 123.302 74.5067 123.889 74.32C124.475 74.1333 124.915 73.9667 125.209 73.82L125.709 75.42C125.615 75.4867 125.449 75.5733 125.209 75.68C124.969 75.7733 124.669 75.8667 124.309 75.96C123.949 76.0533 123.529 76.1333 123.049 76.2C122.569 76.2667 122.049 76.3 121.489 76.3ZM138.471 62.14V76H136.531V63.8H129.871V76H127.931V62.14H138.471ZM141.915 76V62.14H150.375V63.8H143.855V67.92H149.655V69.54H143.855V74.34H150.875V76H141.915ZM154.701 66.14C154.701 66.7 154.748 67.1933 154.841 67.62C154.948 68.0333 155.121 68.38 155.361 68.66C155.614 68.9267 155.948 69.1267 156.361 69.26C156.788 69.3933 157.321 69.46 157.961 69.46C158.214 69.46 158.468 69.4533 158.721 69.44C158.988 69.4133 159.241 69.3867 159.481 69.36C159.721 69.3333 159.934 69.3 160.121 69.26C160.308 69.22 160.461 69.1867 160.581 69.16V62.14H162.521V76H160.581V70.84C160.328 70.9067 159.934 70.9733 159.401 71.04C158.881 71.1067 158.321 71.14 157.721 71.14C156.708 71.14 155.881 71.0267 155.241 70.8C154.601 70.56 154.094 70.2267 153.721 69.8C153.361 69.36 153.114 68.8333 152.981 68.22C152.848 67.5933 152.781 66.9 152.781 66.14V62.14H154.701V66.14ZM165.958 76V62.14H174.418V63.8H167.898V67.92H173.698V69.54H167.898V74.34H174.918V76H165.958ZM186.104 62.14H188.044V76H186.104V69.6H179.324V76H177.384V62.14H179.324V67.92H186.104V62.14ZM191.486 76V62.14H193.386V72.4C193.812 71.6933 194.332 70.8867 194.946 69.98C195.572 69.0733 196.232 68.1533 196.926 67.22C197.632 66.2733 198.339 65.36 199.046 64.48C199.766 63.5867 200.439 62.8067 201.066 62.14H202.606V76H200.706V65.18C200.332 65.6067 199.926 66.1 199.486 66.66C199.046 67.22 198.592 67.82 198.126 68.46C197.659 69.0867 197.186 69.74 196.706 70.42C196.239 71.1 195.786 71.7733 195.346 72.44C194.906 73.0933 194.492 73.7267 194.106 74.34C193.732 74.9533 193.399 75.5067 193.106 76H191.486ZM211.416 63.7C210.91 63.7 210.423 63.74 209.956 63.82C209.503 63.9 209.096 64.04 208.736 64.24C208.376 64.44 208.09 64.7133 207.876 65.06C207.663 65.4067 207.556 65.84 207.556 66.36C207.556 67.3467 207.87 68.0333 208.496 68.42C209.136 68.7933 210.09 68.98 211.356 68.98H213.356V63.76C213.21 63.76 213.036 63.7533 212.836 63.74C212.663 63.7267 212.456 63.72 212.216 63.72C211.99 63.7067 211.723 63.7 211.416 63.7ZM211.576 62C211.856 62 212.156 62.0067 212.476 62.02C212.796 62.0333 213.116 62.0533 213.436 62.08C213.77 62.1067 214.096 62.14 214.416 62.18C214.736 62.22 215.03 62.2733 215.296 62.34V76H213.356V70.58H211.696C211.51 70.58 211.31 70.58 211.096 70.58C210.896 70.5667 210.623 70.54 210.276 70.5C210.036 70.82 209.776 71.1933 209.496 71.62C209.216 72.0467 208.936 72.5 208.656 72.98C208.376 73.46 208.096 73.96 207.816 74.48C207.55 75 207.303 75.5067 207.076 76H205.036C205.25 75.48 205.503 74.94 205.796 74.38C206.09 73.82 206.39 73.2867 206.696 72.78C207.016 72.2733 207.316 71.8067 207.596 71.38C207.89 70.94 208.143 70.58 208.356 70.3C208.05 70.2067 207.73 70.0733 207.396 69.9C207.063 69.7267 206.756 69.4867 206.476 69.18C206.196 68.8733 205.963 68.4933 205.776 68.04C205.603 67.5733 205.516 67.02 205.516 66.38C205.516 65.66 205.656 65.0267 205.936 64.48C206.216 63.9333 206.616 63.48 207.136 63.12C207.67 62.7467 208.31 62.4667 209.056 62.28C209.803 62.0933 210.643 62 211.576 62Z" fill="#FCEE0A"/>
</svg>
