<svg width="376" height="202" viewBox="0 0 376 202" fill="none" xmlns="http://www.w3.org/2000/svg">
<path d="M362.781 3.05378L362.781 3.05398C369.62 6.4368 374.466 13.4141 375.368 21.1293L375.369 21.1333C375.369 21.1324 375.371 21.1588 375.374 21.2334C375.377 21.3003 375.379 21.3915 375.382 21.5074C375.388 21.7389 375.393 22.0621 375.398 22.4732C375.409 23.2951 375.419 24.4629 375.428 25.9387C375.446 28.89 375.461 33.0696 375.473 38.1699C375.496 48.3704 375.506 62.2519 375.496 77.3513L375.478 132.202L375.058 134.007L362.781 3.05378ZM362.781 3.05378C360.615 1.98009 359.335 1.52299 357.059 0.98647C355.531 0.62693 354.857 0.605149 344.759 0.529649L344.759 0.529647C333.159 0.435486 331.33 0.533544 328.287 1.32171C326.274 1.85237 323.316 3.18274 321.385 4.46973L321.384 4.4705C320.638 4.9651 319.58 5.846 318.556 6.80252C317.531 7.75893 316.572 8.76186 316.014 9.49108L316.013 9.49217C314.045 12.0489 312.756 14.7152 311.812 18.1572L311.246 20.2563L311.134 30.4411L311.134 30.4421C311.078 34.7656 311.03 37.3908 310.964 39.0838C310.898 40.7736 310.813 41.5637 310.671 42.2025L310.67 42.2053C309.521 47.2431 307.292 51.2223 303.667 54.7322L303.666 54.7337C300.774 57.5105 298.114 59.1303 294.355 60.3579L294.353 60.3583C294.192 60.4104 294.04 60.4607 293.893 60.5093C293.168 60.7487 292.573 60.9452 291.731 61.0944C290.724 61.273 289.366 61.3847 286.958 61.4565C282.556 61.5878 274.558 61.5873 258.592 61.5862C257.088 61.5861 255.514 61.586 253.865 61.586C252.237 61.586 250.681 61.5861 249.194 61.5862C233.155 61.5873 225.091 61.5878 220.64 61.4542C218.209 61.3812 216.83 61.2677 215.808 61.0865C214.937 60.9321 214.33 60.7281 213.586 60.4785C213.452 60.4333 213.313 60.3867 213.167 60.3386L213.167 60.3385C210.849 59.5724 209.325 58.8389 207.129 57.4069L362.781 3.05378ZM370.894 143.224L370.892 143.227C370.323 144.004 368.782 145.7 367.008 147.54C365.242 149.372 363.276 151.314 361.879 152.572L361.877 152.573C358.215 155.902 354.835 157.663 350.341 158.584L350.34 158.584C349.03 158.857 347.318 159.006 344.461 159.119C340.819 159.251 340.138 159.328 338.056 159.868L338.056 159.868C335.251 160.598 332.146 162.073 329.911 163.73C329.02 164.389 327.234 165.967 325.914 167.23L325.913 167.232C321.765 171.231 318.223 173.118 313.063 174.095C311.815 174.321 310.051 174.396 308.261 174.327C306.47 174.257 304.695 174.043 303.428 173.708L303.428 173.708C298.953 172.53 295.811 170.698 291.972 166.952L291.972 166.951C288.537 163.613 284.62 161.502 279.723 160.336M370.894 143.224L279.607 160.822M370.894 143.224C372.823 140.634 374.263 137.408 375.058 134.007L370.894 143.224ZM279.723 160.336L279.607 160.822M279.723 160.336C279.724 160.336 279.724 160.336 279.724 160.336L279.607 160.822M279.723 160.336C278.986 160.159 277.953 160.073 272.001 160.019C266.014 159.965 255.002 159.946 234.234 159.927M279.607 160.822C278.272 160.502 275.771 160.465 234.234 160.427M234.234 159.927L234.234 160.427M234.234 159.927C234.234 159.927 234.234 159.927 234.234 159.927M234.234 159.927L234.234 159.927M234.234 160.427L234.234 159.927M234.234 160.427L234.234 159.927M234.234 159.927L231.285 159.923C209.549 159.888 198.821 159.871 193.149 159.977C190.191 160.032 188.586 160.121 187.505 160.262C186.555 160.386 186.006 160.551 185.338 160.753C185.233 160.785 185.126 160.817 185.013 160.85C182.779 161.506 180.347 162.675 178.283 164.013L178.277 164.017C177.382 164.617 176.505 165.334 174.103 167.64C171.699 169.947 167.746 173.867 160.696 180.889C153.841 187.716 149.891 191.633 147.462 193.97C145.027 196.313 144.146 197.044 143.419 197.523M234.234 159.927L143.419 197.523M143.419 197.523C143.419 197.523 143.419 197.522 143.42 197.522L143.693 197.941L143.418 197.523C143.418 197.523 143.418 197.523 143.419 197.523ZM0.696374 21.2806L0.696558 21.279C1.61776 13.3014 6.44362 6.40069 13.4687 2.98011L13.4704 2.97925C15.7266 1.86964 17.1355 1.39404 19.4648 0.894854C20.1629 0.748465 21.2621 0.661427 29.4991 0.61661C37.7053 0.571961 52.9535 0.567258 81.8841 0.567259L142.755 0.567262L144.675 0.987948C144.675 0.987975 144.676 0.988003 144.676 0.988031C146.76 1.44932 149.327 2.39273 150.933 3.28709L150.935 3.28808C152.435 4.11534 153.228 4.5641 156.887 8.04095C160.558 11.5291 167.079 18.0306 180.031 30.9453L180.384 30.5912L180.031 30.9453L180.063 30.9775L180.417 30.6237L180.064 30.9777L0.696374 21.2806ZM0.696374 21.2806C0.667542 21.5236 0.638372 22.7814 0.613403 24.8649C0.588707 26.9255 0.568073 29.7514 0.551475 33.088C0.518279 39.7608 0.501238 48.4726 0.500063 57.1819C0.498887 65.8912 0.513577 74.5972 0.543834 81.2583C0.558964 84.589 0.577982 87.4077 0.600844 89.4596C0.623898 91.5287 0.650933 92.7758 0.677564 93.0125L0.696374 21.2806ZM362.213 152.943C358.49 156.328 355.03 158.133 350.442 159.073L371.295 143.522C370.111 145.14 365.034 150.405 362.213 152.943Z" stroke="#FCEE0A"/>
<path d="M103.68 108.3C102.707 108.3 101.82 108.14 101.02 107.82C100.22 107.5 99.5333 107.033 98.96 106.42C98.3867 105.807 97.94 105.053 97.62 104.16C97.3133 103.253 97.16 102.22 97.16 101.06C97.16 99.9 97.3333 98.8733 97.68 97.98C98.04 97.0733 98.52 96.3133 99.12 95.7C99.72 95.0867 100.42 94.62 101.22 94.3C102.02 93.98 102.873 93.82 103.78 93.82C104.353 93.82 104.867 93.86 105.32 93.94C105.787 94.02 106.187 94.1133 106.52 94.22C106.867 94.3267 107.147 94.4333 107.36 94.54C107.573 94.6467 107.72 94.7267 107.8 94.78L107.24 96.38C107.12 96.3 106.947 96.2133 106.72 96.12C106.493 96.0267 106.233 95.9333 105.94 95.84C105.66 95.7467 105.347 95.6733 105 95.62C104.667 95.5533 104.327 95.52 103.98 95.52C103.247 95.52 102.587 95.6467 102 95.9C101.413 96.1533 100.913 96.52 100.5 97C100.087 97.48 99.7667 98.0667 99.54 98.76C99.3267 99.44 99.22 100.207 99.22 101.06C99.22 101.887 99.3133 102.64 99.5 103.32C99.7 104 99.9933 104.587 100.38 105.08C100.767 105.56 101.247 105.933 101.82 106.2C102.407 106.467 103.087 106.6 103.86 106.6C104.753 106.6 105.493 106.507 106.08 106.32C106.667 106.133 107.107 105.967 107.4 105.82L107.9 107.42C107.807 107.487 107.64 107.573 107.4 107.68C107.16 107.773 106.86 107.867 106.5 107.96C106.14 108.053 105.72 108.133 105.24 108.2C104.76 108.267 104.24 108.3 103.68 108.3ZM110.122 108V94.14H118.582V95.8H112.062V99.92H117.862V101.54H112.062V106.34H119.082V108H110.122ZM125.228 94C127.175 94 128.668 94.3733 129.708 95.12C130.761 95.8533 131.288 96.9533 131.288 98.42C131.288 99.22 131.141 99.9067 130.848 100.48C130.568 101.04 130.155 101.5 129.608 101.86C129.075 102.207 128.421 102.46 127.648 102.62C126.875 102.78 126.001 102.86 125.028 102.86H123.488V108H121.548V94.34C122.095 94.2067 122.701 94.12 123.368 94.08C124.048 94.0267 124.668 94 125.228 94ZM125.388 95.7C124.561 95.7 123.928 95.72 123.488 95.76V101.2H124.948C125.615 101.2 126.215 101.16 126.748 101.08C127.281 100.987 127.728 100.84 128.088 100.64C128.461 100.427 128.748 100.14 128.948 99.78C129.148 99.42 129.248 98.96 129.248 98.4C129.248 97.8667 129.141 97.4267 128.928 97.08C128.728 96.7333 128.448 96.46 128.088 96.26C127.741 96.0467 127.335 95.9 126.868 95.82C126.401 95.74 125.908 95.7 125.388 95.7ZM137.456 108.12C137.176 108.12 136.869 108.113 136.536 108.1C136.216 108.087 135.889 108.067 135.556 108.04C135.236 108.013 134.916 107.98 134.596 107.94C134.276 107.9 133.983 107.847 133.716 107.78V94.34C133.983 94.2733 134.276 94.22 134.596 94.18C134.916 94.14 135.236 94.1067 135.556 94.08C135.889 94.0533 136.216 94.0333 136.536 94.02C136.856 94.0067 137.156 94 137.436 94C138.236 94 138.983 94.06 139.676 94.18C140.383 94.3 140.989 94.5067 141.496 94.8C142.016 95.08 142.423 95.4533 142.716 95.92C143.009 96.3867 143.156 96.96 143.156 97.64C143.156 98.4 142.976 99.0267 142.616 99.52C142.256 100 141.776 100.36 141.176 100.6C141.989 100.84 142.636 101.22 143.116 101.74C143.596 102.26 143.836 102.993 143.836 103.94C143.836 105.327 143.323 106.373 142.296 107.08C141.283 107.773 139.669 108.12 137.456 108.12ZM135.636 101.54V106.42C135.783 106.433 135.956 106.447 136.156 106.46C136.329 106.473 136.529 106.487 136.756 106.5C136.996 106.5 137.269 106.5 137.576 106.5C138.149 106.5 138.689 106.467 139.196 106.4C139.716 106.32 140.169 106.187 140.556 106C140.943 105.813 141.249 105.553 141.476 105.22C141.716 104.887 141.836 104.467 141.836 103.96C141.836 103.507 141.749 103.127 141.576 102.82C141.403 102.5 141.149 102.247 140.816 102.06C140.496 101.873 140.109 101.74 139.656 101.66C139.203 101.58 138.696 101.54 138.136 101.54H135.636ZM135.636 99.98H137.676C138.156 99.98 138.609 99.9467 139.036 99.88C139.463 99.8133 139.829 99.6933 140.136 99.52C140.456 99.3467 140.703 99.12 140.876 98.84C141.063 98.56 141.156 98.2067 141.156 97.78C141.156 97.38 141.063 97.0467 140.876 96.78C140.689 96.5 140.429 96.28 140.096 96.12C139.776 95.9467 139.396 95.82 138.956 95.74C138.516 95.66 138.049 95.62 137.556 95.62C137.063 95.62 136.676 95.6267 136.396 95.64C136.116 95.6533 135.863 95.6733 135.636 95.7V99.98ZM146.568 108V94.14H148.468V104.4C148.894 103.693 149.414 102.887 150.028 101.98C150.654 101.073 151.314 100.153 152.008 99.22C152.714 98.2733 153.421 97.36 154.128 96.48C154.848 95.5867 155.521 94.8067 156.148 94.14H157.688V108H155.788V97.18C155.414 97.6067 155.008 98.1 154.568 98.66C154.128 99.22 153.674 99.82 153.208 100.46C152.741 101.087 152.268 101.74 151.788 102.42C151.321 103.1 150.868 103.773 150.428 104.44C149.988 105.093 149.574 105.727 149.188 106.34C148.814 106.953 148.481 107.507 148.188 108H146.568ZM167.078 108.3C166.105 108.3 165.218 108.14 164.418 107.82C163.618 107.5 162.932 107.033 162.358 106.42C161.785 105.807 161.338 105.053 161.018 104.16C160.712 103.253 160.558 102.22 160.558 101.06C160.558 99.9 160.732 98.8733 161.078 97.98C161.438 97.0733 161.918 96.3133 162.518 95.7C163.118 95.0867 163.818 94.62 164.618 94.3C165.418 93.98 166.272 93.82 167.178 93.82C167.752 93.82 168.265 93.86 168.718 93.94C169.185 94.02 169.585 94.1133 169.918 94.22C170.265 94.3267 170.545 94.4333 170.758 94.54C170.972 94.6467 171.118 94.7267 171.198 94.78L170.638 96.38C170.518 96.3 170.345 96.2133 170.118 96.12C169.892 96.0267 169.632 95.9333 169.338 95.84C169.058 95.7467 168.745 95.6733 168.398 95.62C168.065 95.5533 167.725 95.52 167.378 95.52C166.645 95.52 165.985 95.6467 165.398 95.9C164.812 96.1533 164.312 96.52 163.898 97C163.485 97.48 163.165 98.0667 162.938 98.76C162.725 99.44 162.618 100.207 162.618 101.06C162.618 101.887 162.712 102.64 162.898 103.32C163.098 104 163.392 104.587 163.778 105.08C164.165 105.56 164.645 105.933 165.218 106.2C165.805 106.467 166.485 106.6 167.258 106.6C168.152 106.6 168.892 106.507 169.478 106.32C170.065 106.133 170.505 105.967 170.798 105.82L171.298 107.42C171.205 107.487 171.038 107.573 170.798 107.68C170.558 107.773 170.258 107.867 169.898 107.96C169.538 108.053 169.118 108.133 168.638 108.2C168.158 108.267 167.638 108.3 167.078 108.3ZM182.241 94.14H184.181V108H182.241V101.6H175.461V108H173.521V94.14H175.461V99.92H182.241V94.14ZM195.222 103.66C195.222 103.1 195.122 102.633 194.922 102.26C194.722 101.887 194.436 101.593 194.062 101.38C193.689 101.167 193.242 101.02 192.722 100.94C192.216 100.847 191.656 100.8 191.042 100.8C190.816 100.8 190.569 100.8 190.302 100.8C190.049 100.8 189.802 100.813 189.562 100.84V106.38C190.016 106.42 190.356 106.44 190.582 106.44C190.809 106.44 191.076 106.44 191.382 106.44C191.876 106.44 192.356 106.4 192.822 106.32C193.289 106.24 193.696 106.093 194.042 105.88C194.402 105.667 194.689 105.387 194.902 105.04C195.116 104.68 195.222 104.22 195.222 103.66ZM197.262 103.66C197.262 104.407 197.122 105.06 196.842 105.62C196.562 106.18 196.162 106.647 195.642 107.02C195.122 107.393 194.489 107.673 193.742 107.86C192.996 108.047 192.156 108.14 191.222 108.14C190.662 108.14 190.062 108.113 189.422 108.06C188.782 108.02 188.182 107.933 187.622 107.8V94.14H189.562V99.18C189.802 99.1533 190.056 99.14 190.322 99.14C190.602 99.1267 190.862 99.12 191.102 99.12C195.209 99.12 197.262 100.633 197.262 103.66ZM199.362 94.14H201.302V108H199.362V94.14ZM204.751 108V94.14H206.651V104.4C207.078 103.693 207.598 102.887 208.211 101.98C208.838 101.073 209.498 100.153 210.191 99.22C210.898 98.2733 211.605 97.36 212.311 96.48C213.031 95.5867 213.705 94.8067 214.331 94.14H215.871V108H213.971V97.18C213.598 97.6067 213.191 98.1 212.751 98.66C212.311 99.22 211.858 99.82 211.391 100.46C210.925 101.087 210.451 101.74 209.971 102.42C209.505 103.1 209.051 103.773 208.611 104.44C208.171 105.093 207.758 105.727 207.371 106.34C206.998 106.953 206.665 107.507 206.371 108H204.751ZM210.331 92.8C209.491 92.8 208.805 92.5867 208.271 92.16C207.751 91.7333 207.438 91.14 207.331 90.38L208.751 90C208.858 90.4267 209.038 90.7733 209.291 91.04C209.545 91.3067 209.891 91.44 210.331 91.44C210.771 91.44 211.118 91.3067 211.371 91.04C211.625 90.7733 211.805 90.4267 211.911 90L213.311 90.38C213.205 91.14 212.891 91.7333 212.371 92.16C211.851 92.5867 211.171 92.8 210.331 92.8ZM234.471 106.34H236.211V111.7H234.371V108H223.931V94.14H225.871V106.34H232.531V94.14H234.471V106.34ZM238.286 108V94.14H246.746V95.8H240.226V99.92H246.026V101.54H240.226V106.34H247.246V108H238.286ZM258.432 94.14H260.372V108H258.432V101.6H251.652V108H249.712V94.14H251.652V99.92H258.432V94.14ZM273.074 94.14V95.82H268.714V108H266.774V95.82H262.414V94.14H273.074ZM278.802 94C280.749 94 282.242 94.3733 283.282 95.12C284.336 95.8533 284.862 96.9533 284.862 98.42C284.862 99.22 284.716 99.9067 284.422 100.48C284.142 101.04 283.729 101.5 283.182 101.86C282.649 102.207 281.996 102.46 281.222 102.62C280.449 102.78 279.576 102.86 278.602 102.86H277.062V108H275.122V94.34C275.669 94.2067 276.276 94.12 276.942 94.08C277.622 94.0267 278.242 94 278.802 94ZM278.962 95.7C278.136 95.7 277.502 95.72 277.062 95.76V101.2H278.522C279.189 101.2 279.789 101.16 280.322 101.08C280.856 100.987 281.302 100.84 281.662 100.64C282.036 100.427 282.322 100.14 282.522 99.78C282.722 99.42 282.822 98.96 282.822 98.4C282.822 97.8667 282.716 97.4267 282.502 97.08C282.302 96.7333 282.022 96.46 281.662 96.26C281.316 96.0467 280.909 95.9 280.442 95.82C279.976 95.74 279.482 95.7 278.962 95.7ZM108.26 117.14V131H106.32V118.8H99.66V131H97.72V117.14H108.26ZM111.144 124.06C111.144 122.873 111.318 121.827 111.664 120.92C112.024 120.013 112.504 119.26 113.104 118.66C113.718 118.047 114.424 117.587 115.224 117.28C116.038 116.973 116.898 116.82 117.804 116.82C118.698 116.82 119.538 116.973 120.324 117.28C121.124 117.587 121.824 118.047 122.424 118.66C123.024 119.26 123.498 120.013 123.844 120.92C124.204 121.827 124.384 122.873 124.384 124.06C124.384 125.247 124.204 126.293 123.844 127.2C123.498 128.107 123.024 128.867 122.424 129.48C121.824 130.08 121.124 130.533 120.324 130.84C119.538 131.147 118.698 131.3 117.804 131.3C116.898 131.3 116.038 131.147 115.224 130.84C114.424 130.533 113.718 130.08 113.104 129.48C112.504 128.867 112.024 128.107 111.664 127.2C111.318 126.293 111.144 125.247 111.144 124.06ZM113.184 124.06C113.184 124.9 113.291 125.667 113.504 126.36C113.718 127.04 114.018 127.62 114.404 128.1C114.804 128.58 115.284 128.953 115.844 129.22C116.418 129.473 117.058 129.6 117.764 129.6C118.471 129.6 119.104 129.473 119.664 129.22C120.224 128.953 120.698 128.58 121.084 128.1C121.484 127.62 121.791 127.04 122.004 126.36C122.218 125.667 122.324 124.9 122.324 124.06C122.324 123.22 122.218 122.46 122.004 121.78C121.791 121.087 121.484 120.5 121.084 120.02C120.698 119.54 120.224 119.173 119.664 118.92C119.104 118.653 118.471 118.52 117.764 118.52C117.058 118.52 116.418 118.653 115.844 118.92C115.284 119.173 114.804 119.54 114.404 120.02C114.018 120.5 113.718 121.087 113.504 121.78C113.291 122.46 113.184 123.22 113.184 124.06ZM135.58 117C137.526 117 139.02 117.373 140.06 118.12C141.113 118.853 141.64 119.953 141.64 121.42C141.64 122.22 141.493 122.907 141.2 123.48C140.92 124.04 140.506 124.5 139.96 124.86C139.426 125.207 138.773 125.46 138 125.62C137.226 125.78 136.353 125.86 135.38 125.86H133.84V131H131.9V117.34C132.446 117.207 133.053 117.12 133.72 117.08C134.4 117.027 135.02 117 135.58 117ZM135.74 118.7C134.913 118.7 134.28 118.72 133.84 118.76V124.2H135.3C135.966 124.2 136.566 124.16 137.1 124.08C137.633 123.987 138.08 123.84 138.44 123.64C138.813 123.427 139.1 123.14 139.3 122.78C139.5 122.42 139.6 121.96 139.6 121.4C139.6 120.867 139.493 120.427 139.28 120.08C139.08 119.733 138.8 119.46 138.44 119.26C138.093 119.047 137.686 118.9 137.22 118.82C136.753 118.74 136.26 118.7 135.74 118.7ZM144.068 131V117.14H152.528V118.8H146.008V122.92H151.808V124.54H146.008V129.34H153.028V131H144.068ZM161.713 129.08C161.58 128.76 161.4 128.353 161.173 127.86C160.96 127.367 160.727 126.833 160.473 126.26C160.22 125.687 159.947 125.1 159.653 124.5C159.373 123.887 159.107 123.313 158.853 122.78C158.6 122.233 158.36 121.747 158.133 121.32C157.92 120.893 157.747 120.567 157.613 120.34C157.467 121.913 157.347 123.62 157.253 125.46C157.16 127.287 157.08 129.133 157.013 131H155.113C155.167 129.8 155.227 128.593 155.293 127.38C155.36 126.153 155.433 124.953 155.513 123.78C155.607 122.593 155.7 121.44 155.793 120.32C155.9 119.2 156.013 118.14 156.133 117.14H157.833C158.193 117.727 158.58 118.42 158.993 119.22C159.407 120.02 159.82 120.86 160.233 121.74C160.647 122.607 161.047 123.48 161.433 124.36C161.82 125.227 162.173 126.02 162.493 126.74C162.813 126.02 163.167 125.227 163.553 124.36C163.94 123.48 164.34 122.607 164.753 121.74C165.167 120.86 165.58 120.02 165.993 119.22C166.407 118.42 166.793 117.727 167.153 117.14H168.853C169.307 121.607 169.647 126.227 169.873 131H167.973C167.907 129.133 167.827 127.287 167.733 125.46C167.64 123.62 167.52 121.913 167.373 120.34C167.24 120.567 167.06 120.893 166.833 121.32C166.62 121.747 166.387 122.233 166.133 122.78C165.88 123.313 165.607 123.887 165.313 124.5C165.033 125.1 164.767 125.687 164.513 126.26C164.26 126.833 164.02 127.367 163.793 127.86C163.58 128.353 163.407 128.76 163.273 129.08H161.713ZM172.355 124.06C172.355 122.873 172.529 121.827 172.875 120.92C173.235 120.013 173.715 119.26 174.315 118.66C174.929 118.047 175.635 117.587 176.435 117.28C177.249 116.973 178.109 116.82 179.015 116.82C179.909 116.82 180.749 116.973 181.535 117.28C182.335 117.587 183.035 118.047 183.635 118.66C184.235 119.26 184.709 120.013 185.055 120.92C185.415 121.827 185.595 122.873 185.595 124.06C185.595 125.247 185.415 126.293 185.055 127.2C184.709 128.107 184.235 128.867 183.635 129.48C183.035 130.08 182.335 130.533 181.535 130.84C180.749 131.147 179.909 131.3 179.015 131.3C178.109 131.3 177.249 131.147 176.435 130.84C175.635 130.533 174.929 130.08 174.315 129.48C173.715 128.867 173.235 128.107 172.875 127.2C172.529 126.293 172.355 125.247 172.355 124.06ZM174.395 124.06C174.395 124.9 174.502 125.667 174.715 126.36C174.929 127.04 175.229 127.62 175.615 128.1C176.015 128.58 176.495 128.953 177.055 129.22C177.629 129.473 178.269 129.6 178.975 129.6C179.682 129.6 180.315 129.473 180.875 129.22C181.435 128.953 181.909 128.58 182.295 128.1C182.695 127.62 183.002 127.04 183.215 126.36C183.429 125.667 183.535 124.9 183.535 124.06C183.535 123.22 183.429 122.46 183.215 121.78C183.002 121.087 182.695 120.5 182.295 120.02C181.909 119.54 181.435 119.173 180.875 118.92C180.315 118.653 179.682 118.52 178.975 118.52C178.269 118.52 177.629 118.653 177.055 118.92C176.495 119.173 176.015 119.54 175.615 120.02C175.229 120.5 174.929 121.087 174.715 121.78C174.502 122.46 174.395 123.22 174.395 124.06ZM197.202 117.14H199.142V131H197.202V124.6H190.422V131H188.482V117.14H190.422V122.92H197.202V117.14ZM211.843 117.14V118.82H207.483V131H205.543V118.82H201.183V117.14H211.843ZM220.443 126.76C220.176 127.373 219.896 127.953 219.603 128.5C219.323 129.033 218.983 129.5 218.583 129.9C218.196 130.3 217.723 130.613 217.163 130.84C216.616 131.067 215.936 131.18 215.123 131.18C214.963 131.18 214.796 131.167 214.623 131.14C214.449 131.127 214.283 131.1 214.123 131.06C213.963 131.033 213.823 131 213.703 130.96C213.583 130.92 213.496 130.88 213.443 130.84L213.783 129.2C213.956 129.267 214.163 129.333 214.403 129.4C214.656 129.467 214.916 129.5 215.183 129.5C215.583 129.5 215.929 129.453 216.223 129.36C216.529 129.253 216.803 129.113 217.043 128.94C217.283 128.753 217.496 128.533 217.683 128.28C217.869 128.013 218.049 127.72 218.223 127.4C217.636 126.453 217.083 125.513 216.563 124.58C216.043 123.633 215.563 122.72 215.123 121.84C214.683 120.96 214.283 120.127 213.923 119.34C213.563 118.54 213.243 117.807 212.963 117.14H215.163C215.603 118.3 216.163 119.593 216.843 121.02C217.536 122.447 218.303 123.94 219.143 125.5C219.676 124.287 220.183 122.953 220.663 121.5C221.156 120.033 221.616 118.58 222.043 117.14H224.143C223.836 118.1 223.529 119.007 223.223 119.86C222.916 120.7 222.609 121.513 222.303 122.3C221.996 123.073 221.689 123.833 221.383 124.58C221.076 125.313 220.763 126.04 220.443 126.76ZM241.19 117.14V131H239.25V118.8H232.59V131H230.65V117.14H241.19ZM254.894 117.14C254.481 117.593 254.014 118.1 253.494 118.66C252.974 119.207 252.427 119.773 251.854 120.36C251.294 120.933 250.734 121.5 250.174 122.06C249.614 122.62 249.087 123.14 248.594 123.62C249.167 124.02 249.774 124.513 250.414 125.1C251.054 125.687 251.681 126.313 252.294 126.98C252.907 127.647 253.481 128.327 254.014 129.02C254.561 129.713 255.014 130.373 255.374 131H253.094C252.694 130.373 252.234 129.747 251.714 129.12C251.194 128.48 250.641 127.873 250.054 127.3C249.481 126.713 248.894 126.173 248.294 125.68C247.707 125.187 247.134 124.767 246.574 124.42V131H244.634V117.14H246.574V123.26C247.041 122.82 247.554 122.327 248.114 121.78C248.674 121.22 249.227 120.66 249.774 120.1C250.321 119.54 250.834 119.007 251.314 118.5C251.807 117.98 252.221 117.527 252.554 117.14H254.894Z" fill="#FCEE0A"/>
</svg>
