<svg width="489" height="137" viewBox="0 0 489 137" fill="none" xmlns="http://www.w3.org/2000/svg">
<path d="M488.147 43.201L488.147 43.2012C488.767 46.3579 488.553 50.6915 487.641 54.078C485.337 62.6208 478.426 70.6812 467.325 77.6107C464.854 79.1523 458.319 82.4928 455.157 83.8301C448.287 86.7326 439.972 89.3159 431.652 91.1296C425.532 92.4578 416.328 93.7881 409.545 94.3223C403.426 94.794 401.342 94.8317 377.278 94.8317C355.527 94.8317 352.625 94.8554 349.818 94.3519C349.241 94.2484 348.668 94.1227 347.937 93.9699L347.937 93.9699C345.283 93.4171 343.214 92.7315 340.654 91.5387L340.443 91.9919L340.654 91.5387C336.59 89.6461 332.62 88.5469 328.159 88.0925C325.453 87.8144 320.223 87.9019 317.61 88.282L317.609 88.2821C315.109 88.6477 311.156 89.64 309.179 90.417C306.168 91.5701 303.597 93.2032 301.963 95.0363L301.962 95.0373C301.252 95.8383 300.764 96.5514 300.426 97.4617C300.094 98.359 299.918 99.419 299.782 100.894L299.782 100.897C299.469 104.617 298.847 106.844 297.39 109.617L297.39 109.617C292.853 118.27 281.744 125.989 266.498 130.907L266.652 131.383L266.498 130.907C257.049 133.958 246.055 135.883 235.18 136.392C235.179 136.392 235.179 136.392 235.179 136.392L235.202 136.891C232.95 136.991 209.552 137.016 146.114 136.991L488.147 43.201ZM488.147 43.201C487.282 38.786 485.091 34.1236 482.079 30.3442M488.147 43.201L482.079 30.3442M482.079 30.3442C473.29 19.3226 457.548 10.5897 436.751 5.33232M482.079 30.3442L436.751 5.33232M436.751 5.33232C427.312 2.94788 417.845 1.4939 406.857 0.723066M436.751 5.33232L406.857 0.723066M406.857 0.723066C403.846 0.512848 394.872 0.499983 220.028 0.49999M406.857 0.723066L220.028 0.49999M220.028 0.49999C132.384 0.499994 86.4388 0.503112 62.1419 0.532709M220.028 0.49999L62.1419 0.532709M62.1419 0.532709C37.8213 0.562335 35.2123 0.619145 34.1924 0.721784L62.1419 0.532709ZM57.8691 136.183L60.1156 136.454L12.1884 93.0637C15.2967 94.7834 16.6918 95.6931 18.3805 97.1012L18.699 96.7158C18.6992 96.7159 18.6993 96.716 18.6995 96.7162C21.5519 99.0732 23.498 101.829 24.4857 104.961C24.5183 105.061 24.5424 105.197 24.5625 105.333C24.5842 105.48 24.6061 105.663 24.6279 105.875C24.6716 106.299 24.7164 106.855 24.7595 107.502C24.8456 108.795 24.9254 110.465 24.9745 112.203C25.048 114.741 25.109 116.355 25.1935 117.444C25.2784 118.536 25.3846 119.055 25.5284 119.426L25.5306 119.432C27.0385 123.475 30.6921 127.123 36.3088 130.081C42.2131 133.173 49.1501 135.154 57.8679 136.183L57.8691 136.183ZM7.97532 89.9149C8.80899 90.5092 10.8211 91.7322 12.4312 92.6266L34.1923 0.721795C25.1615 1.63277 17.3116 3.91144 11.4572 7.0908C5.59119 10.2765 1.79727 14.326 0.73085 18.7474L0.730365 18.7494L0.730357 18.7494C0.730075 18.751 0.722121 18.7959 0.712089 18.9168C0.702844 19.0282 0.693601 19.1794 0.684529 19.3726C0.666411 19.7583 0.649597 20.2973 0.634141 20.9907C0.603248 22.3769 0.57803 24.3686 0.55815 26.9615C0.518394 32.1467 0.500038 39.728 0.500038 49.6597L0.500021 51.4894C0.499802 66.3155 0.499694 73.5858 0.640437 77.4466C0.713763 79.458 0.824632 80.5087 0.983276 81.2084C1.11572 81.7925 1.27975 82.1329 1.5217 82.635C1.56252 82.7197 1.60556 82.8091 1.65104 82.9049L1.65122 82.9053C2.7549 85.2368 5.18353 87.9298 7.97485 89.9146L7.97532 89.9149Z" stroke="#FCEE0A"/>
<path d="M53.16 38.06C53.16 36.8733 53.3333 35.8267 53.68 34.92C54.04 34.0133 54.52 33.26 55.12 32.66C55.7333 32.0467 56.44 31.5867 57.24 31.28C58.0533 30.9733 58.9133 30.82 59.82 30.82C60.7133 30.82 61.5533 30.9733 62.34 31.28C63.14 31.5867 63.84 32.0467 64.44 32.66C65.04 33.26 65.5133 34.0133 65.86 34.92C66.22 35.8267 66.4 36.8733 66.4 38.06C66.4 39.2467 66.22 40.2933 65.86 41.2C65.5133 42.1067 65.04 42.8667 64.44 43.48C63.84 44.08 63.14 44.5333 62.34 44.84C61.5533 45.1467 60.7133 45.3 59.82 45.3C58.9133 45.3 58.0533 45.1467 57.24 44.84C56.44 44.5333 55.7333 44.08 55.12 43.48C54.52 42.8667 54.04 42.1067 53.68 41.2C53.3333 40.2933 53.16 39.2467 53.16 38.06ZM55.2 38.06C55.2 38.9 55.3067 39.6667 55.52 40.36C55.7333 41.04 56.0333 41.62 56.42 42.1C56.82 42.58 57.3 42.9533 57.86 43.22C58.4333 43.4733 59.0733 43.6 59.78 43.6C60.4867 43.6 61.12 43.4733 61.68 43.22C62.24 42.9533 62.7133 42.58 63.1 42.1C63.5 41.62 63.8067 41.04 64.02 40.36C64.2333 39.6667 64.34 38.9 64.34 38.06C64.34 37.22 64.2333 36.46 64.02 35.78C63.8067 35.0867 63.5 34.5 63.1 34.02C62.7133 33.54 62.24 33.1733 61.68 32.92C61.12 32.6533 60.4867 32.52 59.78 32.52C59.0733 32.52 58.4333 32.6533 57.86 32.92C57.3 33.1733 56.82 33.54 56.42 34.02C56.0333 34.5 55.7333 35.0867 55.52 35.78C55.3067 36.46 55.2 37.22 55.2 38.06ZM79.8264 31.14V45H77.8864V32.8H71.2264V45H69.2864V31.14H79.8264ZM92.5308 31.14V32.82H88.1708V45H86.2308V32.82H81.8708V31.14H92.5308ZM93.4725 38.06C93.4725 36.8733 93.6458 35.8267 93.9925 34.92C94.3525 34.0133 94.8325 33.26 95.4325 32.66C96.0458 32.0467 96.7525 31.5867 97.5525 31.28C98.3658 30.9733 99.2258 30.82 100.133 30.82C101.026 30.82 101.866 30.9733 102.653 31.28C103.453 31.5867 104.153 32.0467 104.753 32.66C105.353 33.26 105.826 34.0133 106.173 34.92C106.533 35.8267 106.713 36.8733 106.713 38.06C106.713 39.2467 106.533 40.2933 106.173 41.2C105.826 42.1067 105.353 42.8667 104.753 43.48C104.153 44.08 103.453 44.5333 102.653 44.84C101.866 45.1467 101.026 45.3 100.133 45.3C99.2258 45.3 98.3658 45.1467 97.5525 44.84C96.7525 44.5333 96.0458 44.08 95.4325 43.48C94.8325 42.8667 94.3525 42.1067 93.9925 41.2C93.6458 40.2933 93.4725 39.2467 93.4725 38.06ZM95.5125 38.06C95.5125 38.9 95.6192 39.6667 95.8325 40.36C96.0458 41.04 96.3458 41.62 96.7325 42.1C97.1325 42.58 97.6125 42.9533 98.1725 43.22C98.7458 43.4733 99.3858 43.6 100.093 43.6C100.799 43.6 101.433 43.4733 101.993 43.22C102.553 42.9533 103.026 42.58 103.413 42.1C103.813 41.62 104.119 41.04 104.333 40.36C104.546 39.6667 104.653 38.9 104.653 38.06C104.653 37.22 104.546 36.46 104.333 35.78C104.119 35.0867 103.813 34.5 103.413 34.02C103.026 33.54 102.553 33.1733 101.993 32.92C101.433 32.6533 100.799 32.52 100.093 32.52C99.3858 32.52 98.7458 32.6533 98.1725 32.92C97.6125 33.1733 97.1325 33.54 96.7325 34.02C96.3458 34.5 96.0458 35.0867 95.8325 35.78C95.6192 36.46 95.5125 37.22 95.5125 38.06ZM113.339 45.12C113.059 45.12 112.752 45.1133 112.419 45.1C112.099 45.0867 111.772 45.0667 111.439 45.04C111.119 45.0133 110.799 44.98 110.479 44.94C110.159 44.9 109.866 44.8467 109.599 44.78V31.34C109.866 31.2733 110.159 31.22 110.479 31.18C110.799 31.14 111.119 31.1067 111.439 31.08C111.772 31.0533 112.099 31.0333 112.419 31.02C112.739 31.0067 113.039 31 113.319 31C114.119 31 114.866 31.06 115.559 31.18C116.266 31.3 116.872 31.5067 117.379 31.8C117.899 32.08 118.306 32.4533 118.599 32.92C118.892 33.3867 119.039 33.96 119.039 34.64C119.039 35.4 118.859 36.0267 118.499 36.52C118.139 37 117.659 37.36 117.059 37.6C117.872 37.84 118.519 38.22 118.999 38.74C119.479 39.26 119.719 39.9933 119.719 40.94C119.719 42.3267 119.206 43.3733 118.179 44.08C117.166 44.7733 115.552 45.12 113.339 45.12ZM111.519 38.54V43.42C111.666 43.4333 111.839 43.4467 112.039 43.46C112.212 43.4733 112.412 43.4867 112.639 43.5C112.879 43.5 113.152 43.5 113.459 43.5C114.032 43.5 114.572 43.4667 115.079 43.4C115.599 43.32 116.052 43.1867 116.439 43C116.826 42.8133 117.132 42.5533 117.359 42.22C117.599 41.8867 117.719 41.4667 117.719 40.96C117.719 40.5067 117.632 40.1267 117.459 39.82C117.286 39.5 117.032 39.2467 116.699 39.06C116.379 38.8733 115.992 38.74 115.539 38.66C115.086 38.58 114.579 38.54 114.019 38.54H111.519ZM111.519 36.98H113.559C114.039 36.98 114.492 36.9467 114.919 36.88C115.346 36.8133 115.712 36.6933 116.019 36.52C116.339 36.3467 116.586 36.12 116.759 35.84C116.946 35.56 117.039 35.2067 117.039 34.78C117.039 34.38 116.946 34.0467 116.759 33.78C116.572 33.5 116.312 33.28 115.979 33.12C115.659 32.9467 115.279 32.82 114.839 32.74C114.399 32.66 113.932 32.62 113.439 32.62C112.946 32.62 112.559 32.6267 112.279 32.64C111.999 32.6533 111.746 32.6733 111.519 32.7V36.98ZM131.71 45C131.484 44.4 131.27 43.8133 131.07 43.24C130.87 42.6533 130.664 42.06 130.45 41.46H124.17L122.91 45H120.89C121.424 43.5333 121.924 42.18 122.39 40.94C122.857 39.6867 123.31 38.5 123.75 37.38C124.204 36.26 124.65 35.1933 125.09 34.18C125.53 33.1533 125.99 32.14 126.47 31.14H128.25C128.73 32.14 129.19 33.1533 129.63 34.18C130.07 35.1933 130.51 36.26 130.95 37.38C131.404 38.5 131.864 39.6867 132.33 40.94C132.797 42.18 133.297 43.5333 133.83 45H131.71ZM129.89 39.86C129.464 38.7 129.037 37.58 128.61 36.5C128.197 35.4067 127.764 34.36 127.31 33.36C126.844 34.36 126.397 35.4067 125.97 36.5C125.557 37.58 125.144 38.7 124.73 39.86H129.89ZM141.405 32.7C140.898 32.7 140.411 32.74 139.945 32.82C139.491 32.9 139.085 33.04 138.725 33.24C138.365 33.44 138.078 33.7133 137.865 34.06C137.651 34.4067 137.545 34.84 137.545 35.36C137.545 36.3467 137.858 37.0333 138.485 37.42C139.125 37.7933 140.078 37.98 141.345 37.98H143.345V32.76C143.198 32.76 143.025 32.7533 142.825 32.74C142.651 32.7267 142.445 32.72 142.205 32.72C141.978 32.7067 141.711 32.7 141.405 32.7ZM141.565 31C141.845 31 142.145 31.0067 142.465 31.02C142.785 31.0333 143.105 31.0533 143.425 31.08C143.758 31.1067 144.085 31.14 144.405 31.18C144.725 31.22 145.018 31.2733 145.285 31.34V45H143.345V39.58H141.685C141.498 39.58 141.298 39.58 141.085 39.58C140.885 39.5667 140.611 39.54 140.265 39.5C140.025 39.82 139.765 40.1933 139.485 40.62C139.205 41.0467 138.925 41.5 138.645 41.98C138.365 42.46 138.085 42.96 137.805 43.48C137.538 44 137.291 44.5067 137.065 45H135.025C135.238 44.48 135.491 43.94 135.785 43.38C136.078 42.82 136.378 42.2867 136.685 41.78C137.005 41.2733 137.305 40.8067 137.585 40.38C137.878 39.94 138.131 39.58 138.345 39.3C138.038 39.2067 137.718 39.0733 137.385 38.9C137.051 38.7267 136.745 38.4867 136.465 38.18C136.185 37.8733 135.951 37.4933 135.765 37.04C135.591 36.5733 135.505 36.02 135.505 35.38C135.505 34.66 135.645 34.0267 135.925 33.48C136.205 32.9333 136.605 32.48 137.125 32.12C137.658 31.7467 138.298 31.4667 139.045 31.28C139.791 31.0933 140.631 31 141.565 31ZM153.349 45V31.14H155.249V41.4C155.676 40.6933 156.196 39.8867 156.809 38.98C157.436 38.0733 158.096 37.1533 158.789 36.22C159.496 35.2733 160.202 34.36 160.909 33.48C161.629 32.5867 162.302 31.8067 162.929 31.14H164.469V45H162.569V34.18C162.196 34.6067 161.789 35.1 161.349 35.66C160.909 36.22 160.456 36.82 159.989 37.46C159.522 38.0867 159.049 38.74 158.569 39.42C158.102 40.1 157.649 40.7733 157.209 41.44C156.769 42.0933 156.356 42.7267 155.969 43.34C155.596 43.9533 155.262 44.5067 154.969 45H153.349ZM176.209 31C178.155 31 179.649 31.3733 180.689 32.12C181.742 32.8533 182.269 33.9533 182.269 35.42C182.269 36.22 182.122 36.9067 181.829 37.48C181.549 38.04 181.135 38.5 180.589 38.86C180.055 39.2067 179.402 39.46 178.629 39.62C177.855 39.78 176.982 39.86 176.009 39.86H174.469V45H172.529V31.34C173.075 31.2067 173.682 31.12 174.349 31.08C175.029 31.0267 175.649 31 176.209 31ZM176.369 32.7C175.542 32.7 174.909 32.72 174.469 32.76V38.2H175.929C176.595 38.2 177.195 38.16 177.729 38.08C178.262 37.9867 178.709 37.84 179.069 37.64C179.442 37.4267 179.729 37.14 179.929 36.78C180.129 36.42 180.229 35.96 180.229 35.4C180.229 34.8667 180.122 34.4267 179.909 34.08C179.709 33.7333 179.429 33.46 179.069 33.26C178.722 33.0467 178.315 32.9 177.849 32.82C177.382 32.74 176.889 32.7 176.369 32.7ZM184.137 38.06C184.137 36.8733 184.31 35.8267 184.657 34.92C185.017 34.0133 185.497 33.26 186.097 32.66C186.71 32.0467 187.417 31.5867 188.217 31.28C189.03 30.9733 189.89 30.82 190.797 30.82C191.69 30.82 192.53 30.9733 193.317 31.28C194.117 31.5867 194.817 32.0467 195.417 32.66C196.017 33.26 196.49 34.0133 196.837 34.92C197.197 35.8267 197.377 36.8733 197.377 38.06C197.377 39.2467 197.197 40.2933 196.837 41.2C196.49 42.1067 196.017 42.8667 195.417 43.48C194.817 44.08 194.117 44.5333 193.317 44.84C192.53 45.1467 191.69 45.3 190.797 45.3C189.89 45.3 189.03 45.1467 188.217 44.84C187.417 44.5333 186.71 44.08 186.097 43.48C185.497 42.8667 185.017 42.1067 184.657 41.2C184.31 40.2933 184.137 39.2467 184.137 38.06ZM186.177 38.06C186.177 38.9 186.283 39.6667 186.497 40.36C186.71 41.04 187.01 41.62 187.397 42.1C187.797 42.58 188.277 42.9533 188.837 43.22C189.41 43.4733 190.05 43.6 190.757 43.6C191.463 43.6 192.097 43.4733 192.657 43.22C193.217 42.9533 193.69 42.58 194.077 42.1C194.477 41.62 194.783 41.04 194.997 40.36C195.21 39.6667 195.317 38.9 195.317 38.06C195.317 37.22 195.21 36.46 194.997 35.78C194.783 35.0867 194.477 34.5 194.077 34.02C193.69 33.54 193.217 33.1733 192.657 32.92C192.097 32.6533 191.463 32.52 190.757 32.52C190.05 32.52 189.41 32.6533 188.837 32.92C188.277 33.1733 187.797 33.54 187.397 34.02C187.01 34.5 186.71 35.0867 186.497 35.78C186.283 36.46 186.177 37.22 186.177 38.06ZM200.818 36.9H201.858C202.298 36.9 202.745 36.8667 203.198 36.8C203.651 36.7333 204.065 36.6133 204.438 36.44C204.811 36.2533 205.118 36.0067 205.358 35.7C205.598 35.3933 205.718 35.0067 205.718 34.54C205.718 33.94 205.458 33.4533 204.938 33.08C204.431 32.6933 203.751 32.5 202.898 32.5C202.165 32.5 201.505 32.5867 200.918 32.76C200.331 32.92 199.898 33.0867 199.618 33.26L198.998 31.68C199.158 31.5733 199.371 31.4733 199.638 31.38C199.918 31.2733 200.225 31.18 200.558 31.1C200.905 31.02 201.278 30.96 201.678 30.92C202.078 30.8667 202.491 30.84 202.918 30.84C203.611 30.84 204.251 30.9133 204.838 31.06C205.425 31.2067 205.931 31.4333 206.358 31.74C206.785 32.0333 207.118 32.4133 207.358 32.88C207.598 33.3333 207.718 33.8733 207.718 34.5C207.718 35.14 207.511 35.74 207.098 36.3C206.698 36.86 206.105 37.2667 205.318 37.52C205.718 37.6267 206.098 37.78 206.458 37.98C206.831 38.1667 207.151 38.4133 207.418 38.72C207.698 39.0133 207.918 39.36 208.078 39.76C208.251 40.16 208.338 40.6267 208.338 41.16C208.338 41.8933 208.198 42.5267 207.918 43.06C207.651 43.58 207.271 44.0067 206.778 44.34C206.298 44.6733 205.711 44.9133 205.018 45.06C204.325 45.22 203.558 45.3 202.718 45.3C202.211 45.3 201.731 45.26 201.278 45.18C200.825 45.1133 200.418 45.0333 200.058 44.94C199.698 44.8333 199.385 44.72 199.118 44.6C198.851 44.48 198.645 44.38 198.498 44.3L199.078 42.7C199.225 42.78 199.418 42.8733 199.658 42.98C199.911 43.0867 200.191 43.1867 200.498 43.28C200.805 43.3733 201.145 43.4533 201.518 43.52C201.891 43.5867 202.285 43.62 202.698 43.62C203.831 43.62 204.711 43.4333 205.338 43.06C205.978 42.6733 206.298 42.0267 206.298 41.12C206.298 40.5867 206.185 40.1533 205.958 39.82C205.745 39.4733 205.445 39.2 205.058 39C204.685 38.8 204.238 38.6667 203.718 38.6C203.211 38.52 202.658 38.48 202.058 38.48H200.818V36.9ZM219.803 31.14H221.743V45H219.803V38.6H213.023V45H211.083V31.14H213.023V36.92H219.803V31.14ZM225.185 45V31.14H227.085V41.4C227.512 40.6933 228.032 39.8867 228.645 38.98C229.272 38.0733 229.932 37.1533 230.625 36.22C231.332 35.2733 232.038 34.36 232.745 33.48C233.465 32.5867 234.138 31.8067 234.765 31.14H236.305V45H234.405V34.18C234.032 34.6067 233.625 35.1 233.185 35.66C232.745 36.22 232.292 36.82 231.825 37.46C231.358 38.0867 230.885 38.74 230.405 39.42C229.938 40.1 229.485 40.7733 229.045 41.44C228.605 42.0933 228.192 42.7267 227.805 43.34C227.432 43.9533 227.098 44.5067 226.805 45H225.185ZM241.096 35.14C241.096 35.7 241.142 36.1933 241.236 36.62C241.342 37.0333 241.516 37.38 241.756 37.66C242.009 37.9267 242.342 38.1267 242.756 38.26C243.182 38.3933 243.716 38.46 244.356 38.46C244.609 38.46 244.862 38.4533 245.116 38.44C245.382 38.4133 245.636 38.3867 245.876 38.36C246.116 38.3333 246.329 38.3 246.516 38.26C246.702 38.22 246.856 38.1867 246.976 38.16V31.14H248.916V45H246.976V39.84C246.722 39.9067 246.329 39.9733 245.796 40.04C245.276 40.1067 244.716 40.14 244.116 40.14C243.102 40.14 242.276 40.0267 241.636 39.8C240.996 39.56 240.489 39.2267 240.116 38.8C239.756 38.36 239.509 37.8333 239.376 37.22C239.242 36.5933 239.176 35.9 239.176 35.14V31.14H241.096V35.14ZM261.073 31.14H263.013V45H261.073V38.6H254.293V45H252.353V31.14H254.293V36.92H261.073V31.14ZM275.714 45C275.488 44.4 275.274 43.8133 275.074 43.24C274.874 42.6533 274.668 42.06 274.454 41.46H268.174L266.914 45H264.894C265.428 43.5333 265.928 42.18 266.394 40.94C266.861 39.6867 267.314 38.5 267.754 37.38C268.208 36.26 268.654 35.1933 269.094 34.18C269.534 33.1533 269.994 32.14 270.474 31.14H272.254C272.734 32.14 273.194 33.1533 273.634 34.18C274.074 35.1933 274.514 36.26 274.954 37.38C275.408 38.5 275.868 39.6867 276.334 40.94C276.801 42.18 277.301 43.5333 277.834 45H275.714ZM273.894 39.86C273.468 38.7 273.041 37.58 272.614 36.5C272.201 35.4067 271.768 34.36 271.314 33.36C270.848 34.36 270.401 35.4067 269.974 36.5C269.561 37.58 269.148 38.7 268.734 39.86H273.894ZM285.409 32.7C284.902 32.7 284.415 32.74 283.949 32.82C283.495 32.9 283.089 33.04 282.729 33.24C282.369 33.44 282.082 33.7133 281.869 34.06C281.655 34.4067 281.549 34.84 281.549 35.36C281.549 36.3467 281.862 37.0333 282.489 37.42C283.129 37.7933 284.082 37.98 285.349 37.98H287.349V32.76C287.202 32.76 287.029 32.7533 286.829 32.74C286.655 32.7267 286.449 32.72 286.209 32.72C285.982 32.7067 285.715 32.7 285.409 32.7ZM285.569 31C285.849 31 286.149 31.0067 286.469 31.02C286.789 31.0333 287.109 31.0533 287.429 31.08C287.762 31.1067 288.089 31.14 288.409 31.18C288.729 31.22 289.022 31.2733 289.289 31.34V45H287.349V39.58H285.689C285.502 39.58 285.302 39.58 285.089 39.58C284.889 39.5667 284.615 39.54 284.269 39.5C284.029 39.82 283.769 40.1933 283.489 40.62C283.209 41.0467 282.929 41.5 282.649 41.98C282.369 42.46 282.089 42.96 281.809 43.48C281.542 44 281.295 44.5067 281.069 45H279.029C279.242 44.48 279.495 43.94 279.789 43.38C280.082 42.82 280.382 42.2867 280.689 41.78C281.009 41.2733 281.309 40.8067 281.589 40.38C281.882 39.94 282.135 39.58 282.349 39.3C282.042 39.2067 281.722 39.0733 281.389 38.9C281.055 38.7267 280.749 38.4867 280.469 38.18C280.189 37.8733 279.955 37.4933 279.769 37.04C279.595 36.5733 279.509 36.02 279.509 35.38C279.509 34.66 279.649 34.0267 279.929 33.48C280.209 32.9333 280.609 32.48 281.129 32.12C281.662 31.7467 282.302 31.4667 283.049 31.28C283.795 31.0933 284.635 31 285.569 31ZM62.98 54.14V55.82H58.62V68H56.68V55.82H52.32V54.14H62.98ZM63.9217 61.06C63.9217 59.8733 64.0951 58.8267 64.4417 57.92C64.8017 57.0133 65.2817 56.26 65.8817 55.66C66.4951 55.0467 67.2017 54.5867 68.0017 54.28C68.8151 53.9733 69.6751 53.82 70.5817 53.82C71.4751 53.82 72.3151 53.9733 73.1017 54.28C73.9017 54.5867 74.6017 55.0467 75.2017 55.66C75.8017 56.26 76.2751 57.0133 76.6217 57.92C76.9817 58.8267 77.1617 59.8733 77.1617 61.06C77.1617 62.2467 76.9817 63.2933 76.6217 64.2C76.2751 65.1067 75.8017 65.8667 75.2017 66.48C74.6017 67.08 73.9017 67.5333 73.1017 67.84C72.3151 68.1467 71.4751 68.3 70.5817 68.3C69.6751 68.3 68.8151 68.1467 68.0017 67.84C67.2017 67.5333 66.4951 67.08 65.8817 66.48C65.2817 65.8667 64.8017 65.1067 64.4417 64.2C64.0951 63.2933 63.9217 62.2467 63.9217 61.06ZM65.9617 61.06C65.9617 61.9 66.0684 62.6667 66.2817 63.36C66.4951 64.04 66.7951 64.62 67.1817 65.1C67.5817 65.58 68.0617 65.9533 68.6217 66.22C69.1951 66.4733 69.8351 66.6 70.5417 66.6C71.2484 66.6 71.8817 66.4733 72.4417 66.22C73.0017 65.9533 73.4751 65.58 73.8617 65.1C74.2617 64.62 74.5684 64.04 74.7817 63.36C74.9951 62.6667 75.1017 61.9 75.1017 61.06C75.1017 60.22 74.9951 59.46 74.7817 58.78C74.5684 58.0867 74.2617 57.5 73.8617 57.02C73.4751 56.54 73.0017 56.1733 72.4417 55.92C71.8817 55.6533 71.2484 55.52 70.5417 55.52C69.8351 55.52 69.1951 55.6533 68.6217 55.92C68.0617 56.1733 67.5817 56.54 67.1817 57.02C66.7951 57.5 66.4951 58.0867 66.2817 58.78C66.0684 59.46 65.9617 60.22 65.9617 61.06ZM83.7281 54C85.6748 54 87.1681 54.3733 88.2081 55.12C89.2615 55.8533 89.7881 56.9533 89.7881 58.42C89.7881 59.22 89.6415 59.9067 89.3481 60.48C89.0681 61.04 88.6548 61.5 88.1081 61.86C87.5748 62.2067 86.9215 62.46 86.1481 62.62C85.3748 62.78 84.5015 62.86 83.5281 62.86H81.9881V68H80.0481V54.34C80.5948 54.2067 81.2015 54.12 81.8681 54.08C82.5481 54.0267 83.1681 54 83.7281 54ZM83.8881 55.7C83.0615 55.7 82.4281 55.72 81.9881 55.76V61.2H83.4481C84.1148 61.2 84.7148 61.16 85.2481 61.08C85.7815 60.9867 86.2281 60.84 86.5881 60.64C86.9615 60.4267 87.2481 60.14 87.4481 59.78C87.6481 59.42 87.7481 58.96 87.7481 58.4C87.7481 57.8667 87.6415 57.4267 87.4281 57.08C87.2281 56.7333 86.9481 56.46 86.5881 56.26C86.2415 56.0467 85.8348 55.9 85.3681 55.82C84.9015 55.74 84.4081 55.7 83.8881 55.7ZM100.356 54.14V55.82H94.1561V68H92.2161V54.14H100.356ZM101.285 61.06C101.285 59.8733 101.458 58.8267 101.805 57.92C102.165 57.0133 102.645 56.26 103.245 55.66C103.858 55.0467 104.565 54.5867 105.365 54.28C106.178 53.9733 107.038 53.82 107.945 53.82C108.838 53.82 109.678 53.9733 110.465 54.28C111.265 54.5867 111.965 55.0467 112.565 55.66C113.165 56.26 113.638 57.0133 113.985 57.92C114.345 58.8267 114.525 59.8733 114.525 61.06C114.525 62.2467 114.345 63.2933 113.985 64.2C113.638 65.1067 113.165 65.8667 112.565 66.48C111.965 67.08 111.265 67.5333 110.465 67.84C109.678 68.1467 108.838 68.3 107.945 68.3C107.038 68.3 106.178 68.1467 105.365 67.84C104.565 67.5333 103.858 67.08 103.245 66.48C102.645 65.8667 102.165 65.1067 101.805 64.2C101.458 63.2933 101.285 62.2467 101.285 61.06ZM103.325 61.06C103.325 61.9 103.432 62.6667 103.645 63.36C103.858 64.04 104.158 64.62 104.545 65.1C104.945 65.58 105.425 65.9533 105.985 66.22C106.558 66.4733 107.198 66.6 107.905 66.6C108.612 66.6 109.245 66.4733 109.805 66.22C110.365 65.9533 110.838 65.58 111.225 65.1C111.625 64.62 111.932 64.04 112.145 63.36C112.358 62.6667 112.465 61.9 112.465 61.06C112.465 60.22 112.358 59.46 112.145 58.78C111.932 58.0867 111.625 57.5 111.225 57.02C110.838 56.54 110.365 56.1733 109.805 55.92C109.245 55.6533 108.612 55.52 107.905 55.52C107.198 55.52 106.558 55.6533 105.985 55.92C105.425 56.1733 104.945 56.54 104.545 57.02C104.158 57.5 103.858 58.0867 103.645 58.78C103.432 59.46 103.325 60.22 103.325 61.06ZM121.151 68.12C120.871 68.12 120.565 68.1133 120.231 68.1C119.911 68.0867 119.585 68.0667 119.251 68.04C118.931 68.0133 118.611 67.98 118.291 67.94C117.971 67.9 117.678 67.8467 117.411 67.78V54.34C117.678 54.2733 117.971 54.22 118.291 54.18C118.611 54.14 118.931 54.1067 119.251 54.08C119.585 54.0533 119.911 54.0333 120.231 54.02C120.551 54.0067 120.851 54 121.131 54C121.931 54 122.678 54.06 123.371 54.18C124.078 54.3 124.685 54.5067 125.191 54.8C125.711 55.08 126.118 55.4533 126.411 55.92C126.705 56.3867 126.851 56.96 126.851 57.64C126.851 58.4 126.671 59.0267 126.311 59.52C125.951 60 125.471 60.36 124.871 60.6C125.685 60.84 126.331 61.22 126.811 61.74C127.291 62.26 127.531 62.9933 127.531 63.94C127.531 65.3267 127.018 66.3733 125.991 67.08C124.978 67.7733 123.365 68.12 121.151 68.12ZM119.331 61.54V66.42C119.478 66.4333 119.651 66.4467 119.851 66.46C120.025 66.4733 120.225 66.4867 120.451 66.5C120.691 66.5 120.965 66.5 121.271 66.5C121.845 66.5 122.385 66.4667 122.891 66.4C123.411 66.32 123.865 66.1867 124.251 66C124.638 65.8133 124.945 65.5533 125.171 65.22C125.411 64.8867 125.531 64.4667 125.531 63.96C125.531 63.5067 125.445 63.1267 125.271 62.82C125.098 62.5 124.845 62.2467 124.511 62.06C124.191 61.8733 123.805 61.74 123.351 61.66C122.898 61.58 122.391 61.54 121.831 61.54H119.331ZM119.331 59.98H121.371C121.851 59.98 122.305 59.9467 122.731 59.88C123.158 59.8133 123.525 59.6933 123.831 59.52C124.151 59.3467 124.398 59.12 124.571 58.84C124.758 58.56 124.851 58.2067 124.851 57.78C124.851 57.38 124.758 57.0467 124.571 56.78C124.385 56.5 124.125 56.28 123.791 56.12C123.471 55.9467 123.091 55.82 122.651 55.74C122.211 55.66 121.745 55.62 121.251 55.62C120.758 55.62 120.371 55.6267 120.091 55.64C119.811 55.6533 119.558 55.6733 119.331 55.7V59.98ZM135.003 55.8C134.976 56.5467 134.95 57.2733 134.923 57.98C134.896 58.6733 134.856 59.3533 134.803 60.02C134.75 60.6733 134.67 61.3133 134.563 61.94C134.456 62.5667 134.31 63.18 134.123 63.78C133.936 64.38 133.703 64.9467 133.423 65.48C133.156 66 132.816 66.46 132.403 66.86C132.003 67.2467 131.523 67.56 130.963 67.8C130.416 68.04 129.77 68.1733 129.023 68.2L128.803 66.52C129.736 66.4133 130.456 66.12 130.963 65.64C131.483 65.16 131.91 64.4267 132.243 63.44C132.616 62.32 132.85 60.9733 132.943 59.4C133.05 57.8133 133.103 56.06 133.103 54.14H140.963V68H139.023V55.8H135.003ZM149.784 55.7C149.277 55.7 148.79 55.74 148.324 55.82C147.87 55.9 147.464 56.04 147.104 56.24C146.744 56.44 146.457 56.7133 146.244 57.06C146.03 57.4067 145.924 57.84 145.924 58.36C145.924 59.3467 146.237 60.0333 146.864 60.42C147.504 60.7933 148.457 60.98 149.724 60.98H151.724V55.76C151.577 55.76 151.404 55.7533 151.204 55.74C151.03 55.7267 150.824 55.72 150.584 55.72C150.357 55.7067 150.09 55.7 149.784 55.7ZM149.944 54C150.224 54 150.524 54.0067 150.844 54.02C151.164 54.0333 151.484 54.0533 151.804 54.08C152.137 54.1067 152.464 54.14 152.784 54.18C153.104 54.22 153.397 54.2733 153.664 54.34V68H151.724V62.58H150.064C149.877 62.58 149.677 62.58 149.464 62.58C149.264 62.5667 148.99 62.54 148.644 62.5C148.404 62.82 148.144 63.1933 147.864 63.62C147.584 64.0467 147.304 64.5 147.024 64.98C146.744 65.46 146.464 65.96 146.184 66.48C145.917 67 145.67 67.5067 145.444 68H143.404C143.617 67.48 143.87 66.94 144.164 66.38C144.457 65.82 144.757 65.2867 145.064 64.78C145.384 64.2733 145.684 63.8067 145.964 63.38C146.257 62.94 146.51 62.58 146.724 62.3C146.417 62.2067 146.097 62.0733 145.764 61.9C145.43 61.7267 145.124 61.4867 144.844 61.18C144.564 60.8733 144.33 60.4933 144.144 60.04C143.97 59.5733 143.884 59.02 143.884 58.38C143.884 57.66 144.024 57.0267 144.304 56.48C144.584 55.9333 144.984 55.48 145.504 55.12C146.037 54.7467 146.677 54.4667 147.424 54.28C148.17 54.0933 149.01 54 149.944 54ZM172.268 66.34H174.008V71.7H172.168V68H161.728V54.14H163.668V66.34H170.328V54.14H172.268V66.34ZM176.083 68V54.14H177.983V64.4C178.41 63.6933 178.93 62.8867 179.543 61.98C180.17 61.0733 180.83 60.1533 181.523 59.22C182.23 58.2733 182.937 57.36 183.643 56.48C184.363 55.5867 185.037 54.8067 185.663 54.14H187.203V68H185.303V57.18C184.93 57.6067 184.523 58.1 184.083 58.66C183.643 59.22 183.19 59.82 182.723 60.46C182.257 61.0867 181.783 61.74 181.303 62.42C180.837 63.1 180.383 63.7733 179.943 64.44C179.503 65.0933 179.09 65.7267 178.703 66.34C178.33 66.9533 177.997 67.5067 177.703 68H176.083ZM198.494 64.72C199.134 64.72 199.727 64.6333 200.274 64.46C200.834 64.2733 201.314 64.0067 201.714 63.66C202.127 63.3 202.454 62.8667 202.694 62.36C202.934 61.84 203.054 61.2467 203.054 60.58C203.054 59.9133 202.934 59.3267 202.694 58.82C202.454 58.3 202.127 57.8667 201.714 57.52C201.314 57.16 200.834 56.8933 200.274 56.72C199.727 56.5333 199.134 56.44 198.494 56.44V64.72ZM196.614 66.32C195.761 66.32 194.934 66.1933 194.134 65.94C193.347 65.6867 192.647 65.32 192.034 64.84C191.434 64.3467 190.947 63.7467 190.574 63.04C190.214 62.32 190.034 61.5 190.034 60.58C190.034 59.66 190.214 58.8467 190.574 58.14C190.947 57.4333 191.434 56.84 192.034 56.36C192.647 55.8667 193.347 55.4933 194.134 55.24C194.934 54.9867 195.761 54.8533 196.614 54.84V53.24H198.494V54.84C199.347 54.8533 200.167 54.9867 200.954 55.24C201.741 55.4933 202.441 55.8667 203.054 56.36C203.667 56.84 204.154 57.4333 204.514 58.14C204.887 58.8467 205.074 59.66 205.074 60.58C205.074 61.5 204.887 62.32 204.514 63.04C204.154 63.7467 203.667 64.3467 203.054 64.84C202.441 65.32 201.741 65.6867 200.954 65.94C200.167 66.1933 199.347 66.32 198.494 66.32V68H196.614V66.32ZM196.614 56.44C195.974 56.44 195.374 56.5333 194.814 56.72C194.267 56.8933 193.787 57.16 193.374 57.52C192.974 57.8667 192.654 58.3 192.414 58.82C192.174 59.3267 192.054 59.9133 192.054 60.58C192.054 61.2467 192.174 61.84 192.414 62.36C192.654 62.8667 192.974 63.3 193.374 63.66C193.787 64.0067 194.267 64.2733 194.814 64.46C195.374 64.6333 195.974 64.72 196.614 64.72V56.44ZM211.599 54C213.546 54 215.039 54.3733 216.079 55.12C217.133 55.8533 217.659 56.9533 217.659 58.42C217.659 59.22 217.513 59.9067 217.219 60.48C216.939 61.04 216.526 61.5 215.979 61.86C215.446 62.2067 214.793 62.46 214.019 62.62C213.246 62.78 212.373 62.86 211.399 62.86H209.859V68H207.919V54.34C208.466 54.2067 209.073 54.12 209.739 54.08C210.419 54.0267 211.039 54 211.599 54ZM211.759 55.7C210.933 55.7 210.299 55.72 209.859 55.76V61.2H211.319C211.986 61.2 212.586 61.16 213.119 61.08C213.653 60.9867 214.099 60.84 214.459 60.64C214.833 60.4267 215.119 60.14 215.319 59.78C215.519 59.42 215.619 58.96 215.619 58.4C215.619 57.8667 215.513 57.4267 215.299 57.08C215.099 56.7333 214.819 56.46 214.459 56.26C214.113 56.0467 213.706 55.9 213.239 55.82C212.773 55.74 212.279 55.7 211.759 55.7ZM219.527 61.06C219.527 59.8733 219.701 58.8267 220.047 57.92C220.407 57.0133 220.887 56.26 221.487 55.66C222.101 55.0467 222.807 54.5867 223.607 54.28C224.421 53.9733 225.281 53.82 226.187 53.82C227.081 53.82 227.921 53.9733 228.707 54.28C229.507 54.5867 230.207 55.0467 230.807 55.66C231.407 56.26 231.881 57.0133 232.227 57.92C232.587 58.8267 232.767 59.8733 232.767 61.06C232.767 62.2467 232.587 63.2933 232.227 64.2C231.881 65.1067 231.407 65.8667 230.807 66.48C230.207 67.08 229.507 67.5333 228.707 67.84C227.921 68.1467 227.081 68.3 226.187 68.3C225.281 68.3 224.421 68.1467 223.607 67.84C222.807 67.5333 222.101 67.08 221.487 66.48C220.887 65.8667 220.407 65.1067 220.047 64.2C219.701 63.2933 219.527 62.2467 219.527 61.06ZM221.567 61.06C221.567 61.9 221.674 62.6667 221.887 63.36C222.101 64.04 222.401 64.62 222.787 65.1C223.187 65.58 223.667 65.9533 224.227 66.22C224.801 66.4733 225.441 66.6 226.147 66.6C226.854 66.6 227.487 66.4733 228.047 66.22C228.607 65.9533 229.081 65.58 229.467 65.1C229.867 64.62 230.174 64.04 230.387 63.36C230.601 62.6667 230.707 61.9 230.707 61.06C230.707 60.22 230.601 59.46 230.387 58.78C230.174 58.0867 229.867 57.5 229.467 57.02C229.081 56.54 228.607 56.1733 228.047 55.92C227.487 55.6533 226.854 55.52 226.147 55.52C225.441 55.52 224.801 55.6533 224.227 55.92C223.667 56.1733 223.187 56.54 222.787 57.02C222.401 57.5 222.101 58.0867 221.887 58.78C221.674 59.46 221.567 60.22 221.567 61.06ZM239.394 68.12C239.114 68.12 238.807 68.1133 238.474 68.1C238.154 68.0867 237.827 68.0667 237.494 68.04C237.174 68.0133 236.854 67.98 236.534 67.94C236.214 67.9 235.92 67.8467 235.654 67.78V54.34C235.92 54.2733 236.214 54.22 236.534 54.18C236.854 54.14 237.174 54.1067 237.494 54.08C237.827 54.0533 238.154 54.0333 238.474 54.02C238.794 54.0067 239.094 54 239.374 54C240.174 54 240.92 54.06 241.614 54.18C242.32 54.3 242.927 54.5067 243.434 54.8C243.954 55.08 244.36 55.4533 244.654 55.92C244.947 56.3867 245.094 56.96 245.094 57.64C245.094 58.4 244.914 59.0267 244.554 59.52C244.194 60 243.714 60.36 243.114 60.6C243.927 60.84 244.574 61.22 245.054 61.74C245.534 62.26 245.774 62.9933 245.774 63.94C245.774 65.3267 245.26 66.3733 244.234 67.08C243.22 67.7733 241.607 68.12 239.394 68.12ZM237.574 61.54V66.42C237.72 66.4333 237.894 66.4467 238.094 66.46C238.267 66.4733 238.467 66.4867 238.694 66.5C238.934 66.5 239.207 66.5 239.514 66.5C240.087 66.5 240.627 66.4667 241.134 66.4C241.654 66.32 242.107 66.1867 242.494 66C242.88 65.8133 243.187 65.5533 243.414 65.22C243.654 64.8867 243.774 64.4667 243.774 63.96C243.774 63.5067 243.687 63.1267 243.514 62.82C243.34 62.5 243.087 62.2467 242.754 62.06C242.434 61.8733 242.047 61.74 241.594 61.66C241.14 61.58 240.634 61.54 240.074 61.54H237.574ZM237.574 59.98H239.614C240.094 59.98 240.547 59.9467 240.974 59.88C241.4 59.8133 241.767 59.6933 242.074 59.52C242.394 59.3467 242.64 59.12 242.814 58.84C243 58.56 243.094 58.2067 243.094 57.78C243.094 57.38 243 57.0467 242.814 56.78C242.627 56.5 242.367 56.28 242.034 56.12C241.714 55.9467 241.334 55.82 240.894 55.74C240.454 55.66 239.987 55.62 239.494 55.62C239 55.62 238.614 55.6267 238.334 55.64C238.054 55.6533 237.8 55.6733 237.574 55.7V59.98ZM247.945 61.06C247.945 59.8733 248.118 58.8267 248.465 57.92C248.825 57.0133 249.305 56.26 249.905 55.66C250.518 55.0467 251.225 54.5867 252.025 54.28C252.838 53.9733 253.698 53.82 254.605 53.82C255.498 53.82 256.338 53.9733 257.125 54.28C257.925 54.5867 258.625 55.0467 259.225 55.66C259.825 56.26 260.298 57.0133 260.645 57.92C261.005 58.8267 261.185 59.8733 261.185 61.06C261.185 62.2467 261.005 63.2933 260.645 64.2C260.298 65.1067 259.825 65.8667 259.225 66.48C258.625 67.08 257.925 67.5333 257.125 67.84C256.338 68.1467 255.498 68.3 254.605 68.3C253.698 68.3 252.838 68.1467 252.025 67.84C251.225 67.5333 250.518 67.08 249.905 66.48C249.305 65.8667 248.825 65.1067 248.465 64.2C248.118 63.2933 247.945 62.2467 247.945 61.06ZM249.985 61.06C249.985 61.9 250.092 62.6667 250.305 63.36C250.518 64.04 250.818 64.62 251.205 65.1C251.605 65.58 252.085 65.9533 252.645 66.22C253.218 66.4733 253.858 66.6 254.565 66.6C255.272 66.6 255.905 66.4733 256.465 66.22C257.025 65.9533 257.498 65.58 257.885 65.1C258.285 64.62 258.592 64.04 258.805 63.36C259.018 62.6667 259.125 61.9 259.125 61.06C259.125 60.22 259.018 59.46 258.805 58.78C258.592 58.0867 258.285 57.5 257.885 57.02C257.498 56.54 257.025 56.1733 256.465 55.92C255.905 55.6533 255.272 55.52 254.565 55.52C253.858 55.52 253.218 55.6533 252.645 55.92C252.085 56.1733 251.605 56.54 251.205 57.02C250.818 57.5 250.518 58.0867 250.305 58.78C250.092 59.46 249.985 60.22 249.985 61.06ZM264.072 68V54.14H265.972V64.4C266.398 63.6933 266.918 62.8867 267.532 61.98C268.158 61.0733 268.818 60.1533 269.512 59.22C270.218 58.2733 270.925 57.36 271.632 56.48C272.352 55.5867 273.025 54.8067 273.652 54.14H275.192V68H273.292V57.18C272.918 57.6067 272.512 58.1 272.072 58.66C271.632 59.22 271.178 59.82 270.712 60.46C270.245 61.0867 269.772 61.74 269.292 62.42C268.825 63.1 268.372 63.7733 267.932 64.44C267.492 65.0933 267.078 65.7267 266.692 66.34C266.318 66.9533 265.985 67.5067 265.692 68H264.072ZM269.652 52.8C268.812 52.8 268.125 52.5867 267.592 52.16C267.072 51.7333 266.758 51.14 266.652 50.38L268.072 50C268.178 50.4267 268.358 50.7733 268.612 51.04C268.865 51.3067 269.212 51.44 269.652 51.44C270.092 51.44 270.438 51.3067 270.692 51.04C270.945 50.7733 271.125 50.4267 271.232 50L272.632 50.38C272.525 51.14 272.212 51.7333 271.692 52.16C271.172 52.5867 270.492 52.8 269.652 52.8ZM283.251 68V54.14H285.151V64.4C285.578 63.6933 286.098 62.8867 286.711 61.98C287.338 61.0733 287.998 60.1533 288.691 59.22C289.398 58.2733 290.105 57.36 290.811 56.48C291.531 55.5867 292.205 54.8067 292.831 54.14H294.371V68H292.471V57.18C292.098 57.6067 291.691 58.1 291.251 58.66C290.811 59.22 290.358 59.82 289.891 60.46C289.425 61.0867 288.951 61.74 288.471 62.42C288.005 63.1 287.551 63.7733 287.111 64.44C286.671 65.0933 286.258 65.7267 285.871 66.34C285.498 66.9533 285.165 67.5067 284.871 68H283.251ZM55.66 78.8V82.32H57.38C58.3533 82.32 59.22 82.4 59.98 82.56C60.7533 82.72 61.4067 82.98 61.94 83.34C62.4733 83.6867 62.88 84.14 63.16 84.7C63.44 85.2467 63.58 85.92 63.58 86.72C63.58 88.1867 63.0467 89.2933 61.98 90.04C60.9133 90.7733 59.4067 91.14 57.46 91.14C57.18 91.14 56.8733 91.1333 56.54 91.12C56.22 91.1067 55.8933 91.0867 55.56 91.06C55.24 91.0333 54.92 91 54.6 90.96C54.28 90.92 53.9867 90.8667 53.72 90.8V77.14H62.28V78.8H55.66ZM57.62 89.44C58.14 89.44 58.6333 89.4 59.1 89.32C59.58 89.24 60 89.1 60.36 88.9C60.72 88.6867 61.0067 88.4067 61.22 88.06C61.4333 87.7133 61.54 87.2733 61.54 86.74C61.54 86.18 61.44 85.72 61.24 85.36C61.0533 85 60.78 84.7133 60.42 84.5C60.06 84.2867 59.6133 84.14 59.08 84.06C58.56 83.9667 57.9667 83.92 57.3 83.92H55.66V89.38C55.8067 89.3933 55.98 89.4067 56.18 89.42C56.3533 89.4333 56.56 89.44 56.8 89.44C57.04 89.44 57.3133 89.44 57.62 89.44ZM73.7028 86.66C73.7028 86.1 73.6028 85.6333 73.4028 85.26C73.2028 84.8867 72.9161 84.5933 72.5428 84.38C72.1695 84.1667 71.7228 84.02 71.2028 83.94C70.6961 83.8467 70.1361 83.8 69.5228 83.8C69.2961 83.8 69.0495 83.8 68.7828 83.8C68.5295 83.8 68.2828 83.8133 68.0428 83.84V89.38C68.4961 89.42 68.8361 89.44 69.0628 89.44C69.2895 89.44 69.5561 89.44 69.8628 89.44C70.3561 89.44 70.8361 89.4 71.3028 89.32C71.7695 89.24 72.1761 89.0933 72.5228 88.88C72.8828 88.6667 73.1695 88.3867 73.3828 88.04C73.5961 87.68 73.7028 87.22 73.7028 86.66ZM75.7428 86.66C75.7428 87.4067 75.6028 88.06 75.3228 88.62C75.0428 89.18 74.6428 89.6467 74.1228 90.02C73.6028 90.3933 72.9695 90.6733 72.2228 90.86C71.4761 91.0467 70.6361 91.14 69.7028 91.14C69.1428 91.14 68.5428 91.1133 67.9028 91.06C67.2628 91.02 66.6628 90.9333 66.1028 90.8V77.14H68.0428V82.18C68.2828 82.1533 68.5361 82.14 68.8028 82.14C69.0828 82.1267 69.3428 82.12 69.5828 82.12C73.6895 82.12 75.7428 83.6333 75.7428 86.66ZM77.8428 77.14H79.7828V91H77.8428V77.14ZM92.4917 77.14V78.82H88.1317V91H86.1917V78.82H81.8317V77.14H92.4917ZM93.4334 84.06C93.4334 82.8733 93.6068 81.8267 93.9534 80.92C94.3134 80.0133 94.7934 79.26 95.3934 78.66C96.0068 78.0467 96.7134 77.5867 97.5134 77.28C98.3268 76.9733 99.1868 76.82 100.093 76.82C100.987 76.82 101.827 76.9733 102.613 77.28C103.413 77.5867 104.113 78.0467 104.713 78.66C105.313 79.26 105.787 80.0133 106.133 80.92C106.493 81.8267 106.673 82.8733 106.673 84.06C106.673 85.2467 106.493 86.2933 106.133 87.2C105.787 88.1067 105.313 88.8667 104.713 89.48C104.113 90.08 103.413 90.5333 102.613 90.84C101.827 91.1467 100.987 91.3 100.093 91.3C99.1868 91.3 98.3268 91.1467 97.5134 90.84C96.7134 90.5333 96.0068 90.08 95.3934 89.48C94.7934 88.8667 94.3134 88.1067 93.9534 87.2C93.6068 86.2933 93.4334 85.2467 93.4334 84.06ZM95.4734 84.06C95.4734 84.9 95.5801 85.6667 95.7934 86.36C96.0068 87.04 96.3068 87.62 96.6934 88.1C97.0934 88.58 97.5734 88.9533 98.1334 89.22C98.7068 89.4733 99.3468 89.6 100.053 89.6C100.76 89.6 101.393 89.4733 101.953 89.22C102.513 88.9533 102.987 88.58 103.373 88.1C103.773 87.62 104.08 87.04 104.293 86.36C104.507 85.6667 104.613 84.9 104.613 84.06C104.613 83.22 104.507 82.46 104.293 81.78C104.08 81.0867 103.773 80.5 103.373 80.02C102.987 79.54 102.513 79.1733 101.953 78.92C101.393 78.6533 100.76 78.52 100.053 78.52C99.3468 78.52 98.7068 78.6533 98.1334 78.92C97.5734 79.1733 97.0934 79.54 96.6934 80.02C96.3068 80.5 96.0068 81.0867 95.7934 81.78C95.5801 82.46 95.4734 83.22 95.4734 84.06ZM113.3 91.12C113.02 91.12 112.713 91.1133 112.38 91.1C112.06 91.0867 111.733 91.0667 111.4 91.04C111.08 91.0133 110.76 90.98 110.44 90.94C110.12 90.9 109.827 90.8467 109.56 90.78V77.34C109.827 77.2733 110.12 77.22 110.44 77.18C110.76 77.14 111.08 77.1067 111.4 77.08C111.733 77.0533 112.06 77.0333 112.38 77.02C112.7 77.0067 113 77 113.28 77C114.08 77 114.827 77.06 115.52 77.18C116.227 77.3 116.833 77.5067 117.34 77.8C117.86 78.08 118.267 78.4533 118.56 78.92C118.853 79.3867 119 79.96 119 80.64C119 81.4 118.82 82.0267 118.46 82.52C118.1 83 117.62 83.36 117.02 83.6C117.833 83.84 118.48 84.22 118.96 84.74C119.44 85.26 119.68 85.9933 119.68 86.94C119.68 88.3267 119.167 89.3733 118.14 90.08C117.127 90.7733 115.513 91.12 113.3 91.12ZM111.48 84.54V89.42C111.627 89.4333 111.8 89.4467 112 89.46C112.173 89.4733 112.373 89.4867 112.6 89.5C112.84 89.5 113.113 89.5 113.42 89.5C113.993 89.5 114.533 89.4667 115.04 89.4C115.56 89.32 116.013 89.1867 116.4 89C116.787 88.8133 117.093 88.5533 117.32 88.22C117.56 87.8867 117.68 87.4667 117.68 86.96C117.68 86.5067 117.593 86.1267 117.42 85.82C117.247 85.5 116.993 85.2467 116.66 85.06C116.34 84.8733 115.953 84.74 115.5 84.66C115.047 84.58 114.54 84.54 113.98 84.54H111.48ZM111.48 82.98H113.52C114 82.98 114.453 82.9467 114.88 82.88C115.307 82.8133 115.673 82.6933 115.98 82.52C116.3 82.3467 116.547 82.12 116.72 81.84C116.907 81.56 117 81.2067 117 80.78C117 80.38 116.907 80.0467 116.72 79.78C116.533 79.5 116.273 79.28 115.94 79.12C115.62 78.9467 115.24 78.82 114.8 78.74C114.36 78.66 113.893 78.62 113.4 78.62C112.907 78.62 112.52 78.6267 112.24 78.64C111.96 78.6533 111.707 78.6733 111.48 78.7V82.98ZM121.851 84.06C121.851 82.8733 122.025 81.8267 122.371 80.92C122.731 80.0133 123.211 79.26 123.811 78.66C124.425 78.0467 125.131 77.5867 125.931 77.28C126.745 76.9733 127.605 76.82 128.511 76.82C129.405 76.82 130.245 76.9733 131.031 77.28C131.831 77.5867 132.531 78.0467 133.131 78.66C133.731 79.26 134.205 80.0133 134.551 80.92C134.911 81.8267 135.091 82.8733 135.091 84.06C135.091 85.2467 134.911 86.2933 134.551 87.2C134.205 88.1067 133.731 88.8667 133.131 89.48C132.531 90.08 131.831 90.5333 131.031 90.84C130.245 91.1467 129.405 91.3 128.511 91.3C127.605 91.3 126.745 91.1467 125.931 90.84C125.131 90.5333 124.425 90.08 123.811 89.48C123.211 88.8667 122.731 88.1067 122.371 87.2C122.025 86.2933 121.851 85.2467 121.851 84.06ZM123.891 84.06C123.891 84.9 123.998 85.6667 124.211 86.36C124.425 87.04 124.725 87.62 125.111 88.1C125.511 88.58 125.991 88.9533 126.551 89.22C127.125 89.4733 127.765 89.6 128.471 89.6C129.178 89.6 129.811 89.4733 130.371 89.22C130.931 88.9533 131.405 88.58 131.791 88.1C132.191 87.62 132.498 87.04 132.711 86.36C132.925 85.6667 133.031 84.9 133.031 84.06C133.031 83.22 132.925 82.46 132.711 81.78C132.498 81.0867 132.191 80.5 131.791 80.02C131.405 79.54 130.931 79.1733 130.371 78.92C129.811 78.6533 129.178 78.52 128.471 78.52C127.765 78.52 127.125 78.6533 126.551 78.92C125.991 79.1733 125.511 79.54 125.111 80.02C124.725 80.5 124.425 81.0867 124.211 81.78C123.998 82.46 123.891 83.22 123.891 84.06ZM137.978 91V77.14H139.878V87.4C140.304 86.6933 140.824 85.8867 141.438 84.98C142.064 84.0733 142.724 83.1533 143.418 82.22C144.124 81.2733 144.831 80.36 145.538 79.48C146.258 78.5867 146.931 77.8067 147.558 77.14H149.098V91H147.198V80.18C146.824 80.6067 146.418 81.1 145.978 81.66C145.538 82.22 145.084 82.82 144.618 83.46C144.151 84.0867 143.678 84.74 143.198 85.42C142.731 86.1 142.278 86.7733 141.838 87.44C141.398 88.0933 140.984 88.7267 140.598 89.34C140.224 89.9533 139.891 90.5067 139.598 91H137.978ZM143.558 75.8C142.718 75.8 142.031 75.5867 141.498 75.16C140.978 74.7333 140.664 74.14 140.558 73.38L141.978 73C142.084 73.4267 142.264 73.7733 142.518 74.04C142.771 74.3067 143.118 74.44 143.558 74.44C143.998 74.44 144.344 74.3067 144.598 74.04C144.851 73.7733 145.031 73.4267 145.138 73L146.538 73.38C146.431 74.14 146.118 74.7333 145.598 75.16C145.078 75.5867 144.398 75.8 143.558 75.8ZM166.418 77.14V78.82H162.058V91H160.118V78.82H155.758V77.14H166.418ZM168.466 91V77.14H176.926V78.8H170.406V82.92H176.206V84.54H170.406V89.34H177.426V91H168.466ZM188.212 91C188.012 90.6 187.772 90.16 187.492 89.68C187.212 89.1867 186.905 88.68 186.572 88.16C186.239 87.6267 185.892 87.1 185.532 86.58C185.172 86.0467 184.825 85.5467 184.492 85.08C184.159 85.5467 183.812 86.0467 183.452 86.58C183.092 87.1 182.745 87.6267 182.412 88.16C182.092 88.68 181.785 89.1867 181.492 89.68C181.212 90.16 180.972 90.6 180.772 91H178.632C179.232 89.8267 179.925 88.6333 180.712 87.42C181.512 86.2067 182.359 84.96 183.252 83.68L178.812 77.14H181.052L184.472 82.3L187.852 77.14H190.072L185.712 83.6C186.619 84.8933 187.472 86.1533 188.272 87.38C189.072 88.6067 189.779 89.8133 190.392 91H188.212ZM201.229 77.14H203.169V91H201.229V84.6H194.449V91H192.509V77.14H194.449V82.92H201.229V77.14ZM206.611 91V77.14H208.511V87.4C208.937 86.6933 209.457 85.8867 210.071 84.98C210.697 84.0733 211.357 83.1533 212.051 82.22C212.757 81.2733 213.464 80.36 214.171 79.48C214.891 78.5867 215.564 77.8067 216.191 77.14H217.731V91H215.831V80.18C215.457 80.6067 215.051 81.1 214.611 81.66C214.171 82.22 213.717 82.82 213.251 83.46C212.784 84.0867 212.311 84.74 211.831 85.42C211.364 86.1 210.911 86.7733 210.471 87.44C210.031 88.0933 209.617 88.7267 209.231 89.34C208.857 89.9533 208.524 90.5067 208.231 91H206.611ZM231.421 77.14C231.008 77.5933 230.541 78.1 230.021 78.66C229.501 79.2067 228.955 79.7733 228.381 80.36C227.821 80.9333 227.261 81.5 226.701 82.06C226.141 82.62 225.615 83.14 225.121 83.62C225.695 84.02 226.301 84.5133 226.941 85.1C227.581 85.6867 228.208 86.3133 228.821 86.98C229.435 87.6467 230.008 88.3267 230.541 89.02C231.088 89.7133 231.541 90.3733 231.901 91H229.621C229.221 90.3733 228.761 89.7467 228.241 89.12C227.721 88.48 227.168 87.8733 226.581 87.3C226.008 86.7133 225.421 86.1733 224.821 85.68C224.235 85.1867 223.661 84.7667 223.101 84.42V91H221.161V77.14H223.101V83.26C223.568 82.82 224.081 82.3267 224.641 81.78C225.201 81.22 225.755 80.66 226.301 80.1C226.848 79.54 227.361 79.0067 227.841 78.5C228.335 77.98 228.748 77.5267 229.081 77.14H231.421ZM232.476 84.06C232.476 82.8733 232.65 81.8267 232.996 80.92C233.356 80.0133 233.836 79.26 234.436 78.66C235.05 78.0467 235.756 77.5867 236.556 77.28C237.37 76.9733 238.23 76.82 239.136 76.82C240.03 76.82 240.87 76.9733 241.656 77.28C242.456 77.5867 243.156 78.0467 243.756 78.66C244.356 79.26 244.83 80.0133 245.176 80.92C245.536 81.8267 245.716 82.8733 245.716 84.06C245.716 85.2467 245.536 86.2933 245.176 87.2C244.83 88.1067 244.356 88.8667 243.756 89.48C243.156 90.08 242.456 90.5333 241.656 90.84C240.87 91.1467 240.03 91.3 239.136 91.3C238.23 91.3 237.37 91.1467 236.556 90.84C235.756 90.5333 235.05 90.08 234.436 89.48C233.836 88.8667 233.356 88.1067 232.996 87.2C232.65 86.2933 232.476 85.2467 232.476 84.06ZM234.516 84.06C234.516 84.9 234.623 85.6667 234.836 86.36C235.05 87.04 235.35 87.62 235.736 88.1C236.136 88.58 236.616 88.9533 237.176 89.22C237.75 89.4733 238.39 89.6 239.096 89.6C239.803 89.6 240.436 89.4733 240.996 89.22C241.556 88.9533 242.03 88.58 242.416 88.1C242.816 87.62 243.123 87.04 243.336 86.36C243.55 85.6667 243.656 84.9 243.656 84.06C243.656 83.22 243.55 82.46 243.336 81.78C243.123 81.0867 242.816 80.5 242.416 80.02C242.03 79.54 241.556 79.1733 240.996 78.92C240.436 78.6533 239.803 78.52 239.096 78.52C238.39 78.52 237.75 78.6533 237.176 78.92C236.616 79.1733 236.136 79.54 235.736 80.02C235.35 80.5 235.05 81.0867 234.836 81.78C234.623 82.46 234.516 83.22 234.516 84.06ZM248.603 91V77.14H250.503V87.4C250.929 86.6933 251.449 85.8867 252.063 84.98C252.689 84.0733 253.349 83.1533 254.043 82.22C254.749 81.2733 255.456 80.36 256.163 79.48C256.883 78.5867 257.556 77.8067 258.183 77.14H259.723V91H257.823V80.18C257.449 80.6067 257.043 81.1 256.603 81.66C256.163 82.22 255.709 82.82 255.243 83.46C254.776 84.0867 254.303 84.74 253.823 85.42C253.356 86.1 252.903 86.7733 252.463 87.44C252.023 88.0933 251.609 88.7267 251.223 89.34C250.849 89.9533 250.516 90.5067 250.223 91H248.603ZM254.183 75.8C253.343 75.8 252.656 75.5867 252.123 75.16C251.603 74.7333 251.289 74.14 251.183 73.38L252.603 73C252.709 73.4267 252.889 73.7733 253.143 74.04C253.396 74.3067 253.743 74.44 254.183 74.44C254.623 74.44 254.969 74.3067 255.223 74.04C255.476 73.7733 255.656 73.4267 255.763 73L257.163 73.38C257.056 74.14 256.743 74.7333 256.223 75.16C255.703 75.5867 255.023 75.8 254.183 75.8Z" fill="#FCEE0A"/>
</svg>
