<svg width="464" height="130" viewBox="0 0 464 130" fill="none" xmlns="http://www.w3.org/2000/svg">
<path d="M312.497 4.15617C314.841 6.26873 316.954 7.45269 319.484 8.10271M312.497 4.15617C311.197 2.99542 309.85 2.04361 308.782 1.50966M312.497 4.15617L312.164 4.52914C312.163 4.52883 312.163 4.52853 312.163 4.52823M312.497 4.15617L312.162 4.52763C312.162 4.52783 312.162 4.52803 312.163 4.52823M319.484 8.10271L29.7384 1.20786M319.484 8.10271C321.225 8.5438 322.177 8.56701 350.314 8.56701C374.922 8.56702 379.611 8.49737 380.981 8.21879L319.484 8.10271ZM308.782 1.50966C308.419 1.33309 308.193 1.17672 307.956 1.03832C305.953 -0.133422 303.196 -0.0176201 210.304 0.023901M308.782 1.50966L308.559 1.95688C308.559 1.95728 308.56 1.95771 308.561 1.95811M308.782 1.50966L308.563 1.95928C308.563 1.95889 308.562 1.9585 308.561 1.95811M210.304 0.023901L116.562 0.0935418M210.304 0.023901L210.305 0.523901M210.304 0.023901L210.305 0.523901L210.305 0.523901M116.562 0.0935418L114.937 0.743561C112.384 1.76502 111.432 2.43825 108.507 5.20083M116.562 0.0935418L116.563 0.593542L116.659 0.59347L116.748 0.557781L116.562 0.0935418ZM108.507 5.20083C106.464 7.17411 105.349 8.03306 103.957 8.75272M108.507 5.20083L108.85 5.56434C108.851 5.56371 108.851 5.56306 108.852 5.56243C108.853 5.56177 108.853 5.56112 108.854 5.56046L108.507 5.20083ZM103.957 8.75272C103.435 9.0278 103.037 9.25773 102.62 9.44991C100.367 10.4904 97.6031 10.4242 72.1289 10.4242C46.6364 10.4242 44.1107 10.4756 42.0197 9.54757C41.6771 9.39554 41.3463 9.21722 40.928 9.00808M103.957 8.75272L104.186 9.19694C104.186 9.19677 104.187 9.19661 104.187 9.19645C104.188 9.19594 104.189 9.19543 104.19 9.19492L103.957 8.75272ZM40.928 9.00808C39.0476 8.07949 38.3976 7.59197 36.1225 5.43298C33.6385 3.06505 32.1063 2.0436 29.7384 1.20786M40.928 9.00808L40.7044 9.4553C40.7051 9.45567 40.7058 9.45603 40.7066 9.4564L40.928 9.00808ZM29.7384 1.20786L29.572 1.67935L29.5732 1.67979L29.7384 1.20786ZM210.305 0.523901C218.55 0.520215 226.084 0.515946 232.971 0.512043C269.466 0.491362 287.773 0.480987 297.196 0.622512C302.811 0.706841 305.234 0.845292 306.466 1.05851C307.26 1.19581 307.485 1.33524 307.842 1.55661C308.02 1.66685 308.231 1.79739 308.561 1.95811M210.305 0.523901L392.11 2.16849C391.166 2.62998 389.812 3.57389 388.629 4.64318L388.628 4.64427C386.301 6.73319 383.647 8.17609 381.082 8.70836L381.08 8.70876C380.338 8.85986 378.764 8.94537 374.367 8.99734C369.944 9.04961 362.617 9.06702 350.314 9.06701C336.248 9.06701 328.971 9.06123 324.993 9.00021C321.021 8.93928 320.295 8.82386 319.362 8.5874L319.36 8.58699C316.738 7.91353 314.556 6.68441 312.163 4.52823M308.561 1.95811C309.577 2.46635 310.885 3.38771 312.163 4.52823M197.22 127.047C197.58 127.22 197.795 127.358 197.974 127.473C198.311 127.689 198.521 127.824 199.347 127.962C200.651 128.18 203.278 128.322 209.45 128.411C219.881 128.56 240.33 128.558 281.361 128.554C288.766 128.553 296.841 128.553 305.648 128.553C314.445 128.553 322.51 128.553 329.906 128.554C370.894 128.558 391.335 128.56 401.771 128.411C407.945 128.322 410.58 128.18 411.891 127.962C412.725 127.824 412.939 127.687 413.281 127.469C413.461 127.354 413.675 127.218 414.031 127.047L414.034 127.045C414.836 126.665 415.331 126.41 418.379 123.483C421.424 120.56 426.973 115.016 437.875 104.114C438.828 103.162 439.741 102.249 440.617 101.373C450.912 91.0801 456.021 85.9724 458.658 83.0373C460.088 81.4445 460.76 80.5248 461.139 79.7875C461.449 79.1843 461.569 78.6979 461.743 77.9954C461.78 77.8441 461.82 77.6828 461.865 77.5082C462.093 76.606 462.244 75.4069 462.407 70.6586C462.569 65.9245 462.743 57.7051 463.033 42.7997C463.084 40.0837 463.142 37.0996 463.197 34.2077C463.293 29.2134 463.384 24.4943 463.428 21.9071L463.428 21.9044C463.614 13.5891 463.465 11.7491 462.65 9.67962L0.544402 14.2999C0.544402 14.3003 0.54428 14.3007 0.54428 14.3011C0.535186 14.4048 0.526214 14.962 0.519592 15.9292C0.513061 16.8823 0.508727 18.2009 0.505828 19.7894C0.499999 22.9661 0.499999 27.2193 0.499999 31.7807M197.22 127.047C197.22 127.047 197.22 127.047 197.22 127.047L197.002 127.497L197.219 127.047C197.219 127.047 197.219 127.047 197.22 127.047ZM197.22 127.047C195.776 126.347 195.071 125.764 190.736 121.522L190.735 121.522C188.175 119.019 186.585 117.527 185.26 116.529C183.916 115.516 182.846 115.014 181.341 114.468L181.343 114.469L181.17 114.938M181.17 114.938L181.34 114.468L179.648 113.842L179.565 113.811L179.476 113.811L138.571 113.742C136.197 113.738 133.955 113.734 131.836 113.731C113.543 113.701 104.47 113.686 99.6296 113.858C96.9342 113.954 95.5077 114.108 94.5192 114.365C93.7545 114.563 93.2455 114.829 92.663 115.133C92.4866 115.225 92.3036 115.32 92.1046 115.418C90.1863 116.365 89.5729 116.891 84.9651 121.406L84.9642 121.407C80.4457 125.855 79.83 126.373 78.1966 127.189L78.1953 127.19C78.1113 127.232 78.0303 127.273 77.9519 127.313C77.2306 127.677 76.7245 127.933 76.072 128.13C75.351 128.348 74.4336 128.498 72.8607 128.597C69.869 128.786 64.6262 128.785 54.0991 128.785L52.3033 128.785C43.6201 128.785 38.3196 128.767 35.0277 128.715C31.714 128.663 30.4812 128.574 29.8896 128.448L29.8879 128.447C25.3319 127.487 21.5126 124.132 19.6645 119.399M181.17 114.938L179.475 114.311L138.57 114.242C98.9924 114.181 95.9925 114.104 93.5605 115.241C93.1808 115.418 92.815 115.625 92.3259 115.867C90.4919 116.772 89.9348 117.236 85.315 121.763C80.8113 126.197 80.1381 126.778 78.4202 127.637C77.8632 127.917 77.4175 128.15 76.9553 128.343C74.6236 129.317 71.8712 129.285 52.3033 129.285C34.9385 129.285 31.0849 129.215 29.7848 128.937M181.17 114.938C184.118 116.006 185.255 116.865 190.386 121.879L29.7848 128.937M19.6645 119.399L19.0946 117.93M19.6645 119.399L19.6649 119.4L19.1988 119.581M19.6645 119.399L19.1988 119.581M19.0946 117.93L18.9559 96.0842C18.9477 94.6556 18.9405 93.3148 18.9337 92.0563C18.8822 82.5522 18.8561 77.7344 18.6704 74.9747C18.5648 73.4062 18.4059 72.4632 18.1467 71.6862C17.9414 71.0708 17.6731 70.5664 17.3551 69.9684C17.277 69.8214 17.1958 69.6688 17.1119 69.5076M19.0946 117.93L19.0952 118.022L18.5952 118.026M19.0946 117.93L19.0613 117.845L18.5952 118.026M17.1119 69.5076C16.3482 68.03 15.1821 66.7552 9.54956 61.0304L9.54937 61.0302C3.48385 54.8713 2.88873 54.175 2.16775 52.6893L2.1669 52.6875C2.0932 52.5371 2.02344 52.3961 1.95727 52.2624C1.62411 51.5889 1.38315 51.1017 1.19476 50.5489C0.973539 49.8996 0.822813 49.1485 0.7218 47.9105C0.532896 45.5958 0.523588 41.6812 0.504759 33.7516C0.503264 33.1205 0.501708 32.4639 0.499999 31.7807M17.1119 69.5076C17.1121 69.508 17.1123 69.5085 17.1126 69.5089L16.6684 69.7384M17.1119 69.5076L16.6684 69.7384M0.499999 31.7807C0.499999 31.7811 0.499999 31.7815 0.499999 31.782L-1.38923e-06 31.782L0.499999 31.7807ZM16.6684 69.7384C16.9859 70.3485 17.2426 70.7998 17.4507 71.2725C18.3992 73.4262 18.3417 76.0228 18.4559 96.0874L18.5952 118.026M16.6684 69.7384C15.9487 68.3455 14.8576 67.1384 9.19314 61.381C3.15725 55.2523 2.48401 54.4862 1.71792 52.9076L18.5952 118.026M18.5952 118.026L19.1988 119.581M18.5952 118.026L19.1988 119.581M29.7848 128.937C25.049 127.938 21.1024 124.456 19.1988 119.581M29.7848 128.937L19.1988 119.581M384.167 99.0634L384.167 99.0637C376.844 106.41 367.477 110.941 357.151 112.161L357.093 111.665L357.151 112.161C355.639 112.34 353.107 112.374 350.627 112.301C348.149 112.228 345.667 112.048 344.257 111.785C343.1 111.572 340.948 111.058 339.448 110.612C322.521 105.728 309.847 91.1048 307.359 73.5706C307.168 72.2458 307.063 69.8484 307.046 67.4845C307.029 65.1209 307.098 62.7355 307.265 61.4339C307.265 61.4337 307.265 61.4336 307.265 61.4334L307.761 61.4971C309.084 51.12 314.632 40.6965 322.433 33.8481L384.167 99.0634ZM384.167 99.0634C398.839 84.321 401.517 61.0592 390.528 43.4957L390.528 43.4956C386.914 37.723 381.847 32.6078 376.28 29.0844L376.279 29.0839C370.317 25.328 364.163 23.1916 356.826 22.3476L384.167 99.0634ZM27.7962 1.05784L27.8812 1.05784L27.8812 0.557837L27.716 1.02977L27.7962 1.05784ZM4.28787 5.4966C6.04617 3.62563 7.76547 2.48858 10.1214 1.68083L11.9459 1.05784L4.28787 5.4966Z" stroke="#FCEE0A"/>
<path d="M43.4 45C45.3467 45 46.84 45.3733 47.88 46.12C48.9333 46.8533 49.46 47.9533 49.46 49.42C49.46 50.22 49.3133 50.9067 49.02 51.48C48.74 52.04 48.3267 52.5 47.78 52.86C47.2467 53.2067 46.5933 53.46 45.82 53.62C45.0467 53.78 44.1733 53.86 43.2 53.86H41.66V59H39.72V45.34C40.2667 45.2067 40.8733 45.12 41.54 45.08C42.22 45.0267 42.84 45 43.4 45ZM43.56 46.7C42.7333 46.7 42.1 46.72 41.66 46.76V52.2H43.12C43.7867 52.2 44.3867 52.16 44.92 52.08C45.4533 51.9867 45.9 51.84 46.26 51.64C46.6333 51.4267 46.92 51.14 47.12 50.78C47.32 50.42 47.42 49.96 47.42 49.4C47.42 48.8667 47.3133 48.4267 47.1 48.08C46.9 47.7333 46.62 47.46 46.26 47.26C45.9133 47.0467 45.5067 46.9 45.04 46.82C44.5733 46.74 44.08 46.7 43.56 46.7ZM60.1519 59C59.9252 58.4 59.7119 57.8133 59.5119 57.24C59.3119 56.6533 59.1052 56.06 58.8919 55.46H52.6119L51.3519 59H49.3319C49.8652 57.5333 50.3652 56.18 50.8319 54.94C51.2985 53.6867 51.7519 52.5 52.1919 51.38C52.6452 50.26 53.0919 49.1933 53.5319 48.18C53.9719 47.1533 54.4319 46.14 54.9119 45.14H56.6919C57.1719 46.14 57.6319 47.1533 58.0719 48.18C58.5119 49.1933 58.9519 50.26 59.3919 51.38C59.8452 52.5 60.3052 53.6867 60.7719 54.94C61.2385 56.18 61.7385 57.5333 62.2719 59H60.1519ZM58.3319 53.86C57.9052 52.7 57.4785 51.58 57.0519 50.5C56.6385 49.4067 56.2052 48.36 55.7519 47.36C55.2852 48.36 54.8385 49.4067 54.4119 50.5C53.9985 51.58 53.5852 52.7 53.1719 53.86H58.3319ZM65.6461 50.9H66.6861C67.1261 50.9 67.5728 50.8667 68.0261 50.8C68.4794 50.7333 68.8928 50.6133 69.2661 50.44C69.6394 50.2533 69.9461 50.0067 70.1861 49.7C70.4261 49.3933 70.5461 49.0067 70.5461 48.54C70.5461 47.94 70.2861 47.4533 69.7661 47.08C69.2594 46.6933 68.5794 46.5 67.7261 46.5C66.9928 46.5 66.3328 46.5867 65.7461 46.76C65.1594 46.92 64.7261 47.0867 64.4461 47.26L63.8261 45.68C63.9861 45.5733 64.1994 45.4733 64.4661 45.38C64.7461 45.2733 65.0528 45.18 65.3861 45.1C65.7328 45.02 66.1061 44.96 66.5061 44.92C66.9061 44.8667 67.3194 44.84 67.7461 44.84C68.4394 44.84 69.0794 44.9133 69.6661 45.06C70.2528 45.2067 70.7594 45.4333 71.1861 45.74C71.6128 46.0333 71.9461 46.4133 72.1861 46.88C72.4261 47.3333 72.5461 47.8733 72.5461 48.5C72.5461 49.14 72.3394 49.74 71.9261 50.3C71.5261 50.86 70.9328 51.2667 70.1461 51.52C70.5461 51.6267 70.9261 51.78 71.2861 51.98C71.6594 52.1667 71.9794 52.4133 72.2461 52.72C72.5261 53.0133 72.7461 53.36 72.9061 53.76C73.0794 54.16 73.1661 54.6267 73.1661 55.16C73.1661 55.8933 73.0261 56.5267 72.7461 57.06C72.4794 57.58 72.0994 58.0067 71.6061 58.34C71.1261 58.6733 70.5394 58.9133 69.8461 59.06C69.1528 59.22 68.3861 59.3 67.5461 59.3C67.0394 59.3 66.5594 59.26 66.1061 59.18C65.6528 59.1133 65.2461 59.0333 64.8861 58.94C64.5261 58.8333 64.2128 58.72 63.9461 58.6C63.6794 58.48 63.4728 58.38 63.3261 58.3L63.9061 56.7C64.0528 56.78 64.2461 56.8733 64.4861 56.98C64.7394 57.0867 65.0194 57.1867 65.3261 57.28C65.6328 57.3733 65.9728 57.4533 66.3461 57.52C66.7194 57.5867 67.1128 57.62 67.5261 57.62C68.6594 57.62 69.5394 57.4333 70.1661 57.06C70.8061 56.6733 71.1261 56.0267 71.1261 55.12C71.1261 54.5867 71.0128 54.1533 70.7861 53.82C70.5728 53.4733 70.2728 53.2 69.8861 53C69.5128 52.8 69.0661 52.6667 68.5461 52.6C68.0394 52.52 67.4861 52.48 66.8861 52.48H65.6461V50.9ZM79.5914 45C81.5381 45 83.0314 45.3733 84.0714 46.12C85.1247 46.8533 85.6514 47.9533 85.6514 49.42C85.6514 50.22 85.5047 50.9067 85.2114 51.48C84.9314 52.04 84.5181 52.5 83.9714 52.86C83.4381 53.2067 82.7847 53.46 82.0114 53.62C81.2381 53.78 80.3647 53.86 79.3914 53.86H77.8514V59H75.9114V45.34C76.4581 45.2067 77.0647 45.12 77.7314 45.08C78.4114 45.0267 79.0314 45 79.5914 45ZM79.7514 46.7C78.9247 46.7 78.2914 46.72 77.8514 46.76V52.2H79.3114C79.9781 52.2 80.5781 52.16 81.1114 52.08C81.6447 51.9867 82.0914 51.84 82.4514 51.64C82.8247 51.4267 83.1114 51.14 83.3114 50.78C83.5114 50.42 83.6114 49.96 83.6114 49.4C83.6114 48.8667 83.5047 48.4267 83.2914 48.08C83.0914 47.7333 82.8114 47.46 82.4514 47.26C82.1047 47.0467 81.6981 46.9 81.2314 46.82C80.7647 46.74 80.2714 46.7 79.7514 46.7ZM96.3433 59C96.1166 58.4 95.9033 57.8133 95.7033 57.24C95.5033 56.6533 95.2966 56.06 95.0833 55.46H88.8033L87.5433 59H85.5233C86.0566 57.5333 86.5566 56.18 87.0233 54.94C87.4899 53.6867 87.9433 52.5 88.3833 51.38C88.8366 50.26 89.2833 49.1933 89.7233 48.18C90.1633 47.1533 90.6233 46.14 91.1033 45.14H92.8833C93.3633 46.14 93.8233 47.1533 94.2633 48.18C94.7033 49.1933 95.1433 50.26 95.5833 51.38C96.0366 52.5 96.4966 53.6867 96.9633 54.94C97.4299 56.18 97.9299 57.5333 98.4633 59H96.3433ZM94.5233 53.86C94.0966 52.7 93.6699 51.58 93.2433 50.5C92.8299 49.4067 92.3966 48.36 91.9433 47.36C91.4766 48.36 91.0299 49.4067 90.6033 50.5C90.1899 51.58 89.7766 52.7 89.3633 53.86H94.5233ZM102.285 46.8V50.32H104.005C104.978 50.32 105.845 50.4 106.605 50.56C107.378 50.72 108.032 50.98 108.565 51.34C109.098 51.6867 109.505 52.14 109.785 52.7C110.065 53.2467 110.205 53.92 110.205 54.72C110.205 56.1867 109.672 57.2933 108.605 58.04C107.538 58.7733 106.032 59.14 104.085 59.14C103.805 59.14 103.498 59.1333 103.165 59.12C102.845 59.1067 102.518 59.0867 102.185 59.06C101.865 59.0333 101.545 59 101.225 58.96C100.905 58.92 100.612 58.8667 100.345 58.8V45.14H108.905V46.8H102.285ZM104.245 57.44C104.765 57.44 105.258 57.4 105.725 57.32C106.205 57.24 106.625 57.1 106.985 56.9C107.345 56.6867 107.632 56.4067 107.845 56.06C108.058 55.7133 108.165 55.2733 108.165 54.74C108.165 54.18 108.065 53.72 107.865 53.36C107.678 53 107.405 52.7133 107.045 52.5C106.685 52.2867 106.238 52.14 105.705 52.06C105.185 51.9667 104.592 51.92 103.925 51.92H102.285V57.38C102.432 57.3933 102.605 57.4067 102.805 57.42C102.978 57.4333 103.185 57.44 103.425 57.44C103.665 57.44 103.938 57.44 104.245 57.44ZM112.168 52.06C112.168 50.8733 112.341 49.8267 112.688 48.92C113.048 48.0133 113.528 47.26 114.128 46.66C114.741 46.0467 115.448 45.5867 116.248 45.28C117.061 44.9733 117.921 44.82 118.828 44.82C119.721 44.82 120.561 44.9733 121.348 45.28C122.148 45.5867 122.848 46.0467 123.448 46.66C124.048 47.26 124.521 48.0133 124.868 48.92C125.228 49.8267 125.408 50.8733 125.408 52.06C125.408 53.2467 125.228 54.2933 124.868 55.2C124.521 56.1067 124.048 56.8667 123.448 57.48C122.848 58.08 122.148 58.5333 121.348 58.84C120.561 59.1467 119.721 59.3 118.828 59.3C117.921 59.3 117.061 59.1467 116.248 58.84C115.448 58.5333 114.741 58.08 114.128 57.48C113.528 56.8667 113.048 56.1067 112.688 55.2C112.341 54.2933 112.168 53.2467 112.168 52.06ZM114.208 52.06C114.208 52.9 114.314 53.6667 114.528 54.36C114.741 55.04 115.041 55.62 115.428 56.1C115.828 56.58 116.308 56.9533 116.868 57.22C117.441 57.4733 118.081 57.6 118.788 57.6C119.494 57.6 120.128 57.4733 120.688 57.22C121.248 56.9533 121.721 56.58 122.108 56.1C122.508 55.62 122.814 55.04 123.028 54.36C123.241 53.6667 123.348 52.9 123.348 52.06C123.348 51.22 123.241 50.46 123.028 49.78C122.814 49.0867 122.508 48.5 122.108 48.02C121.721 47.54 121.248 47.1733 120.688 46.92C120.128 46.6533 119.494 46.52 118.788 46.52C118.081 46.52 117.441 46.6533 116.868 46.92C116.308 47.1733 115.828 47.54 115.428 48.02C115.041 48.5 114.741 49.0867 114.528 49.78C114.314 50.46 114.208 51.22 114.208 52.06ZM137.007 45.14V46.82H132.647V59H130.707V46.82H126.347V45.14H137.007ZM149.316 45.14C148.903 45.5933 148.436 46.1 147.916 46.66C147.396 47.2067 146.849 47.7733 146.276 48.36C145.716 48.9333 145.156 49.5 144.596 50.06C144.036 50.62 143.509 51.14 143.016 51.62C143.589 52.02 144.196 52.5133 144.836 53.1C145.476 53.6867 146.103 54.3133 146.716 54.98C147.329 55.6467 147.903 56.3267 148.436 57.02C148.983 57.7133 149.436 58.3733 149.796 59H147.516C147.116 58.3733 146.656 57.7467 146.136 57.12C145.616 56.48 145.063 55.8733 144.476 55.3C143.903 54.7133 143.316 54.1733 142.716 53.68C142.129 53.1867 141.556 52.7667 140.996 52.42V59H139.056V45.14H140.996V51.26C141.463 50.82 141.976 50.3267 142.536 49.78C143.096 49.22 143.649 48.66 144.196 48.1C144.743 47.54 145.256 47.0067 145.736 46.5C146.229 45.98 146.643 45.5267 146.976 45.14H149.316ZM161.578 59C161.351 58.4 161.138 57.8133 160.938 57.24C160.738 56.6533 160.531 56.06 160.318 55.46H154.038L152.778 59H150.758C151.291 57.5333 151.791 56.18 152.258 54.94C152.724 53.6867 153.178 52.5 153.618 51.38C154.071 50.26 154.518 49.1933 154.958 48.18C155.398 47.1533 155.858 46.14 156.338 45.14H158.118C158.598 46.14 159.058 47.1533 159.498 48.18C159.938 49.1933 160.378 50.26 160.818 51.38C161.271 52.5 161.731 53.6867 162.198 54.94C162.664 56.18 163.164 57.5333 163.698 59H161.578ZM159.758 53.86C159.331 52.7 158.904 51.58 158.478 50.5C158.064 49.4067 157.631 48.36 157.178 47.36C156.711 48.36 156.264 49.4067 155.838 50.5C155.424 51.58 155.011 52.7 154.598 53.86H159.758ZM180.748 45.14V59H178.808V46.8H172.148V59H170.208V45.14H180.748ZM187.873 45C189.819 45 191.313 45.3733 192.353 46.12C193.406 46.8533 193.933 47.9533 193.933 49.42C193.933 50.22 193.786 50.9067 193.493 51.48C193.213 52.04 192.799 52.5 192.253 52.86C191.719 53.2067 191.066 53.46 190.293 53.62C189.519 53.78 188.646 53.86 187.673 53.86H186.133V59H184.193V45.34C184.739 45.2067 185.346 45.12 186.013 45.08C186.693 45.0267 187.313 45 187.873 45ZM188.033 46.7C187.206 46.7 186.573 46.72 186.133 46.76V52.2H187.593C188.259 52.2 188.859 52.16 189.393 52.08C189.926 51.9867 190.373 51.84 190.733 51.64C191.106 51.4267 191.393 51.14 191.593 50.78C191.793 50.42 191.893 49.96 191.893 49.4C191.893 48.8667 191.786 48.4267 191.573 48.08C191.373 47.7333 191.093 47.46 190.733 47.26C190.386 47.0467 189.979 46.9 189.513 46.82C189.046 46.74 188.553 46.7 188.033 46.7ZM195.801 52.06C195.801 50.8733 195.974 49.8267 196.321 48.92C196.681 48.0133 197.161 47.26 197.761 46.66C198.374 46.0467 199.081 45.5867 199.881 45.28C200.694 44.9733 201.554 44.82 202.461 44.82C203.354 44.82 204.194 44.9733 204.981 45.28C205.781 45.5867 206.481 46.0467 207.081 46.66C207.681 47.26 208.154 48.0133 208.501 48.92C208.861 49.8267 209.041 50.8733 209.041 52.06C209.041 53.2467 208.861 54.2933 208.501 55.2C208.154 56.1067 207.681 56.8667 207.081 57.48C206.481 58.08 205.781 58.5333 204.981 58.84C204.194 59.1467 203.354 59.3 202.461 59.3C201.554 59.3 200.694 59.1467 199.881 58.84C199.081 58.5333 198.374 58.08 197.761 57.48C197.161 56.8667 196.681 56.1067 196.321 55.2C195.974 54.2933 195.801 53.2467 195.801 52.06ZM197.841 52.06C197.841 52.9 197.947 53.6667 198.161 54.36C198.374 55.04 198.674 55.62 199.061 56.1C199.461 56.58 199.941 56.9533 200.501 57.22C201.074 57.4733 201.714 57.6 202.421 57.6C203.127 57.6 203.761 57.4733 204.321 57.22C204.881 56.9533 205.354 56.58 205.741 56.1C206.141 55.62 206.447 55.04 206.661 54.36C206.874 53.6667 206.981 52.9 206.981 52.06C206.981 51.22 206.874 50.46 206.661 49.78C206.447 49.0867 206.141 48.5 205.741 48.02C205.354 47.54 204.881 47.1733 204.321 46.92C203.761 46.6533 203.127 46.52 202.421 46.52C201.714 46.52 201.074 46.6533 200.501 46.92C199.941 47.1733 199.461 47.54 199.061 48.02C198.674 48.5 198.374 49.0867 198.161 49.78C197.947 50.46 197.841 51.22 197.841 52.06ZM211.927 59V45.14H220.387V46.8H213.867V50.92H219.667V52.54H213.867V57.34H220.887V59H211.927ZM233.613 45.14C233.199 45.5933 232.733 46.1 232.213 46.66C231.693 47.2067 231.146 47.7733 230.573 48.36C230.013 48.9333 229.453 49.5 228.893 50.06C228.333 50.62 227.806 51.14 227.313 51.62C227.886 52.02 228.493 52.5133 229.133 53.1C229.773 53.6867 230.399 54.3133 231.013 54.98C231.626 55.6467 232.199 56.3267 232.733 57.02C233.279 57.7133 233.733 58.3733 234.093 59H231.813C231.413 58.3733 230.953 57.7467 230.433 57.12C229.913 56.48 229.359 55.8733 228.773 55.3C228.199 54.7133 227.613 54.1733 227.013 53.68C226.426 53.1867 225.853 52.7667 225.293 52.42V59H223.353V45.14H225.293V51.26C225.759 50.82 226.273 50.3267 226.833 49.78C227.393 49.22 227.946 48.66 228.493 48.1C229.039 47.54 229.553 47.0067 230.033 46.5C230.526 45.98 230.939 45.5267 231.273 45.14H233.613ZM245.523 45.14V46.82H241.163V59H239.223V46.82H234.863V45.14H245.523ZM256.292 45.14H258.232V59H256.292V52.6H249.512V59H247.572V45.14H249.512V50.92H256.292V45.14ZM269.273 54.66C269.273 54.1 269.173 53.6333 268.973 53.26C268.773 52.8867 268.486 52.5933 268.113 52.38C267.74 52.1667 267.293 52.02 266.773 51.94C266.266 51.8467 265.706 51.8 265.093 51.8C264.866 51.8 264.62 51.8 264.353 51.8C264.1 51.8 263.853 51.8133 263.613 51.84V57.38C264.066 57.42 264.406 57.44 264.633 57.44C264.86 57.44 265.126 57.44 265.433 57.44C265.926 57.44 266.406 57.4 266.873 57.32C267.34 57.24 267.746 57.0933 268.093 56.88C268.453 56.6667 268.74 56.3867 268.953 56.04C269.166 55.68 269.273 55.22 269.273 54.66ZM271.313 54.66C271.313 55.4067 271.173 56.06 270.893 56.62C270.613 57.18 270.213 57.6467 269.693 58.02C269.173 58.3933 268.54 58.6733 267.793 58.86C267.046 59.0467 266.206 59.14 265.273 59.14C264.713 59.14 264.113 59.1133 263.473 59.06C262.833 59.02 262.233 58.9333 261.673 58.8V45.14H263.613V50.18C263.853 50.1533 264.106 50.14 264.373 50.14C264.653 50.1267 264.913 50.12 265.153 50.12C269.26 50.12 271.313 51.6333 271.313 54.66ZM273.413 45.14H275.353V59H273.413V45.14ZM287.122 59C286.922 58.6 286.682 58.16 286.402 57.68C286.122 57.1867 285.815 56.68 285.482 56.16C285.149 55.6267 284.802 55.1 284.442 54.58C284.082 54.0467 283.735 53.5467 283.402 53.08C283.069 53.5467 282.722 54.0467 282.362 54.58C282.002 55.1 281.655 55.6267 281.322 56.16C281.002 56.68 280.695 57.1867 280.402 57.68C280.122 58.16 279.882 58.6 279.682 59H277.542C278.142 57.8267 278.835 56.6333 279.622 55.42C280.422 54.2067 281.269 52.96 282.162 51.68L277.722 45.14H279.962L283.382 50.3L286.762 45.14H288.982L284.622 51.6C285.529 52.8933 286.382 54.1533 287.182 55.38C287.982 56.6067 288.689 57.8133 289.302 59H287.122ZM40.16 82V85.7H38.32V80.34H39.78C40.46 79.5667 40.98 78.7133 41.34 77.78C41.7133 76.8333 41.98 75.84 42.14 74.8C42.3133 73.7467 42.4133 72.66 42.44 71.54C42.48 70.42 42.5067 69.2867 42.52 68.14H50.36V80.34H52.1V85.7H50.26V82H40.16ZM44.42 69.8C44.38 70.68 44.3333 71.58 44.28 72.5C44.24 73.4067 44.14 74.3133 43.98 75.22C43.8333 76.1133 43.6133 76.9933 43.32 77.86C43.0267 78.7267 42.6133 79.5533 42.08 80.34H48.42V69.8H44.42ZM53.2616 75.06C53.2616 73.8733 53.4349 72.8267 53.7816 71.92C54.1416 71.0133 54.6216 70.26 55.2216 69.66C55.8349 69.0467 56.5416 68.5867 57.3416 68.28C58.1549 67.9733 59.0149 67.82 59.9216 67.82C60.8149 67.82 61.6549 67.9733 62.4416 68.28C63.2416 68.5867 63.9416 69.0467 64.5416 69.66C65.1416 70.26 65.6149 71.0133 65.9616 71.92C66.3216 72.8267 66.5016 73.8733 66.5016 75.06C66.5016 76.2467 66.3216 77.2933 65.9616 78.2C65.6149 79.1067 65.1416 79.8667 64.5416 80.48C63.9416 81.08 63.2416 81.5333 62.4416 81.84C61.6549 82.1467 60.8149 82.3 59.9216 82.3C59.0149 82.3 58.1549 82.1467 57.3416 81.84C56.5416 81.5333 55.8349 81.08 55.2216 80.48C54.6216 79.8667 54.1416 79.1067 53.7816 78.2C53.4349 77.2933 53.2616 76.2467 53.2616 75.06ZM55.3016 75.06C55.3016 75.9 55.4082 76.6667 55.6216 77.36C55.8349 78.04 56.1349 78.62 56.5216 79.1C56.9216 79.58 57.4016 79.9533 57.9616 80.22C58.5349 80.4733 59.1749 80.6 59.8816 80.6C60.5882 80.6 61.2216 80.4733 61.7816 80.22C62.3416 79.9533 62.8149 79.58 63.2016 79.1C63.6016 78.62 63.9082 78.04 64.1216 77.36C64.3349 76.6667 64.4416 75.9 64.4416 75.06C64.4416 74.22 64.3349 73.46 64.1216 72.78C63.9082 72.0867 63.6016 71.5 63.2016 71.02C62.8149 70.54 62.3416 70.1733 61.7816 69.92C61.2216 69.6533 60.5882 69.52 59.8816 69.52C59.1749 69.52 58.5349 69.6533 57.9616 69.92C57.4016 70.1733 56.9216 70.54 56.5216 71.02C56.1349 71.5 55.8349 72.0867 55.6216 72.78C55.4082 73.46 55.3016 74.22 55.3016 75.06ZM79.648 68.14C79.2346 68.5933 78.768 69.1 78.248 69.66C77.728 70.2067 77.1813 70.7733 76.608 71.36C76.048 71.9333 75.488 72.5 74.928 73.06C74.368 73.62 73.8413 74.14 73.348 74.62C73.9213 75.02 74.528 75.5133 75.168 76.1C75.808 76.6867 76.4346 77.3133 77.048 77.98C77.6613 78.6467 78.2346 79.3267 78.768 80.02C79.3146 80.7133 79.768 81.3733 80.128 82H77.848C77.448 81.3733 76.988 80.7467 76.468 80.12C75.948 79.48 75.3946 78.8733 74.808 78.3C74.2346 77.7133 73.648 77.1733 73.048 76.68C72.4613 76.1867 71.888 75.7667 71.328 75.42V82H69.388V68.14H71.328V74.26C71.7946 73.82 72.308 73.3267 72.868 72.78C73.428 72.22 73.9813 71.66 74.528 71.1C75.0746 70.54 75.588 70.0067 76.068 69.5C76.5613 68.98 76.9746 68.5267 77.308 68.14H79.648ZM88.1261 77.76C87.8594 78.3733 87.5794 78.9533 87.2861 79.5C87.0061 80.0333 86.6661 80.5 86.2661 80.9C85.8794 81.3 85.4061 81.6133 84.8461 81.84C84.2994 82.0667 83.6194 82.18 82.8061 82.18C82.6461 82.18 82.4794 82.1667 82.3061 82.14C82.1328 82.1267 81.9661 82.1 81.8061 82.06C81.6461 82.0333 81.5061 82 81.3861 81.96C81.2661 81.92 81.1794 81.88 81.1261 81.84L81.4661 80.2C81.6394 80.2667 81.8461 80.3333 82.0861 80.4C82.3394 80.4667 82.5994 80.5 82.8661 80.5C83.2661 80.5 83.6128 80.4533 83.9061 80.36C84.2128 80.2533 84.4861 80.1133 84.7261 79.94C84.9661 79.7533 85.1794 79.5333 85.3661 79.28C85.5528 79.0133 85.7328 78.72 85.9061 78.4C85.3194 77.4533 84.7661 76.5133 84.2461 75.58C83.7261 74.6333 83.2461 73.72 82.8061 72.84C82.3661 71.96 81.9661 71.1267 81.6061 70.34C81.2461 69.54 80.9261 68.8067 80.6461 68.14H82.8461C83.2861 69.3 83.8461 70.5933 84.5261 72.02C85.2194 73.4467 85.9861 74.94 86.8261 76.5C87.3594 75.2867 87.8661 73.9533 88.3461 72.5C88.8394 71.0333 89.2994 69.58 89.7261 68.14H91.8261C91.5194 69.1 91.2128 70.0067 90.9061 70.86C90.5994 71.7 90.2928 72.5133 89.9861 73.3C89.6794 74.0733 89.3728 74.8333 89.0661 75.58C88.7594 76.3133 88.4461 77.04 88.1261 77.76ZM99.8072 80.08C99.6739 79.76 99.4939 79.3533 99.2672 78.86C99.0539 78.3667 98.8205 77.8333 98.5672 77.26C98.3139 76.6867 98.0405 76.1 97.7472 75.5C97.4672 74.8867 97.2005 74.3133 96.9472 73.78C96.6939 73.2333 96.4539 72.7467 96.2272 72.32C96.0139 71.8933 95.8405 71.5667 95.7072 71.34C95.5605 72.9133 95.4405 74.62 95.3472 76.46C95.2539 78.2867 95.1739 80.1333 95.1072 82H93.2072C93.2605 80.8 93.3205 79.5933 93.3872 78.38C93.4539 77.1533 93.5272 75.9533 93.6072 74.78C93.7005 73.5933 93.7939 72.44 93.8872 71.32C93.9939 70.2 94.1072 69.14 94.2272 68.14H95.9272C96.2872 68.7267 96.6739 69.42 97.0872 70.22C97.5005 71.02 97.9139 71.86 98.3272 72.74C98.7405 73.6067 99.1405 74.48 99.5272 75.36C99.9139 76.2267 100.267 77.02 100.587 77.74C100.907 77.02 101.261 76.2267 101.647 75.36C102.034 74.48 102.434 73.6067 102.847 72.74C103.261 71.86 103.674 71.02 104.087 70.22C104.501 69.42 104.887 68.7267 105.247 68.14H106.947C107.401 72.6067 107.741 77.2267 107.967 82H106.067C106.001 80.1333 105.921 78.2867 105.827 76.46C105.734 74.62 105.614 72.9133 105.467 71.34C105.334 71.5667 105.154 71.8933 104.927 72.32C104.714 72.7467 104.481 73.2333 104.227 73.78C103.974 74.3133 103.701 74.8867 103.407 75.5C103.127 76.1 102.861 76.6867 102.607 77.26C102.354 77.8333 102.114 78.3667 101.887 78.86C101.674 79.3533 101.501 79.76 101.367 80.08H99.8072ZM111.009 82V68.14H119.469V69.8H112.949V73.92H118.749V75.54H112.949V80.34H119.969V82H111.009ZM131.155 68.14H133.095V82H131.155V75.6H124.375V82H122.435V68.14H124.375V73.92H131.155V68.14ZM145.796 68.14V69.82H141.436V82H139.496V69.82H135.136V68.14H145.796ZM155.816 82C155.589 81.4 155.376 80.8133 155.176 80.24C154.976 79.6533 154.769 79.06 154.556 78.46H148.276L147.016 82H144.996C145.529 80.5333 146.029 79.18 146.496 77.94C146.963 76.6867 147.416 75.5 147.856 74.38C148.309 73.26 148.756 72.1933 149.196 71.18C149.636 70.1533 150.096 69.14 150.576 68.14H152.356C152.836 69.14 153.296 70.1533 153.736 71.18C154.176 72.1933 154.616 73.26 155.056 74.38C155.509 75.5 155.969 76.6867 156.436 77.94C156.903 79.18 157.403 80.5333 157.936 82H155.816ZM153.996 76.86C153.569 75.7 153.143 74.58 152.716 73.5C152.303 72.4067 151.869 71.36 151.416 70.36C150.949 71.36 150.503 72.4067 150.076 73.5C149.663 74.58 149.249 75.7 148.836 76.86H153.996ZM170.358 80.34H172.098V85.7H170.258V82H159.818V68.14H161.758V80.34H168.418V68.14H170.358V80.34ZM174.173 82V68.14H176.073V78.4C176.5 77.6933 177.02 76.8867 177.633 75.98C178.26 75.0733 178.92 74.1533 179.613 73.22C180.32 72.2733 181.026 71.36 181.733 70.48C182.453 69.5867 183.126 68.8067 183.753 68.14H185.293V82H183.393V71.18C183.02 71.6067 182.613 72.1 182.173 72.66C181.733 73.22 181.28 73.82 180.813 74.46C180.346 75.0867 179.873 75.74 179.393 76.42C178.926 77.1 178.473 77.7733 178.033 78.44C177.593 79.0933 177.18 79.7267 176.793 80.34C176.42 80.9533 176.086 81.5067 175.793 82H174.173ZM188.724 82V68.14H190.624V78.4C191.051 77.6933 191.571 76.8867 192.184 75.98C192.811 75.0733 193.471 74.1533 194.164 73.22C194.871 72.2733 195.577 71.36 196.284 70.48C197.004 69.5867 197.677 68.8067 198.304 68.14H199.844V82H197.944V71.18C197.571 71.6067 197.164 72.1 196.724 72.66C196.284 73.22 195.831 73.82 195.364 74.46C194.897 75.0867 194.424 75.74 193.944 76.42C193.477 77.1 193.024 77.7733 192.584 78.44C192.144 79.0933 191.731 79.7267 191.344 80.34C190.971 80.9533 190.637 81.5067 190.344 82H188.724ZM194.304 66.8C193.464 66.8 192.777 66.5867 192.244 66.16C191.724 65.7333 191.411 65.14 191.304 64.38L192.724 64C192.831 64.4267 193.011 64.7733 193.264 65.04C193.517 65.3067 193.864 65.44 194.304 65.44C194.744 65.44 195.091 65.3067 195.344 65.04C195.597 64.7733 195.777 64.4267 195.884 64L197.284 64.38C197.177 65.14 196.864 65.7333 196.344 66.16C195.824 66.5867 195.144 66.8 194.304 66.8Z" fill="#FCEE0A"/>
</svg>
